%TF.GenerationSoftware,KiCad,Pcbnew,9.0.7*%
%TF.CreationDate,2026-06-01T23:56:11+02:00*%
%TF.ProjectId,flysys_vario,666c7973-7973-45f7-9661-72696f2e6b69,rev?*%
%TF.SameCoordinates,Original*%
%TF.FileFunction,Paste,Top*%
%TF.FilePolarity,Positive*%
%FSLAX46Y46*%
G04 Gerber Fmt 4.6, Leading zero omitted, Abs format (unit mm)*
G04 Created by KiCad (PCBNEW 9.0.7) date 2026-06-01 23:56:11*
%MOMM*%
%LPD*%
G01*
G04 APERTURE LIST*
G04 Aperture macros list*
%AMRoundRect*
0 Rectangle with rounded corners*
0 $1 Rounding radius*
0 $2 $3 $4 $5 $6 $7 $8 $9 X,Y pos of 4 corners*
0 Add a 4 corners polygon primitive as box body*
4,1,4,$2,$3,$4,$5,$6,$7,$8,$9,$2,$3,0*
0 Add four circle primitives for the rounded corners*
1,1,$1+$1,$2,$3*
1,1,$1+$1,$4,$5*
1,1,$1+$1,$6,$7*
1,1,$1+$1,$8,$9*
0 Add four rect primitives between the rounded corners*
20,1,$1+$1,$2,$3,$4,$5,0*
20,1,$1+$1,$4,$5,$6,$7,0*
20,1,$1+$1,$6,$7,$8,$9,0*
20,1,$1+$1,$8,$9,$2,$3,0*%
%AMFreePoly0*
4,1,6,0.850000,-0.850000,-0.850000,-0.850000,-0.850000,0.430000,-0.420000,0.850000,0.850000,0.850000,0.850000,-0.850000,0.850000,-0.850000,$1*%
G04 Aperture macros list end*
%ADD10R,0.810000X0.860000*%
%ADD11RoundRect,0.162500X-0.337500X-0.162500X0.337500X-0.162500X0.337500X0.162500X-0.337500X0.162500X0*%
%ADD12R,1.100000X0.600000*%
%ADD13R,0.300000X1.150000*%
%ADD14R,0.325000X0.300000*%
%ADD15R,0.300000X0.325000*%
%ADD16R,0.800000X0.400000*%
%ADD17R,0.400000X0.800000*%
%ADD18R,0.800000X0.800000*%
%ADD19R,1.200000X1.200000*%
%ADD20R,0.250000X0.650000*%
%ADD21R,0.650000X0.250000*%
%ADD22O,0.850000X0.280000*%
%ADD23O,0.280000X0.850000*%
%ADD24FreePoly0,0.000000*%
%ADD25R,0.860000X0.810000*%
%ADD26RoundRect,0.162500X-0.162500X-0.337500X0.162500X-0.337500X0.162500X0.337500X-0.162500X0.337500X0*%
%ADD27RoundRect,0.162500X-0.337500X0.162500X-0.337500X-0.162500X0.337500X-0.162500X0.337500X0.162500X0*%
%ADD28RoundRect,0.189000X-0.336000X-0.811000X0.336000X-0.811000X0.336000X0.811000X-0.336000X0.811000X0*%
%ADD29RoundRect,0.217500X-0.507500X-1.132500X0.507500X-1.132500X0.507500X1.132500X-0.507500X1.132500X0*%
%ADD30R,0.530000X1.070000*%
%ADD31R,0.900000X0.800000*%
%ADD32R,0.800000X0.900000*%
%ADD33RoundRect,0.230000X0.770000X-0.345000X0.770000X0.345000X-0.770000X0.345000X-0.770000X-0.345000X0*%
G04 APERTURE END LIST*
D10*
%TO.C,R2*%
X36500000Y-85000000D03*
X38000000Y-85000000D03*
%TD*%
D11*
%TO.C,SW1*%
X65250000Y-95750000D03*
X65250000Y-97250000D03*
X60750000Y-95750000D03*
X60750000Y-97250000D03*
%TD*%
D12*
%TO.C,U3*%
X51200000Y-82050000D03*
X51200000Y-83000000D03*
X51200000Y-83950000D03*
X53800000Y-83950000D03*
X53800000Y-82050000D03*
%TD*%
D10*
%TO.C,R5*%
X58850000Y-75000000D03*
X60350000Y-75000000D03*
%TD*%
D13*
%TO.C,USB1*%
X55600000Y-93500000D03*
X55300000Y-93500000D03*
X54800000Y-93500000D03*
X54500000Y-93500000D03*
X54000000Y-93500000D03*
X53500000Y-93500000D03*
X53000000Y-93500000D03*
X52500000Y-93500000D03*
X52000000Y-93500000D03*
X51500000Y-93500000D03*
X51000000Y-93500000D03*
X50500000Y-93500000D03*
X50000000Y-93500000D03*
X49700000Y-93500000D03*
X49200000Y-93500000D03*
X48900000Y-93500000D03*
%TD*%
D14*
%TO.C,U5*%
X34975000Y-59500000D03*
X34975000Y-60000000D03*
D15*
X35237500Y-60512500D03*
X35737500Y-60512500D03*
X36237500Y-60512500D03*
D14*
X36500000Y-60000000D03*
X36500000Y-59500000D03*
D15*
X36237500Y-58987500D03*
X35737500Y-58987500D03*
X35237500Y-58987500D03*
%TD*%
D16*
%TO.C,U4*%
X45040000Y-47800000D03*
X45040000Y-48650000D03*
X45040000Y-49500000D03*
X45040000Y-50350000D03*
X45040000Y-51200000D03*
X45040000Y-52050000D03*
X45040000Y-52900000D03*
X45040000Y-53750000D03*
X45040000Y-54600000D03*
X45040000Y-55450000D03*
X45040000Y-56300000D03*
X45040000Y-57150000D03*
X45040000Y-58000000D03*
X45040000Y-58850000D03*
X45040000Y-59700000D03*
D17*
X46070000Y-60780000D03*
X46920000Y-60780000D03*
X47770000Y-60780000D03*
X48620000Y-60780000D03*
X49470000Y-60780000D03*
X50320000Y-60780000D03*
X51170000Y-60780000D03*
X52020000Y-60780000D03*
X52870000Y-60780000D03*
X53720000Y-60780000D03*
X54570000Y-60780000D03*
X55420000Y-60780000D03*
X56270000Y-60780000D03*
X57120000Y-60780000D03*
X57970000Y-60780000D03*
D16*
X59000000Y-59700000D03*
X59000000Y-58850000D03*
X59000000Y-58000000D03*
X59000000Y-57150000D03*
X59000000Y-56300000D03*
X59000000Y-55450000D03*
X59000000Y-54600000D03*
X59000000Y-53750000D03*
X59000000Y-52900000D03*
X59000000Y-52050000D03*
X59000000Y-51200000D03*
X59000000Y-50350000D03*
X59000000Y-49500000D03*
X59000000Y-48650000D03*
X59000000Y-47800000D03*
D17*
X57970000Y-46720000D03*
X57120000Y-46720000D03*
X56270000Y-46720000D03*
X55420000Y-46720000D03*
X54570000Y-46720000D03*
X53720000Y-46720000D03*
X52870000Y-46720000D03*
X52020000Y-46720000D03*
X51170000Y-46720000D03*
X50320000Y-46720000D03*
X49470000Y-46720000D03*
X48620000Y-46720000D03*
X47770000Y-46720000D03*
X46920000Y-46720000D03*
X46070000Y-46720000D03*
D18*
X45020000Y-46750000D03*
X59020000Y-46750000D03*
X45020000Y-60750000D03*
X59020000Y-60750000D03*
D19*
X50370000Y-52100000D03*
X52020000Y-52100000D03*
X53670000Y-52100000D03*
X50370000Y-53750000D03*
X52020000Y-53750000D03*
X53670000Y-53750000D03*
X50370000Y-55400000D03*
X52020000Y-55400000D03*
X53670000Y-55400000D03*
%TD*%
D20*
%TO.C,U2*%
X35500000Y-52000000D03*
X35000000Y-52000000D03*
X34500000Y-52000000D03*
D21*
X33750000Y-51750000D03*
X33750000Y-51250000D03*
X33750000Y-50750000D03*
X33750000Y-50250000D03*
D20*
X34500000Y-50000000D03*
X35000000Y-50000000D03*
X35500000Y-50000000D03*
D21*
X36250000Y-50250000D03*
X36250000Y-50750000D03*
X36250000Y-51250000D03*
X36250000Y-51750000D03*
%TD*%
D22*
%TO.C,U1*%
X62250000Y-61750000D03*
X62250000Y-62250000D03*
X62250000Y-62750000D03*
X62250000Y-63250000D03*
D23*
X63000000Y-64000000D03*
X63500000Y-64000000D03*
X64000000Y-64000000D03*
X64500000Y-64000000D03*
D22*
X65250000Y-63250000D03*
X65250000Y-62750000D03*
X65250000Y-62250000D03*
X65250000Y-61750000D03*
D23*
X64500000Y-61000000D03*
X64000000Y-61000000D03*
X63500000Y-61000000D03*
X63000000Y-61000000D03*
D24*
X63750000Y-62500000D03*
%TD*%
D10*
%TO.C,R22*%
X42000000Y-50000000D03*
X40500000Y-50000000D03*
%TD*%
%TO.C,R21*%
X40500000Y-52000000D03*
X42000000Y-52000000D03*
%TD*%
%TO.C,R20*%
X58000000Y-81500000D03*
X56500000Y-81500000D03*
%TD*%
%TO.C,R19*%
X64000000Y-54500000D03*
X62500000Y-54500000D03*
%TD*%
%TO.C,R18*%
X40500000Y-58500000D03*
X42000000Y-58500000D03*
%TD*%
%TO.C,R17*%
X40500000Y-56500000D03*
X42000000Y-56500000D03*
%TD*%
%TO.C,R16*%
X65500000Y-48000000D03*
X64000000Y-48000000D03*
%TD*%
%TO.C,R15*%
X59500000Y-67500000D03*
X61000000Y-67500000D03*
%TD*%
%TO.C,R14*%
X66250000Y-59500000D03*
X64750000Y-59500000D03*
%TD*%
%TO.C,R13*%
X64000000Y-56500000D03*
X62500000Y-56500000D03*
%TD*%
D25*
%TO.C,R12*%
X59000000Y-63500000D03*
X59000000Y-65000000D03*
%TD*%
%TO.C,R11*%
X69000000Y-62750000D03*
X69000000Y-61250000D03*
%TD*%
%TO.C,R10*%
X55500000Y-88250000D03*
X55500000Y-89750000D03*
%TD*%
%TO.C,R9*%
X49500000Y-88250000D03*
X49500000Y-89750000D03*
%TD*%
%TO.C,R8*%
X50500000Y-64750000D03*
X50500000Y-63250000D03*
%TD*%
%TO.C,R7*%
X50500000Y-68500000D03*
X50500000Y-67000000D03*
%TD*%
%TO.C,R6*%
X60500000Y-90750000D03*
X60500000Y-92250000D03*
%TD*%
%TO.C,R4*%
X48450700Y-64758500D03*
X48450700Y-63258500D03*
%TD*%
%TO.C,R3*%
X67500000Y-95750000D03*
X67500000Y-97250000D03*
%TD*%
%TO.C,R1*%
X36500000Y-81000000D03*
X36500000Y-82500000D03*
%TD*%
D26*
%TO.C,Q2*%
X70050000Y-97450000D03*
X70050000Y-95550000D03*
X71950000Y-96500000D03*
%TD*%
D27*
%TO.C,Q1*%
X53050000Y-67050000D03*
X54950000Y-67050000D03*
X54000000Y-68950000D03*
%TD*%
D18*
%TO.C,LED2*%
X60000000Y-81500000D03*
X61500000Y-81500000D03*
%TD*%
%TO.C,LED1*%
X71000000Y-90750000D03*
X71000000Y-92250000D03*
%TD*%
D28*
%TO.C,J1*%
X39500000Y-98000000D03*
X41500000Y-98000000D03*
D29*
X37450000Y-96150000D03*
X43550000Y-96150000D03*
%TD*%
D30*
%TO.C,D1*%
X51550000Y-90150000D03*
X52500000Y-90150000D03*
X53450000Y-90150000D03*
X53450000Y-87850000D03*
X52500000Y-87850000D03*
X51550000Y-87850000D03*
%TD*%
D31*
%TO.C,C14*%
X69000000Y-65800000D03*
X69000000Y-67200000D03*
%TD*%
D32*
%TO.C,C13*%
X60500000Y-73000000D03*
X59100000Y-73000000D03*
%TD*%
%TO.C,C12*%
X39500000Y-74500000D03*
X38100000Y-74500000D03*
%TD*%
%TO.C,C11*%
X39500000Y-72500000D03*
X38100000Y-72500000D03*
%TD*%
%TO.C,C10*%
X39500000Y-70500000D03*
X38100000Y-70500000D03*
%TD*%
%TO.C,C9*%
X39500000Y-68500000D03*
X38100000Y-68500000D03*
%TD*%
%TO.C,C8*%
X57900000Y-84000000D03*
X56500000Y-84000000D03*
%TD*%
%TO.C,C7*%
X60500000Y-77500000D03*
X59100000Y-77500000D03*
%TD*%
%TO.C,C6*%
X39500000Y-66500000D03*
X38100000Y-66500000D03*
%TD*%
%TO.C,C5*%
X52000000Y-78500000D03*
X53400000Y-78500000D03*
%TD*%
D31*
%TO.C,C4*%
X61500000Y-46500000D03*
X61500000Y-47900000D03*
%TD*%
D32*
%TO.C,C3*%
X60500000Y-70500000D03*
X59100000Y-70500000D03*
%TD*%
%TO.C,C2*%
X38400000Y-88000000D03*
X37000000Y-88000000D03*
%TD*%
D31*
%TO.C,C1*%
X42000000Y-87200000D03*
X42000000Y-85800000D03*
%TD*%
D33*
%TO.C,BZ1*%
X54000000Y-74650000D03*
X54000000Y-72350000D03*
%TD*%
M02*
