%TF.GenerationSoftware,KiCad,Pcbnew,9.0.7*%
%TF.CreationDate,2026-06-01T23:56:11+02:00*%
%TF.ProjectId,flysys_vario,666c7973-7973-45f7-9661-72696f2e6b69,rev?*%
%TF.SameCoordinates,Original*%
%TF.FileFunction,Copper,L1,Top*%
%TF.FilePolarity,Positive*%
%FSLAX46Y46*%
G04 Gerber Fmt 4.6, Leading zero omitted, Abs format (unit mm)*
G04 Created by KiCad (PCBNEW 9.0.7) date 2026-06-01 23:56:11*
%MOMM*%
%LPD*%
G01*
G04 APERTURE LIST*
G04 Aperture macros list*
%AMRoundRect*
0 Rectangle with rounded corners*
0 $1 Rounding radius*
0 $2 $3 $4 $5 $6 $7 $8 $9 X,Y pos of 4 corners*
0 Add a 4 corners polygon primitive as box body*
4,1,4,$2,$3,$4,$5,$6,$7,$8,$9,$2,$3,0*
0 Add four circle primitives for the rounded corners*
1,1,$1+$1,$2,$3*
1,1,$1+$1,$4,$5*
1,1,$1+$1,$6,$7*
1,1,$1+$1,$8,$9*
0 Add four rect primitives between the rounded corners*
20,1,$1+$1,$2,$3,$4,$5,0*
20,1,$1+$1,$4,$5,$6,$7,0*
20,1,$1+$1,$6,$7,$8,$9,0*
20,1,$1+$1,$8,$9,$2,$3,0*%
%AMFreePoly0*
4,1,6,0.850000,-0.850000,-0.850000,-0.850000,-0.850000,0.430000,-0.420000,0.850000,0.850000,0.850000,0.850000,-0.850000,0.850000,-0.850000,$1*%
G04 Aperture macros list end*
%TA.AperFunction,SMDPad,CuDef*%
%ADD10R,0.810000X0.860000*%
%TD*%
%TA.AperFunction,SMDPad,CuDef*%
%ADD11RoundRect,0.162500X-0.337500X-0.162500X0.337500X-0.162500X0.337500X0.162500X-0.337500X0.162500X0*%
%TD*%
%TA.AperFunction,SMDPad,CuDef*%
%ADD12R,1.100000X0.600000*%
%TD*%
%TA.AperFunction,SMDPad,CuDef*%
%ADD13R,0.300000X1.150000*%
%TD*%
%TA.AperFunction,ComponentPad*%
%ADD14O,1.100000X2.100000*%
%TD*%
%TA.AperFunction,ComponentPad*%
%ADD15O,1.100000X1.800000*%
%TD*%
%TA.AperFunction,ComponentPad*%
%ADD16C,0.650000*%
%TD*%
%TA.AperFunction,SMDPad,CuDef*%
%ADD17R,0.325000X0.300000*%
%TD*%
%TA.AperFunction,SMDPad,CuDef*%
%ADD18R,0.300000X0.325000*%
%TD*%
%TA.AperFunction,SMDPad,CuDef*%
%ADD19R,0.800000X0.400000*%
%TD*%
%TA.AperFunction,SMDPad,CuDef*%
%ADD20R,0.400000X0.800000*%
%TD*%
%TA.AperFunction,SMDPad,CuDef*%
%ADD21R,0.800000X0.800000*%
%TD*%
%TA.AperFunction,SMDPad,CuDef*%
%ADD22R,1.200000X1.200000*%
%TD*%
%TA.AperFunction,SMDPad,CuDef*%
%ADD23R,0.250000X0.650000*%
%TD*%
%TA.AperFunction,SMDPad,CuDef*%
%ADD24R,0.650000X0.250000*%
%TD*%
%TA.AperFunction,SMDPad,CuDef*%
%ADD25O,0.850000X0.280000*%
%TD*%
%TA.AperFunction,SMDPad,CuDef*%
%ADD26O,0.280000X0.850000*%
%TD*%
%TA.AperFunction,SMDPad,CuDef*%
%ADD27FreePoly0,0.000000*%
%TD*%
%TA.AperFunction,SMDPad,CuDef*%
%ADD28R,0.860000X0.810000*%
%TD*%
%TA.AperFunction,SMDPad,CuDef*%
%ADD29RoundRect,0.162500X-0.162500X-0.337500X0.162500X-0.337500X0.162500X0.337500X-0.162500X0.337500X0*%
%TD*%
%TA.AperFunction,SMDPad,CuDef*%
%ADD30RoundRect,0.162500X-0.337500X0.162500X-0.337500X-0.162500X0.337500X-0.162500X0.337500X0.162500X0*%
%TD*%
%TA.AperFunction,SMDPad,CuDef*%
%ADD31C,0.850000*%
%TD*%
%TA.AperFunction,SMDPad,CuDef*%
%ADD32RoundRect,0.189000X-0.336000X-0.811000X0.336000X-0.811000X0.336000X0.811000X-0.336000X0.811000X0*%
%TD*%
%TA.AperFunction,SMDPad,CuDef*%
%ADD33RoundRect,0.217500X-0.507500X-1.132500X0.507500X-1.132500X0.507500X1.132500X-0.507500X1.132500X0*%
%TD*%
%TA.AperFunction,SMDPad,CuDef*%
%ADD34R,0.530000X1.070000*%
%TD*%
%TA.AperFunction,SMDPad,CuDef*%
%ADD35R,0.900000X0.800000*%
%TD*%
%TA.AperFunction,SMDPad,CuDef*%
%ADD36R,0.800000X0.900000*%
%TD*%
%TA.AperFunction,SMDPad,CuDef*%
%ADD37RoundRect,0.230000X0.770000X-0.345000X0.770000X0.345000X-0.770000X0.345000X-0.770000X-0.345000X0*%
%TD*%
%TA.AperFunction,ViaPad*%
%ADD38C,1.600000*%
%TD*%
%TA.AperFunction,Conductor*%
%ADD39C,0.150000*%
%TD*%
%TA.AperFunction,Conductor*%
%ADD40C,0.200000*%
%TD*%
G04 APERTURE END LIST*
D10*
%TO.P,R2,2,2*%
%TO.N,/BAT_SENSE*%
X36500000Y-85000000D03*
%TO.P,R2,1,1*%
%TO.N,/BAT*%
X38000000Y-85000000D03*
%TD*%
D11*
%TO.P,SW1,4,B*%
%TO.N,/GND*%
X65250000Y-95750000D03*
%TO.P,SW1,3,B*%
X65250000Y-97250000D03*
%TO.P,SW1,2,A*%
%TO.N,/BOOT_USER_BTN_N*%
X60750000Y-95750000D03*
%TO.P,SW1,1,A*%
X60750000Y-97250000D03*
%TD*%
D12*
%TO.P,U3,1,IN*%
%TO.N,/SYS*%
X51200000Y-82050000D03*
%TO.P,U3,2,GND*%
%TO.N,/GND*%
X51200000Y-83000000D03*
%TO.P,U3,3,EN*%
%TO.N,/SYS*%
X51200000Y-83950000D03*
%TO.P,U3,4,NC*%
%TO.N,unconnected-(U3-NC-Pad4)*%
X53800000Y-83950000D03*
%TO.P,U3,5,OUT*%
%TO.N,/+3V3*%
X53800000Y-82050000D03*
%TD*%
D10*
%TO.P,R5,1,1*%
%TO.N,/SYS*%
X58850000Y-75000000D03*
%TO.P,R5,2,2*%
%TO.N,/BLE_LED_A*%
X60350000Y-75000000D03*
%TD*%
D13*
%TO.P,USB1,A12,GND*%
%TO.N,/GND*%
X55600000Y-93500000D03*
%TO.P,USB1,B1,GND*%
X55300000Y-93500000D03*
%TO.P,USB1,A9,VBUS*%
%TO.N,/USB_VBUS*%
X54800000Y-93500000D03*
%TO.P,USB1,B4,VBUS*%
X54500000Y-93500000D03*
%TO.P,USB1,B5,CC2*%
%TO.N,/CC2*%
X54000000Y-93500000D03*
%TO.P,USB1,A8,SBU1*%
%TO.N,unconnected-(USB1-SBU1-PadA8)*%
X53500000Y-93500000D03*
%TO.P,USB1,B6,DP2*%
%TO.N,/USB_DP_CONN*%
X53000000Y-93500000D03*
%TO.P,USB1,A7,DN1*%
%TO.N,/USB_DM_CONN*%
X52500000Y-93500000D03*
%TO.P,USB1,A6,DP1*%
%TO.N,/USB_DP_CONN*%
X52000000Y-93500000D03*
%TO.P,USB1,B7,DN2*%
%TO.N,/USB_DM_CONN*%
X51500000Y-93500000D03*
%TO.P,USB1,A5,CC1*%
%TO.N,/CC1*%
X51000000Y-93500000D03*
%TO.P,USB1,B8,SBU2*%
%TO.N,unconnected-(USB1-SBU2-PadB8)*%
X50500000Y-93500000D03*
%TO.P,USB1,B9,VBUS*%
%TO.N,/USB_VBUS*%
X50000000Y-93500000D03*
%TO.P,USB1,A4,VBUS*%
X49700000Y-93500000D03*
%TO.P,USB1,B12,GND*%
%TO.N,/GND*%
X49200000Y-93500000D03*
%TO.P,USB1,A1,GND*%
X48900000Y-93500000D03*
D14*
%TO.P,USB1,1,EH*%
X47930000Y-94060000D03*
%TO.P,USB1,2*%
%TO.N,N/C*%
X56570000Y-94060000D03*
D15*
%TO.P,USB1,3*%
X56570000Y-98240000D03*
%TO.P,USB1,4*%
X47930000Y-98240000D03*
D16*
%TO.P,USB1,*%
%TO.N,*%
X55140000Y-94540000D03*
X49360000Y-94540000D03*
%TD*%
D17*
%TO.P,U5,1,VDDIO*%
%TO.N,/+3V3*%
X34975000Y-59500000D03*
%TO.P,U5,2,SCK*%
%TO.N,/I2C_SCL*%
X34975000Y-60000000D03*
D18*
%TO.P,U5,3,VSS*%
%TO.N,/GND*%
X35237500Y-60512500D03*
%TO.P,U5,4,SDI*%
%TO.N,/I2C_SDA*%
X35737500Y-60512500D03*
%TO.P,U5,5,SDO*%
%TO.N,/GND*%
X36237500Y-60512500D03*
D17*
%TO.P,U5,6,CSB*%
%TO.N,/+3V3*%
X36500000Y-60000000D03*
%TO.P,U5,7,INT*%
%TO.N,/BMP581_INT*%
X36500000Y-59500000D03*
D18*
%TO.P,U5,8,VSS*%
%TO.N,/GND*%
X36237500Y-58987500D03*
%TO.P,U5,9,VSS*%
X35737500Y-58987500D03*
%TO.P,U5,10,VDD*%
%TO.N,/+3V3*%
X35237500Y-58987500D03*
%TD*%
D19*
%TO.P,U4,1,GND*%
%TO.N,/GND*%
X45040000Y-47800000D03*
%TO.P,U4,2,GND*%
X45040000Y-48650000D03*
%TO.P,U4,3,3V3*%
%TO.N,/+3V3*%
X45040000Y-49500000D03*
%TO.P,U4,4,IO0*%
%TO.N,/BOOT_USER_BTN_N*%
X45040000Y-50350000D03*
%TO.P,U4,5,IO1*%
%TO.N,/BAT_SENSE*%
X45040000Y-51200000D03*
%TO.P,U4,6,IO2*%
%TO.N,/USB_VBUS_SENSE*%
X45040000Y-52050000D03*
%TO.P,U4,7,IO3*%
%TO.N,unconnected-(U4-IO3-Pad7)*%
X45040000Y-52900000D03*
%TO.P,U4,8,IO4*%
%TO.N,/BMP581_INT*%
X45040000Y-53750000D03*
%TO.P,U4,9,IO5*%
%TO.N,/BMI323_INT1*%
X45040000Y-54600000D03*
%TO.P,U4,10,IO6*%
%TO.N,/BMI323_INT2*%
X45040000Y-55450000D03*
%TO.P,U4,11,IO7*%
%TO.N,unconnected-(U4-IO7-Pad11)*%
X45040000Y-56300000D03*
%TO.P,U4,12,IO8*%
%TO.N,/I2C_SCL*%
X45040000Y-57150000D03*
%TO.P,U4,13,IO9*%
%TO.N,/I2C_SDA*%
X45040000Y-58000000D03*
%TO.P,U4,14,IO10*%
%TO.N,unconnected-(U4-IO10-Pad14)*%
X45040000Y-58850000D03*
%TO.P,U4,15,IO11*%
%TO.N,unconnected-(U4-IO11-Pad15)*%
X45040000Y-59700000D03*
D20*
%TO.P,U4,16,IO12*%
%TO.N,unconnected-(U4-IO12-Pad16)*%
X46070000Y-60780000D03*
%TO.P,U4,17,IO13*%
%TO.N,unconnected-(U4-IO13-Pad17)*%
X46920000Y-60780000D03*
%TO.P,U4,18,IO14*%
%TO.N,unconnected-(U4-IO14-Pad18)*%
X47770000Y-60780000D03*
%TO.P,U4,19,IO15*%
%TO.N,unconnected-(U4-IO15-Pad19)*%
X48620000Y-60780000D03*
%TO.P,U4,20,IO16*%
%TO.N,unconnected-(U4-IO16-Pad20)*%
X49470000Y-60780000D03*
%TO.P,U4,21,IO17*%
%TO.N,/BUZZER_PWM*%
X50320000Y-60780000D03*
%TO.P,U4,22,IO18*%
%TO.N,/BLE_LED_PWM*%
X51170000Y-60780000D03*
%TO.P,U4,23,IO19*%
%TO.N,/USB_OTG_DM*%
X52020000Y-60780000D03*
%TO.P,U4,24,IO20*%
%TO.N,/USB_OTG_DP*%
X52870000Y-60780000D03*
%TO.P,U4,25,IO21*%
%TO.N,unconnected-(U4-IO21-Pad25)*%
X53720000Y-60780000D03*
%TO.P,U4,26,IO26*%
%TO.N,unconnected-(U4-IO26-Pad26)*%
X54570000Y-60780000D03*
%TO.P,U4,27,IO47*%
%TO.N,unconnected-(U4-IO47-Pad27)*%
X55420000Y-60780000D03*
%TO.P,U4,28,IO33*%
%TO.N,unconnected-(U4-IO33-Pad28)*%
X56270000Y-60780000D03*
%TO.P,U4,29,IO34*%
%TO.N,unconnected-(U4-IO34-Pad29)*%
X57120000Y-60780000D03*
%TO.P,U4,30,IO48*%
%TO.N,unconnected-(U4-IO48-Pad30)*%
X57970000Y-60780000D03*
D19*
%TO.P,U4,31,IO35*%
%TO.N,unconnected-(U4-IO35-Pad31)*%
X59000000Y-59700000D03*
%TO.P,U4,32,IO36*%
%TO.N,unconnected-(U4-IO36-Pad32)*%
X59000000Y-58850000D03*
%TO.P,U4,33,IO37*%
%TO.N,/nCHG*%
X59000000Y-58000000D03*
%TO.P,U4,34,IO38*%
%TO.N,/nPGOOD*%
X59000000Y-57150000D03*
%TO.P,U4,35,IO39*%
%TO.N,unconnected-(U4-IO39-Pad35)*%
X59000000Y-56300000D03*
%TO.P,U4,36,IO40*%
%TO.N,unconnected-(U4-IO40-Pad36)*%
X59000000Y-55450000D03*
%TO.P,U4,37,IO41*%
%TO.N,unconnected-(U4-IO41-Pad37)*%
X59000000Y-54600000D03*
%TO.P,U4,38,IO42*%
%TO.N,unconnected-(U4-IO42-Pad38)*%
X59000000Y-53750000D03*
%TO.P,U4,39,TXD0*%
%TO.N,/TXD0*%
X59000000Y-52900000D03*
%TO.P,U4,40,RXD0*%
%TO.N,/RXD0*%
X59000000Y-52050000D03*
%TO.P,U4,41,IO45*%
%TO.N,unconnected-(U4-IO45-Pad41)*%
X59000000Y-51200000D03*
%TO.P,U4,42,GND*%
%TO.N,/GND*%
X59000000Y-50350000D03*
%TO.P,U4,43,GND*%
X59000000Y-49500000D03*
%TO.P,U4,44,IO46*%
%TO.N,unconnected-(U4-IO46-Pad44)*%
X59000000Y-48650000D03*
%TO.P,U4,45,EN*%
%TO.N,/EN*%
X59000000Y-47800000D03*
D20*
%TO.P,U4,46,GND*%
%TO.N,/GND*%
X57970000Y-46720000D03*
%TO.P,U4,47,GND*%
X57120000Y-46720000D03*
%TO.P,U4,48,GND*%
X56270000Y-46720000D03*
%TO.P,U4,49,GND*%
X55420000Y-46720000D03*
%TO.P,U4,50,GND*%
X54570000Y-46720000D03*
%TO.P,U4,51,GND*%
X53720000Y-46720000D03*
%TO.P,U4,52,GND*%
X52870000Y-46720000D03*
%TO.P,U4,53,GND*%
X52020000Y-46720000D03*
%TO.P,U4,54,GND*%
X51170000Y-46720000D03*
%TO.P,U4,55,GND*%
X50320000Y-46720000D03*
%TO.P,U4,56,GND*%
X49470000Y-46720000D03*
%TO.P,U4,57,GND*%
X48620000Y-46720000D03*
%TO.P,U4,58,GND*%
X47770000Y-46720000D03*
%TO.P,U4,59,GND*%
X46920000Y-46720000D03*
%TO.P,U4,60,GND*%
X46070000Y-46720000D03*
D21*
%TO.P,U4,GND,GND*%
X45020000Y-46750000D03*
X59020000Y-46750000D03*
X45020000Y-60750000D03*
X59020000Y-60750000D03*
D22*
X50370000Y-52100000D03*
X52020000Y-52100000D03*
X53670000Y-52100000D03*
X50370000Y-53750000D03*
X52020000Y-53750000D03*
X53670000Y-53750000D03*
X50370000Y-55400000D03*
X52020000Y-55400000D03*
X53670000Y-55400000D03*
%TD*%
D23*
%TO.P,U2,14,SDX*%
%TO.N,/I2C_SDA*%
X35500000Y-52000000D03*
%TO.P,U2,13,SCX*%
%TO.N,/I2C_SCL*%
X35000000Y-52000000D03*
%TO.P,U2,12,CSB*%
%TO.N,/+3V3*%
X34500000Y-52000000D03*
D24*
%TO.P,U2,11,NC*%
%TO.N,unconnected-(U2-NC-Pad11)*%
X33750000Y-51750000D03*
%TO.P,U2,10,NC*%
%TO.N,unconnected-(U2-NC-Pad10)*%
X33750000Y-51250000D03*
%TO.P,U2,9,INT2*%
%TO.N,/BMI323_INT2*%
X33750000Y-50750000D03*
%TO.P,U2,8,VDD*%
%TO.N,/+3V3*%
X33750000Y-50250000D03*
D23*
%TO.P,U2,7,GND*%
%TO.N,/GND*%
X34500000Y-50000000D03*
%TO.P,U2,6,GNDIO*%
X35000000Y-50000000D03*
%TO.P,U2,5,VDDIO*%
%TO.N,/+3V3*%
X35500000Y-50000000D03*
D24*
%TO.P,U2,4,INT1*%
%TO.N,/BMI323_INT1*%
X36250000Y-50250000D03*
%TO.P,U2,3,NC*%
%TO.N,unconnected-(U2-NC-Pad3)*%
X36250000Y-50750000D03*
%TO.P,U2,2,NC*%
%TO.N,unconnected-(U2-NC-Pad2)*%
X36250000Y-51250000D03*
%TO.P,U2,1,SDO*%
%TO.N,/GND*%
X36250000Y-51750000D03*
%TD*%
D25*
%TO.P,U1,1,TS*%
%TO.N,/CHG_TS*%
X62250000Y-61750000D03*
%TO.P,U1,2,BAT*%
%TO.N,/BAT*%
X62250000Y-62250000D03*
%TO.P,U1,3,BAT*%
X62250000Y-62750000D03*
%TO.P,U1,4,#CE*%
%TO.N,/GND*%
X62250000Y-63250000D03*
D26*
%TO.P,U1,5,EN2*%
%TO.N,/SYS*%
X63000000Y-64000000D03*
%TO.P,U1,6,EN1*%
%TO.N,/GND*%
X63500000Y-64000000D03*
%TO.P,U1,7,#PGOOD*%
%TO.N,/nPGOOD*%
X64000000Y-64000000D03*
%TO.P,U1,8,VSS*%
%TO.N,/GND*%
X64500000Y-64000000D03*
D25*
%TO.P,U1,9,#CHG*%
%TO.N,/nCHG*%
X65250000Y-63250000D03*
%TO.P,U1,10,OUT*%
%TO.N,/SYS*%
X65250000Y-62750000D03*
%TO.P,U1,11,OUT*%
X65250000Y-62250000D03*
%TO.P,U1,12,ILIM*%
%TO.N,/CHG_ILIM*%
X65250000Y-61750000D03*
D26*
%TO.P,U1,13,IN*%
%TO.N,/USB_VBUS*%
X64500000Y-61000000D03*
%TO.P,U1,14,TMR*%
%TO.N,/CHG_TMR*%
X64000000Y-61000000D03*
%TO.P,U1,15,SYSOFF*%
%TO.N,/GND*%
X63500000Y-61000000D03*
%TO.P,U1,16,ISET*%
%TO.N,/CHG_ISET*%
X63000000Y-61000000D03*
D27*
%TO.P,U1,17,EP*%
%TO.N,/GND*%
X63750000Y-62500000D03*
%TD*%
D10*
%TO.P,R22,2,2*%
%TO.N,/USB_VBUS_SENSE*%
X42000000Y-50000000D03*
%TO.P,R22,1,1*%
%TO.N,/USB_VBUS*%
X40500000Y-50000000D03*
%TD*%
%TO.P,R21,2,2*%
%TO.N,/GND*%
X40500000Y-52000000D03*
%TO.P,R21,1,1*%
%TO.N,/USB_VBUS_SENSE*%
X42000000Y-52000000D03*
%TD*%
%TO.P,R20,2,2*%
%TO.N,/POWER_LED_A*%
X58000000Y-81500000D03*
%TO.P,R20,1,1*%
%TO.N,/+3V3*%
X56500000Y-81500000D03*
%TD*%
%TO.P,R19,2,2*%
%TO.N,/+3V3*%
X64000000Y-54500000D03*
%TO.P,R19,1,1*%
%TO.N,/nPGOOD*%
X62500000Y-54500000D03*
%TD*%
%TO.P,R18,2,2*%
%TO.N,/+3V3*%
X40500000Y-58500000D03*
%TO.P,R18,1,1*%
%TO.N,/I2C_SDA*%
X42000000Y-58500000D03*
%TD*%
%TO.P,R17,2,2*%
%TO.N,/+3V3*%
X40500000Y-56500000D03*
%TO.P,R17,1,1*%
%TO.N,/I2C_SCL*%
X42000000Y-56500000D03*
%TD*%
%TO.P,R16,2,2*%
%TO.N,/+3V3*%
X65500000Y-48000000D03*
%TO.P,R16,1,1*%
%TO.N,/EN*%
X64000000Y-48000000D03*
%TD*%
%TO.P,R15,2,2*%
%TO.N,/GND*%
X59500000Y-67500000D03*
%TO.P,R15,1,1*%
%TO.N,/CHG_TS*%
X61000000Y-67500000D03*
%TD*%
%TO.P,R14,2,2*%
%TO.N,/GND*%
X66250000Y-59500000D03*
%TO.P,R14,1,1*%
%TO.N,/CHG_TMR*%
X64750000Y-59500000D03*
%TD*%
%TO.P,R13,2,2*%
%TO.N,/+3V3*%
X64000000Y-56500000D03*
%TO.P,R13,1,1*%
%TO.N,/nCHG*%
X62500000Y-56500000D03*
%TD*%
D28*
%TO.P,R12,2,2*%
%TO.N,/GND*%
X59000000Y-63500000D03*
%TO.P,R12,1,1*%
%TO.N,/CHG_ISET*%
X59000000Y-65000000D03*
%TD*%
%TO.P,R11,2,2*%
%TO.N,/GND*%
X69000000Y-62750000D03*
%TO.P,R11,1,1*%
%TO.N,/CHG_ILIM*%
X69000000Y-61250000D03*
%TD*%
%TO.P,R10,2,2*%
%TO.N,/GND*%
X55500000Y-88250000D03*
%TO.P,R10,1,1*%
%TO.N,/CC2*%
X55500000Y-89750000D03*
%TD*%
%TO.P,R9,2,2*%
%TO.N,/GND*%
X49500000Y-88250000D03*
%TO.P,R9,1,1*%
%TO.N,/CC1*%
X49500000Y-89750000D03*
%TD*%
%TO.P,R8,2,2*%
%TO.N,/BUZZER_GATE*%
X50500000Y-64750000D03*
%TO.P,R8,1,1*%
%TO.N,/BUZZER_PWM*%
X50500000Y-63250000D03*
%TD*%
%TO.P,R7,2,2*%
%TO.N,/GND*%
X50500000Y-68500000D03*
%TO.P,R7,1,1*%
%TO.N,/BUZZER_GATE*%
X50500000Y-67000000D03*
%TD*%
%TO.P,R6,2,2*%
%TO.N,/+3V3*%
X60500000Y-90750000D03*
%TO.P,R6,1,1*%
%TO.N,/BOOT_USER_BTN_N*%
X60500000Y-92250000D03*
%TD*%
%TO.P,R4,2,2*%
%TO.N,/BLE_LED_GATE*%
X48450700Y-64758500D03*
%TO.P,R4,1,1*%
%TO.N,/BLE_LED_PWM*%
X48450700Y-63258500D03*
%TD*%
%TO.P,R3,2,2*%
%TO.N,/GND*%
X67500000Y-95750000D03*
%TO.P,R3,1,1*%
%TO.N,/BLE_LED_GATE*%
X67500000Y-97250000D03*
%TD*%
%TO.P,R1,2,2*%
%TO.N,/GND*%
X36500000Y-81000000D03*
%TO.P,R1,1,1*%
%TO.N,/BAT_SENSE*%
X36500000Y-82500000D03*
%TD*%
D29*
%TO.P,Q2,1,G*%
%TO.N,/BLE_LED_GATE*%
X70050000Y-97450000D03*
%TO.P,Q2,2,S*%
%TO.N,/GND*%
X70050000Y-95550000D03*
%TO.P,Q2,3,D*%
%TO.N,/BLE_LED_K*%
X71950000Y-96500000D03*
%TD*%
D30*
%TO.P,Q1,1,G*%
%TO.N,/BUZZER_GATE*%
X53050000Y-67050000D03*
%TO.P,Q1,2,S*%
%TO.N,/GND*%
X54950000Y-67050000D03*
%TO.P,Q1,3,D*%
%TO.N,/BUZZER_NEG*%
X54000000Y-68950000D03*
%TD*%
D21*
%TO.P,LED2,2,+*%
%TO.N,/POWER_LED_A*%
X60000000Y-81500000D03*
%TO.P,LED2,1,-*%
%TO.N,/GND*%
X61500000Y-81500000D03*
%TD*%
%TO.P,LED1,2,A*%
%TO.N,/BLE_LED_A*%
X71000000Y-90750000D03*
%TO.P,LED1,1,K*%
%TO.N,/BLE_LED_K*%
X71000000Y-92250000D03*
%TD*%
D31*
%TO.P,J2,1,GND*%
%TO.N,/GND*%
X69000000Y-59175000D03*
%TO.P,J2,2,+3V3*%
%TO.N,/+3V3*%
X69000000Y-57905000D03*
%TO.P,J2,3,EN*%
%TO.N,/EN*%
X69000000Y-56635000D03*
%TO.P,J2,4,BOOT*%
%TO.N,/BOOT_USER_BTN_N*%
X69000000Y-55365000D03*
%TO.P,J2,5,TXD0*%
%TO.N,/TXD0*%
X69000000Y-54095000D03*
%TO.P,J2,6,RXD0*%
%TO.N,/RXD0*%
X69000000Y-52825000D03*
%TD*%
D32*
%TO.P,J1,1,BAT+*%
%TO.N,/BAT*%
X39500000Y-98000000D03*
%TO.P,J1,2,BAT-*%
%TO.N,/GND*%
X41500000Y-98000000D03*
D33*
%TO.P,J1,*%
%TO.N,*%
X37450000Y-96150000D03*
X43550000Y-96150000D03*
%TD*%
D34*
%TO.P,D1,1,1*%
%TO.N,/USB_DP_CONN*%
X51550000Y-90150000D03*
%TO.P,D1,2,2*%
%TO.N,/GND*%
X52500000Y-90150000D03*
%TO.P,D1,3,3*%
%TO.N,/USB_DM_CONN*%
X53450000Y-90150000D03*
%TO.P,D1,4,4*%
%TO.N,/USB_OTG_DM*%
X53450000Y-87850000D03*
%TO.P,D1,5,5*%
%TO.N,/USB_VBUS*%
X52500000Y-87850000D03*
%TO.P,D1,6,6*%
%TO.N,/USB_OTG_DP*%
X51550000Y-87850000D03*
%TD*%
D35*
%TO.P,C14,2,2*%
%TO.N,/GND*%
X69000000Y-65800000D03*
%TO.P,C14,1,1*%
%TO.N,/USB_VBUS*%
X69000000Y-67200000D03*
%TD*%
D36*
%TO.P,C13,2,2*%
%TO.N,/GND*%
X60500000Y-73000000D03*
%TO.P,C13,1,1*%
%TO.N,/SYS*%
X59100000Y-73000000D03*
%TD*%
%TO.P,C12,2,2*%
%TO.N,/GND*%
X39500000Y-74500000D03*
%TO.P,C12,1,1*%
%TO.N,/+3V3*%
X38100000Y-74500000D03*
%TD*%
%TO.P,C11,2,2*%
%TO.N,/GND*%
X39500000Y-72500000D03*
%TO.P,C11,1,1*%
%TO.N,/+3V3*%
X38100000Y-72500000D03*
%TD*%
%TO.P,C10,2,2*%
%TO.N,/GND*%
X39500000Y-70500000D03*
%TO.P,C10,1,1*%
%TO.N,/+3V3*%
X38100000Y-70500000D03*
%TD*%
%TO.P,C9,2,2*%
%TO.N,/GND*%
X39500000Y-68500000D03*
%TO.P,C9,1,1*%
%TO.N,/+3V3*%
X38100000Y-68500000D03*
%TD*%
%TO.P,C8,2,2*%
%TO.N,/GND*%
X57900000Y-84000000D03*
%TO.P,C8,1,1*%
%TO.N,/+3V3*%
X56500000Y-84000000D03*
%TD*%
%TO.P,C7,2,2*%
%TO.N,/GND*%
X60500000Y-77500000D03*
%TO.P,C7,1,1*%
%TO.N,/SYS*%
X59100000Y-77500000D03*
%TD*%
%TO.P,C6,2,2*%
%TO.N,/GND*%
X39500000Y-66500000D03*
%TO.P,C6,1,1*%
%TO.N,/+3V3*%
X38100000Y-66500000D03*
%TD*%
%TO.P,C5,2,2*%
%TO.N,/GND*%
X52000000Y-78500000D03*
%TO.P,C5,1,1*%
%TO.N,/+3V3*%
X53400000Y-78500000D03*
%TD*%
D35*
%TO.P,C4,2,2*%
%TO.N,/GND*%
X61500000Y-46500000D03*
%TO.P,C4,1,1*%
%TO.N,/EN*%
X61500000Y-47900000D03*
%TD*%
D36*
%TO.P,C3,2,2*%
%TO.N,/GND*%
X60500000Y-70500000D03*
%TO.P,C3,1,1*%
%TO.N,/SYS*%
X59100000Y-70500000D03*
%TD*%
%TO.P,C2,2,2*%
%TO.N,/GND*%
X38400000Y-88000000D03*
%TO.P,C2,1,1*%
%TO.N,/BAT_SENSE*%
X37000000Y-88000000D03*
%TD*%
D35*
%TO.P,C1,2,2*%
%TO.N,/GND*%
X42000000Y-87200000D03*
%TO.P,C1,1,1*%
%TO.N,/BAT*%
X42000000Y-85800000D03*
%TD*%
D37*
%TO.P,BZ1,1,+*%
%TO.N,/SYS*%
X54000000Y-74650000D03*
%TO.P,BZ1,2,-*%
%TO.N,/BUZZER_NEG*%
X54000000Y-72350000D03*
%TD*%
D38*
%TO.N,/BMI323_INT1*%
X37644600Y-50549200D03*
X46506900Y-54523200D03*
%TO.N,/BMI323_INT2*%
X33484200Y-63228400D03*
X47731600Y-58710800D03*
%TO.N,/nPGOOD*%
X64260700Y-65479100D03*
X66274700Y-56394900D03*
%TO.N,/I2C_SCL*%
X34734800Y-54494900D03*
X41268300Y-59983800D03*
X35193200Y-57444200D03*
%TO.N,/BLE_LED_PWM*%
X49234000Y-69573700D03*
X52277200Y-65644800D03*
%TO.N,/BLE_LED_GATE*%
X58995900Y-91918900D03*
X48364200Y-75299800D03*
%TO.N,/BOOT_USER_BTN_N*%
X67495700Y-54536100D03*
X60929700Y-86474100D03*
X46507300Y-50350000D03*
%TO.N,/USB_OTG_DM*%
X50552000Y-73422800D03*
X53428900Y-64068500D03*
%TO.N,/USB_VBUS*%
X68072100Y-64355400D03*
X54905400Y-86789800D03*
X40500000Y-48517900D03*
%TO.N,/+3V3*%
X55932100Y-79249000D03*
X40276400Y-55004000D03*
X44883300Y-78808200D03*
X61277600Y-58210200D03*
%TO.N,/BAT*%
X42850000Y-77133100D03*
X58195200Y-68595800D03*
%TO.N,/GND*%
X49693900Y-58490900D03*
X45268600Y-62215900D03*
X38365600Y-60578300D03*
X35553100Y-48622500D03*
%TD*%
D39*
%TO.N,/BMP581_INT*%
X36983700Y-59016300D02*
X36500000Y-59500000D01*
X36983700Y-56701600D02*
X36983700Y-59016300D01*
X39935300Y-53750000D02*
X36983700Y-56701600D01*
X45040000Y-53750000D02*
X39935300Y-53750000D01*
D40*
%TO.N,/BMI323_INT1*%
X46430100Y-54600000D02*
X46506900Y-54523200D01*
X45040000Y-54600000D02*
X46430100Y-54600000D01*
X37345400Y-50250000D02*
X37644600Y-50549200D01*
X36250000Y-50250000D02*
X37345400Y-50250000D01*
D39*
%TO.N,/BMI323_INT2*%
X32801000Y-62545200D02*
X33484200Y-63228400D01*
X32801000Y-51047300D02*
X32801000Y-62545200D01*
X33098300Y-50750000D02*
X32801000Y-51047300D01*
X47731600Y-57414900D02*
X45766700Y-55450000D01*
X47731600Y-58710800D02*
X47731600Y-57414900D01*
X45040000Y-55450000D02*
X45766700Y-55450000D01*
X33750000Y-50750000D02*
X33098300Y-50750000D01*
D40*
%TO.N,/USB_VBUS_SENSE*%
X42000000Y-52000000D02*
X42000000Y-50000000D01*
X44238300Y-52000000D02*
X44288300Y-52050000D01*
X42000000Y-52000000D02*
X44238300Y-52000000D01*
X45040000Y-52050000D02*
X44288300Y-52050000D01*
%TO.N,/nPGOOD*%
X62500000Y-54500000D02*
X61743300Y-54500000D01*
X59000000Y-57150000D02*
X59638400Y-57150000D01*
X59750200Y-57150000D02*
X59751700Y-57150000D01*
X59638400Y-57150000D02*
X59750200Y-57150000D01*
X61743300Y-55158400D02*
X61743300Y-54500000D01*
X59751700Y-57150000D02*
X61743300Y-55158400D01*
D39*
X64000000Y-65218400D02*
X64260700Y-65479100D01*
X64000000Y-64000000D02*
X64000000Y-65218400D01*
X63231700Y-53951200D02*
X63231700Y-54500000D01*
X63439600Y-53743300D02*
X63231700Y-53951200D01*
X64545000Y-53743300D02*
X63439600Y-53743300D01*
X66274700Y-55473000D02*
X64545000Y-53743300D01*
X66274700Y-56394900D02*
X66274700Y-55473000D01*
X62500000Y-54500000D02*
X63231700Y-54500000D01*
D40*
%TO.N,/I2C_SDA*%
X45040000Y-58000000D02*
X44288300Y-58000000D01*
X42033500Y-58500000D02*
X42756700Y-58500000D01*
D39*
X42033500Y-58500000D02*
X42000000Y-58500000D01*
X35500000Y-52000000D02*
X35500000Y-52651700D01*
X35737500Y-60512500D02*
X35737500Y-60900800D01*
X35737500Y-61000200D02*
X35737500Y-61001700D01*
X35737500Y-60900800D02*
X35737500Y-61000200D01*
D40*
X43788300Y-58500000D02*
X44288300Y-58000000D01*
X42756700Y-58500000D02*
X43788300Y-58500000D01*
D39*
X35865700Y-53017400D02*
X35500000Y-52651700D01*
X35865700Y-55066600D02*
X35865700Y-53017400D01*
X35180800Y-55751500D02*
X35865700Y-55066600D01*
X34721700Y-55751500D02*
X35180800Y-55751500D01*
X33656900Y-56816300D02*
X34721700Y-55751500D01*
X33656900Y-60339400D02*
X33656900Y-56816300D01*
X34319200Y-61001700D02*
X33656900Y-60339400D01*
X35737500Y-61001700D02*
X34319200Y-61001700D01*
X42756700Y-60165400D02*
X42756700Y-58500000D01*
X41217100Y-61705000D02*
X42756700Y-60165400D01*
X36442300Y-61705000D02*
X41217100Y-61705000D01*
X35737500Y-61000200D02*
X36442300Y-61705000D01*
D40*
%TO.N,/I2C_SCL*%
X42000000Y-56500000D02*
X42756700Y-56500000D01*
X45040000Y-57150000D02*
X44288300Y-57150000D01*
X43638300Y-56500000D02*
X42756700Y-56500000D01*
X44288300Y-57150000D02*
X43638300Y-56500000D01*
D39*
X42000000Y-56500000D02*
X41268300Y-56500000D01*
X34975000Y-60000000D02*
X34485800Y-60000000D01*
X35000000Y-54229700D02*
X34734800Y-54494900D01*
X35000000Y-52000000D02*
X35000000Y-54229700D01*
X34485800Y-58151600D02*
X35193200Y-57444200D01*
X34485800Y-60000000D02*
X34485800Y-58151600D01*
X41268300Y-56500000D02*
X41268300Y-59983800D01*
D40*
%TO.N,/CHG_TS*%
X62250000Y-61750000D02*
X61473300Y-61750000D01*
X61000000Y-67500000D02*
X61000000Y-66718300D01*
X61000000Y-62223300D02*
X61000000Y-66718300D01*
X61473300Y-61750000D02*
X61000000Y-62223300D01*
%TO.N,/CHG_TMR*%
X64026700Y-60223300D02*
X64000000Y-60223300D01*
X64750000Y-59500000D02*
X64026700Y-60223300D01*
X64000000Y-61000000D02*
X64000000Y-60223300D01*
%TO.N,/nCHG*%
X61251700Y-56500000D02*
X59751700Y-58000000D01*
X61743300Y-56500000D02*
X61251700Y-56500000D01*
X62500000Y-56500000D02*
X61743300Y-56500000D01*
X59000000Y-58000000D02*
X59751700Y-58000000D01*
%TO.N,/CHG_ISET*%
X61579800Y-61000000D02*
X63000000Y-61000000D01*
X60273700Y-62306100D02*
X61579800Y-61000000D01*
X60273700Y-63726300D02*
X60273700Y-62306100D01*
X59000000Y-65000000D02*
X60273700Y-63726300D01*
%TO.N,/CHG_ILIM*%
X69801700Y-62051700D02*
X69000000Y-61250000D01*
X69801700Y-67745700D02*
X69801700Y-62051700D01*
X69595700Y-67951700D02*
X69801700Y-67745700D01*
X68398600Y-67951700D02*
X69595700Y-67951700D01*
X66918900Y-66472000D02*
X68398600Y-67951700D01*
X66918900Y-62460700D02*
X66918900Y-66472000D01*
X66208200Y-61750000D02*
X66918900Y-62460700D01*
X65250000Y-61750000D02*
X66208200Y-61750000D01*
D39*
%TO.N,/CC2*%
X55500000Y-89750000D02*
X55500000Y-90481700D01*
X54000000Y-91981700D02*
X54000000Y-93500000D01*
X55500000Y-90481700D02*
X54000000Y-91981700D01*
%TO.N,/CC1*%
X51000000Y-91981700D02*
X51000000Y-93500000D01*
X49500000Y-90481700D02*
X51000000Y-91981700D01*
X49500000Y-89750000D02*
X49500000Y-90481700D01*
D40*
%TO.N,/BUZZER_PWM*%
X50320000Y-62313300D02*
X50500000Y-62493300D01*
X50320000Y-60780000D02*
X50320000Y-62313300D01*
X50500000Y-63250000D02*
X50500000Y-62493300D01*
%TO.N,/BLE_LED_PWM*%
X52277200Y-62805300D02*
X52277200Y-65644800D01*
X51170000Y-61698100D02*
X52277200Y-62805300D01*
X51170000Y-60780000D02*
X51170000Y-61698100D01*
X49234000Y-64041800D02*
X49234000Y-69573700D01*
X48450700Y-63258500D02*
X49234000Y-64041800D01*
%TO.N,/BLE_LED_GATE*%
X68481700Y-97450000D02*
X68281700Y-97250000D01*
X70050000Y-97450000D02*
X68481700Y-97450000D01*
X67500000Y-97250000D02*
X68281700Y-97250000D01*
X48450700Y-64758500D02*
X48450700Y-65515200D01*
X48045200Y-74980800D02*
X48364200Y-75299800D01*
X48045200Y-65920700D02*
X48045200Y-74980800D01*
X48450700Y-65515200D02*
X48045200Y-65920700D01*
X67500000Y-97250000D02*
X66718300Y-97250000D01*
X58995900Y-96734900D02*
X58995900Y-91918900D01*
X60227800Y-97966800D02*
X58995900Y-96734900D01*
X66001500Y-97966800D02*
X60227800Y-97966800D01*
X66718300Y-97250000D02*
X66001500Y-97966800D01*
%TO.N,/BUZZER_GATE*%
X50500000Y-67000000D02*
X50500000Y-64750000D01*
X51331700Y-67050000D02*
X51281700Y-67000000D01*
X53050000Y-67050000D02*
X51331700Y-67050000D01*
X50500000Y-67000000D02*
X51281700Y-67000000D01*
%TO.N,/POWER_LED_A*%
X60000000Y-81500000D02*
X58000000Y-81500000D01*
%TO.N,/BLE_LED_A*%
X60350000Y-75000000D02*
X61106700Y-75000000D01*
X71000000Y-84893300D02*
X71000000Y-90750000D01*
X61106700Y-75000000D02*
X71000000Y-84893300D01*
%TO.N,/BLE_LED_K*%
X71950000Y-93951700D02*
X71950000Y-96500000D01*
X71000000Y-93001700D02*
X71950000Y-93951700D01*
X71000000Y-92250000D02*
X71000000Y-93001700D01*
%TO.N,/TXD0*%
X67805000Y-52900000D02*
X59000000Y-52900000D01*
X69000000Y-54095000D02*
X67805000Y-52900000D01*
%TO.N,/BOOT_USER_BTN_N*%
X60500000Y-92250000D02*
X60500000Y-93006700D01*
X60750000Y-97250000D02*
X60750000Y-95750000D01*
X60750000Y-93256700D02*
X60750000Y-95750000D01*
X60500000Y-93006700D02*
X60750000Y-93256700D01*
X61295800Y-86840200D02*
X60929700Y-86474100D01*
X61295800Y-91454200D02*
X61295800Y-86840200D01*
X60500000Y-92250000D02*
X61295800Y-91454200D01*
X68171100Y-54536100D02*
X67495700Y-54536100D01*
X69000000Y-55365000D02*
X68171100Y-54536100D01*
X45040000Y-50350000D02*
X46507300Y-50350000D01*
%TO.N,/RXD0*%
X68225000Y-52050000D02*
X59000000Y-52050000D01*
X69000000Y-52825000D02*
X68225000Y-52050000D01*
%TO.N,/USB_OTG_DM*%
X52020000Y-61829900D02*
X52020000Y-60780000D01*
X53428900Y-63238800D02*
X52020000Y-61829900D01*
X53428900Y-64068500D02*
X53428900Y-63238800D01*
X53450000Y-87850000D02*
X53450000Y-86963300D01*
X50100500Y-73874300D02*
X50552000Y-73422800D01*
X50100500Y-79632200D02*
X50100500Y-73874300D01*
X49834700Y-79898000D02*
X50100500Y-79632200D01*
X49834700Y-84218000D02*
X49834700Y-79898000D01*
X52580000Y-86963300D02*
X49834700Y-84218000D01*
X53450000Y-86963300D02*
X52580000Y-86963300D01*
%TO.N,/USB_OTG_DP*%
X51550000Y-87850000D02*
X51550000Y-86963300D01*
X52870000Y-61765400D02*
X52870000Y-60780000D01*
X54580600Y-63476000D02*
X52870000Y-61765400D01*
X54580600Y-64545600D02*
X54580600Y-63476000D01*
X53909100Y-65217100D02*
X54580600Y-64545600D01*
X53909100Y-67748200D02*
X53909100Y-65217100D01*
X49383000Y-72274300D02*
X53909100Y-67748200D01*
X49383000Y-74689700D02*
X49383000Y-72274300D01*
X49515900Y-74822600D02*
X49383000Y-74689700D01*
X49515900Y-78622200D02*
X49515900Y-74822600D01*
X49383000Y-78755100D02*
X49515900Y-78622200D01*
X49383000Y-84796300D02*
X49383000Y-78755100D01*
X51550000Y-86963300D02*
X49383000Y-84796300D01*
D39*
%TO.N,/USB_DM_CONN*%
X53450000Y-91648300D02*
X53450000Y-90150000D01*
X52500000Y-92598300D02*
X53450000Y-91648300D01*
X52500000Y-93500000D02*
X52500000Y-92598300D01*
X52500000Y-94401700D02*
X51500000Y-94401700D01*
X52500000Y-93500000D02*
X52500000Y-94401700D01*
X51500000Y-93500000D02*
X51500000Y-94401700D01*
%TO.N,/USB_DP_CONN*%
X51550000Y-92148300D02*
X52000000Y-92598300D01*
X51550000Y-90150000D02*
X51550000Y-92148300D01*
X52000000Y-93500000D02*
X52000000Y-92598300D01*
D40*
%TO.N,/USB_VBUS*%
X68072100Y-66272100D02*
X68072100Y-64355400D01*
X69000000Y-67200000D02*
X68072100Y-66272100D01*
X66098600Y-61000000D02*
X64500000Y-61000000D01*
X68072100Y-62973500D02*
X66098600Y-61000000D01*
X68072100Y-64355400D02*
X68072100Y-62973500D01*
X52500000Y-87850000D02*
X52500000Y-88736700D01*
X52500000Y-88736700D02*
X53859500Y-88736700D01*
D39*
X53859500Y-88736700D02*
X53879000Y-88736700D01*
D40*
X54531500Y-87163700D02*
X54905400Y-86789800D01*
X54531500Y-88084200D02*
X54531500Y-87163700D01*
X53879000Y-88736700D02*
X54531500Y-88084200D01*
D39*
X49700000Y-93500000D02*
X50000000Y-93500000D01*
X54500000Y-93500000D02*
X54800000Y-93500000D01*
X54800000Y-91843800D02*
X54800000Y-93500000D01*
X56303200Y-90340600D02*
X54800000Y-91843800D01*
X56303200Y-87682700D02*
X56303200Y-90340600D01*
X55410300Y-86789800D02*
X56303200Y-87682700D01*
X54905400Y-86789800D02*
X55410300Y-86789800D01*
X40500000Y-50000000D02*
X40500000Y-48517900D01*
X54500000Y-94238600D02*
X54500000Y-93500000D01*
X53857300Y-94881300D02*
X54500000Y-94238600D01*
X50654800Y-94881300D02*
X53857300Y-94881300D01*
X50000000Y-94226500D02*
X50654800Y-94881300D01*
X50000000Y-93500000D02*
X50000000Y-94226500D01*
D40*
%TO.N,/+3V3*%
X53400000Y-78500000D02*
X53400000Y-79301700D01*
X38100000Y-66500000D02*
X38100000Y-68500000D01*
X38100000Y-68500000D02*
X38100000Y-70500000D01*
X38100000Y-70500000D02*
X38100000Y-72500000D01*
X38100000Y-72500000D02*
X38100000Y-74500000D01*
X64000000Y-56500000D02*
X64756700Y-56500000D01*
X64000000Y-56500000D02*
X64000000Y-54500000D01*
X53800000Y-82050000D02*
X54701700Y-82050000D01*
X56500000Y-82050000D02*
X54701700Y-82050000D01*
X56500000Y-84000000D02*
X56500000Y-82050000D01*
X56500000Y-82050000D02*
X56500000Y-81500000D01*
X40500000Y-56500000D02*
X40500000Y-58500000D01*
X60500000Y-90750000D02*
X60500000Y-89993300D01*
X52898300Y-79803400D02*
X52898300Y-82050000D01*
X53400000Y-79301700D02*
X52898300Y-79803400D01*
X65500000Y-48000000D02*
X65878400Y-48000000D01*
X65878400Y-48000000D02*
X66256700Y-48000000D01*
X70236100Y-51979400D02*
X66256700Y-48000000D01*
X70236100Y-56668900D02*
X70236100Y-51979400D01*
X69000000Y-57905000D02*
X70236100Y-56668900D01*
X45040000Y-49500000D02*
X44288300Y-49500000D01*
X53800000Y-82050000D02*
X52898300Y-82050000D01*
X56500000Y-85993300D02*
X56500000Y-84000000D01*
X60500000Y-89993300D02*
X56500000Y-85993300D01*
X55932100Y-80150400D02*
X55932100Y-79249000D01*
X56500000Y-80718300D02*
X55932100Y-80150400D01*
X56500000Y-81500000D02*
X56500000Y-80718300D01*
D39*
X34998300Y-59476700D02*
X34975000Y-59500000D01*
X35237500Y-59476700D02*
X34998300Y-59476700D01*
X35237500Y-58987500D02*
X35237500Y-59476700D01*
X35196600Y-50651700D02*
X34500000Y-51348300D01*
X35500000Y-50651700D02*
X35196600Y-50651700D01*
X35500000Y-50000000D02*
X35500000Y-50651700D01*
X34500000Y-52000000D02*
X34500000Y-51348300D01*
D40*
X63374000Y-45495600D02*
X65878400Y-48000000D01*
X44935500Y-45495600D02*
X63374000Y-45495600D01*
X43936200Y-46494900D02*
X44935500Y-45495600D01*
X43936200Y-49147900D02*
X43936200Y-46494900D01*
X44288300Y-49500000D02*
X43936200Y-49147900D01*
D39*
X38100000Y-66500000D02*
X37373300Y-66500000D01*
X34500000Y-52000000D02*
X34500000Y-52651700D01*
X35760800Y-60000000D02*
X36500000Y-60000000D01*
X35237500Y-59476700D02*
X35760800Y-60000000D01*
X40500000Y-58500000D02*
X39768300Y-58500000D01*
X37348900Y-60000000D02*
X36500000Y-60000000D01*
X38848900Y-58500000D02*
X37348900Y-60000000D01*
X39768300Y-58500000D02*
X38848900Y-58500000D01*
X44883300Y-70546700D02*
X44883300Y-78808200D01*
X40059900Y-65723300D02*
X44883300Y-70546700D01*
X38876700Y-65723300D02*
X40059900Y-65723300D01*
X38100000Y-66500000D02*
X38876700Y-65723300D01*
X37373300Y-66500000D02*
X34626300Y-63753000D01*
X34626300Y-62695800D02*
X34626300Y-63753000D01*
X33245100Y-61314600D02*
X34626300Y-62695800D01*
X33245100Y-53906600D02*
X33245100Y-61314600D01*
X34500000Y-52651700D02*
X33245100Y-53906600D01*
X33027900Y-50250000D02*
X33750000Y-50250000D01*
X32353700Y-50924200D02*
X33027900Y-50250000D01*
X32353700Y-63760400D02*
X32353700Y-50924200D01*
X32952600Y-64359300D02*
X32353700Y-63760400D01*
X34020000Y-64359300D02*
X32952600Y-64359300D01*
X34626300Y-63753000D02*
X34020000Y-64359300D01*
X40500000Y-55227600D02*
X40276400Y-55004000D01*
X40500000Y-56500000D02*
X40500000Y-55227600D01*
X63268300Y-57048800D02*
X63268300Y-56500000D01*
X62106900Y-58210200D02*
X63268300Y-57048800D01*
X61277600Y-58210200D02*
X62106900Y-58210200D01*
X64000000Y-56500000D02*
X63268300Y-56500000D01*
D40*
X66156100Y-57905000D02*
X69000000Y-57905000D01*
X64756700Y-56505600D02*
X66156100Y-57905000D01*
X64756700Y-56500000D02*
X64756700Y-56505600D01*
%TO.N,/EN*%
X59851700Y-47900000D02*
X59751700Y-47800000D01*
X61500000Y-47900000D02*
X59851700Y-47900000D01*
X59000000Y-47800000D02*
X59751700Y-47800000D01*
X63143300Y-47900000D02*
X61500000Y-47900000D01*
X63243300Y-48000000D02*
X63143300Y-47900000D01*
X64000000Y-48000000D02*
X63621700Y-48000000D01*
X63621700Y-48000000D02*
X63243300Y-48000000D01*
X69784400Y-55850600D02*
X69000000Y-56635000D01*
X69784400Y-52421100D02*
X69784400Y-55850600D01*
X67749500Y-50386200D02*
X69784400Y-52421100D01*
X66007900Y-50386200D02*
X67749500Y-50386200D01*
X63621700Y-48000000D02*
X66007900Y-50386200D01*
%TO.N,/BAT_SENSE*%
X36500000Y-86698300D02*
X36500000Y-85000000D01*
X37000000Y-87198300D02*
X36500000Y-86698300D01*
X37000000Y-88000000D02*
X37000000Y-87198300D01*
X36500000Y-85000000D02*
X36500000Y-82500000D01*
D39*
X45040000Y-51200000D02*
X44313300Y-51200000D01*
X31952000Y-77952000D02*
X36500000Y-82500000D01*
X31952000Y-50555100D02*
X31952000Y-77952000D01*
X35162300Y-47344800D02*
X31952000Y-50555100D01*
X40949500Y-47344800D02*
X35162300Y-47344800D01*
X44313300Y-50708600D02*
X40949500Y-47344800D01*
X44313300Y-51200000D02*
X44313300Y-50708600D01*
D40*
%TO.N,/BAT*%
X38000000Y-85000000D02*
X38756700Y-85000000D01*
X39556700Y-97943300D02*
X39556700Y-85800000D01*
X39500000Y-98000000D02*
X39556700Y-97943300D01*
X39556700Y-85800000D02*
X38756700Y-85000000D01*
X42000000Y-85800000D02*
X39556700Y-85800000D01*
X62250000Y-62750000D02*
X62250000Y-62250000D01*
X62250000Y-62750000D02*
X61473300Y-62750000D01*
X42000000Y-85800000D02*
X42000000Y-85048300D01*
X42850000Y-84198300D02*
X42850000Y-77133100D01*
X42000000Y-85048300D02*
X42850000Y-84198300D01*
X61285000Y-68595800D02*
X58195200Y-68595800D01*
X61792300Y-68088500D02*
X61285000Y-68595800D01*
X61792300Y-64692200D02*
X61792300Y-68088500D01*
X61473300Y-64373200D02*
X61792300Y-64692200D01*
X61473300Y-62750000D02*
X61473300Y-64373200D01*
%TO.N,/GND*%
X42000000Y-87200000D02*
X42000000Y-87951700D01*
X60500000Y-70500000D02*
X60500000Y-73000000D01*
X39500000Y-66500000D02*
X39500000Y-68500000D01*
X61251700Y-80500000D02*
X61500000Y-80748300D01*
X61251700Y-77500000D02*
X61251700Y-80500000D01*
X60500000Y-77500000D02*
X61251700Y-77500000D01*
X61500000Y-81500000D02*
X61500000Y-80748300D01*
X39500000Y-68500000D02*
X39500000Y-70500000D01*
X39500000Y-70500000D02*
X39500000Y-72500000D01*
X39500000Y-72500000D02*
X39500000Y-74500000D01*
X60021700Y-46500000D02*
X59771700Y-46750000D01*
X61500000Y-46500000D02*
X60021700Y-46500000D01*
X59020000Y-46750000D02*
X59771700Y-46750000D01*
X42000000Y-92658300D02*
X47930000Y-92658300D01*
X42000000Y-87951700D02*
X42000000Y-92658300D01*
X42000000Y-97500000D02*
X41500000Y-98000000D01*
X42000000Y-92658300D02*
X42000000Y-97500000D01*
X67331700Y-59175000D02*
X67006700Y-59500000D01*
X69000000Y-59175000D02*
X67331700Y-59175000D01*
X66250000Y-59500000D02*
X67006700Y-59500000D01*
X68481700Y-95550000D02*
X68281700Y-95750000D01*
X70050000Y-95550000D02*
X68481700Y-95550000D01*
X67500000Y-95750000D02*
X68281700Y-95750000D01*
X67500000Y-95750000D02*
X65250000Y-95750000D01*
X63500000Y-63193100D02*
X63500000Y-64000000D01*
X53670000Y-55400000D02*
X53670000Y-53750000D01*
X52020000Y-55400000D02*
X52020000Y-53750000D01*
X50370000Y-55400000D02*
X50370000Y-53750000D01*
X53670000Y-53750000D02*
X53670000Y-52100000D01*
X52020000Y-53750000D02*
X52020000Y-52100000D01*
X50370000Y-53750000D02*
X50370000Y-52100000D01*
X52020000Y-52100000D02*
X50370000Y-52100000D01*
X52870000Y-46720000D02*
X52870000Y-47471700D01*
X52870000Y-52100000D02*
X52870000Y-47471700D01*
X53670000Y-52100000D02*
X52870000Y-52100000D01*
X52870000Y-52100000D02*
X52020000Y-52100000D01*
X58000000Y-46750000D02*
X57970000Y-46720000D01*
X59020000Y-46750000D02*
X58000000Y-46750000D01*
X46070000Y-46720000D02*
X46070000Y-45968300D01*
X46920000Y-46720000D02*
X46920000Y-45968300D01*
X47770000Y-46720000D02*
X47770000Y-45968300D01*
X48620000Y-46720000D02*
X48620000Y-45968300D01*
X49470000Y-46720000D02*
X49470000Y-45968300D01*
X50320000Y-46720000D02*
X50320000Y-45968300D01*
X51170000Y-46720000D02*
X51170000Y-45968300D01*
X52020000Y-46720000D02*
X52020000Y-45968300D01*
X52870000Y-46720000D02*
X52870000Y-45968300D01*
X53720000Y-46720000D02*
X53720000Y-45968300D01*
X54570000Y-46720000D02*
X54570000Y-45968300D01*
X55420000Y-46720000D02*
X55420000Y-45968300D01*
X56270000Y-46720000D02*
X56270000Y-45968300D01*
X57120000Y-46720000D02*
X57120000Y-45968300D01*
X57970000Y-46720000D02*
X57970000Y-45968300D01*
X46040000Y-46750000D02*
X45020000Y-46750000D01*
X46070000Y-46720000D02*
X46040000Y-46750000D01*
X45020000Y-46750000D02*
X45020000Y-47501700D01*
X59751700Y-49500000D02*
X59751700Y-50350000D01*
X59000000Y-49500000D02*
X59751700Y-49500000D01*
X59000000Y-50350000D02*
X59751700Y-50350000D01*
X57120000Y-48470000D02*
X57120000Y-46720000D01*
X58407000Y-49757000D02*
X57120000Y-48470000D01*
X58407000Y-49757100D02*
X58407000Y-49757000D01*
X58365800Y-49798300D02*
X58407000Y-49757100D01*
X58306700Y-49798300D02*
X58365800Y-49798300D01*
X58248300Y-49856700D02*
X58306700Y-49798300D01*
X58248300Y-50350000D02*
X58248300Y-49856700D01*
X59000000Y-50350000D02*
X58248300Y-50350000D01*
X47930000Y-94060000D02*
X47930000Y-93359100D01*
X47930000Y-93359100D02*
X47930000Y-92658300D01*
X48900000Y-93500000D02*
X48900000Y-92573300D01*
X65250000Y-97250000D02*
X65250000Y-95750000D01*
X40112400Y-99387600D02*
X41500000Y-98000000D01*
X38966500Y-99387600D02*
X40112400Y-99387600D01*
X38597700Y-99018800D02*
X38966500Y-99387600D01*
X38597700Y-88999400D02*
X38597700Y-99018800D01*
X38400000Y-88801700D02*
X38597700Y-88999400D01*
X38400000Y-88000000D02*
X38400000Y-88801700D01*
X52801700Y-77698300D02*
X52000000Y-78500000D01*
X57864100Y-77698300D02*
X52801700Y-77698300D01*
X58470500Y-78304700D02*
X57864100Y-77698300D01*
X59695300Y-78304700D02*
X58470500Y-78304700D01*
X60500000Y-77500000D02*
X59695300Y-78304700D01*
X68218300Y-61968300D02*
X69000000Y-62750000D01*
X68218300Y-59956700D02*
X68218300Y-61968300D01*
X69000000Y-59175000D02*
X68218300Y-59956700D01*
X46070000Y-45968300D02*
X46920000Y-45968300D01*
X46920000Y-45968300D02*
X47770000Y-45968300D01*
X47770000Y-45968300D02*
X48620000Y-45968300D01*
X61500000Y-81500000D02*
X61500000Y-82251700D01*
X55600000Y-93500000D02*
X55600000Y-92573300D01*
X45040000Y-48650000D02*
X44401700Y-48650000D01*
X60500000Y-70500000D02*
X61251700Y-70500000D01*
X57120000Y-45968300D02*
X57970000Y-45968300D01*
X56270000Y-45968300D02*
X57120000Y-45968300D01*
X55420000Y-45968300D02*
X56270000Y-45968300D01*
X54570000Y-45968300D02*
X55420000Y-45968300D01*
X53720000Y-45968300D02*
X54570000Y-45968300D01*
X52870000Y-45968300D02*
X53720000Y-45968300D01*
X52020000Y-45968300D02*
X52870000Y-45968300D01*
X51170000Y-45968300D02*
X52020000Y-45968300D01*
X50320000Y-45968300D02*
X51170000Y-45968300D01*
X49470000Y-45968300D02*
X50320000Y-45968300D01*
X48620000Y-45968300D02*
X49470000Y-45968300D01*
X59000000Y-63500000D02*
X58609200Y-63500000D01*
X58609200Y-63500000D02*
X58218300Y-63500000D01*
X58609200Y-61912500D02*
X59020000Y-61501700D01*
X58609200Y-63500000D02*
X58609200Y-61912500D01*
X59020000Y-60750000D02*
X59020000Y-61501700D01*
X61251700Y-70500000D02*
X67710300Y-70500000D01*
X57900000Y-84000000D02*
X58651700Y-84000000D01*
X60099500Y-84000000D02*
X58651700Y-84000000D01*
X60099500Y-83652200D02*
X60099500Y-84000000D01*
X61500000Y-82251700D02*
X60099500Y-83652200D01*
X62085200Y-94085200D02*
X65250000Y-97250000D01*
X62085200Y-85985700D02*
X62085200Y-94085200D01*
X60099500Y-84000000D02*
X62085200Y-85985700D01*
X62750000Y-63250000D02*
X62250000Y-63250000D01*
X62806900Y-63193100D02*
X62750000Y-63250000D01*
X63500000Y-63193100D02*
X62806900Y-63193100D01*
X45020000Y-60750000D02*
X45020000Y-61403300D01*
X51200000Y-83000000D02*
X51988400Y-83000000D01*
X52000000Y-78500000D02*
X52000000Y-79301700D01*
X36500000Y-81000000D02*
X36500000Y-80243300D01*
X69226300Y-63733000D02*
X69000000Y-63506700D01*
X69226300Y-65573700D02*
X69226300Y-63733000D01*
X69000000Y-65800000D02*
X69226300Y-65573700D01*
X69000000Y-62750000D02*
X69000000Y-63506700D01*
X59500000Y-67500000D02*
X58743300Y-67500000D01*
X55790200Y-66209800D02*
X54950000Y-67050000D01*
X57453100Y-66209800D02*
X55790200Y-66209800D01*
X58218300Y-65444600D02*
X57453100Y-66209800D01*
X58218300Y-63500000D02*
X58218300Y-65444600D01*
X57453100Y-66209800D02*
X58743300Y-67500000D01*
X45040000Y-47800000D02*
X44720900Y-47800000D01*
X45019200Y-47501700D02*
X44720900Y-47800000D01*
X45020000Y-47501700D02*
X45019200Y-47501700D01*
X49500000Y-88250000D02*
X49500000Y-87493300D01*
X52101700Y-82886700D02*
X51988400Y-83000000D01*
X52101700Y-79403400D02*
X52101700Y-82886700D01*
X52000000Y-79301700D02*
X52101700Y-79403400D01*
X44720900Y-48330800D02*
X44720900Y-47800000D01*
X44401700Y-48650000D02*
X44720900Y-48330800D01*
X48718300Y-89031700D02*
X48718300Y-92573300D01*
X49500000Y-88250000D02*
X48718300Y-89031700D01*
X48519200Y-92573300D02*
X48718300Y-92573300D01*
X47930000Y-93162500D02*
X48519200Y-92573300D01*
X47930000Y-93359100D02*
X47930000Y-93162500D01*
X48718300Y-92573300D02*
X48900000Y-92573300D01*
X50370000Y-55400000D02*
X50370000Y-56351700D01*
X71618100Y-97408400D02*
X71471100Y-97261400D01*
X72274800Y-97408400D02*
X71618100Y-97408400D01*
X72651500Y-97031700D02*
X72274800Y-97408400D01*
X72651500Y-75441200D02*
X72651500Y-97031700D01*
X67710300Y-70500000D02*
X72651500Y-75441200D01*
X70050000Y-95840300D02*
X70050000Y-95550000D01*
X71471100Y-97261400D02*
X70050000Y-95840300D01*
X70273100Y-60448100D02*
X69000000Y-59175000D01*
X70273100Y-67937200D02*
X70273100Y-60448100D01*
X67710300Y-70500000D02*
X70273100Y-67937200D01*
X47212500Y-85205800D02*
X49500000Y-87493300D01*
X47212500Y-62429700D02*
X47212500Y-85205800D01*
X49021900Y-62429700D02*
X47212500Y-62429700D01*
X49716600Y-63124400D02*
X49021900Y-62429700D01*
X49716600Y-67716600D02*
X49716600Y-63124400D01*
X50500000Y-68500000D02*
X49716600Y-67716600D01*
X49693900Y-57027800D02*
X50370000Y-56351700D01*
X49693900Y-58490900D02*
X49693900Y-57027800D01*
X52500000Y-90150000D02*
X52500000Y-89263300D01*
D39*
X48900000Y-93500000D02*
X49200000Y-93500000D01*
X55600000Y-93500000D02*
X55300000Y-93500000D01*
X36237500Y-58987500D02*
X35737500Y-58987500D01*
D40*
X50513300Y-89263300D02*
X49500000Y-88250000D01*
X51506700Y-89263300D02*
X50513300Y-89263300D01*
D39*
X51506700Y-89263300D02*
X52500000Y-89263300D01*
X54768300Y-88981700D02*
X55500000Y-88981700D01*
X54486700Y-89263300D02*
X54768300Y-88981700D01*
X52500000Y-89263300D02*
X54486700Y-89263300D01*
X55500000Y-88250000D02*
X55500000Y-88981700D01*
X35737500Y-58987500D02*
X35737500Y-58498300D01*
D40*
X36500000Y-77500000D02*
X36500000Y-80243300D01*
X37037500Y-76962500D02*
X36500000Y-77500000D01*
D39*
X37037500Y-76962500D02*
X37037500Y-75332300D01*
X47930000Y-94060000D02*
X47930000Y-95436700D01*
D40*
X70239600Y-98492900D02*
X71471100Y-97261400D01*
X60115100Y-98492900D02*
X70239600Y-98492900D01*
X57717500Y-96095300D02*
X60115100Y-98492900D01*
X57717500Y-95436700D02*
X57717500Y-96095300D01*
X57505300Y-93210000D02*
X57505300Y-95436700D01*
X56868600Y-92573300D02*
X57505300Y-93210000D01*
X55600000Y-92573300D02*
X56868600Y-92573300D01*
D39*
X57717500Y-95436700D02*
X57505300Y-95436700D01*
D40*
X45020000Y-61967300D02*
X45268600Y-62215900D01*
X45020000Y-61403300D02*
X45020000Y-61967300D01*
X45482400Y-62429700D02*
X45268600Y-62215900D01*
X47212500Y-62429700D02*
X45482400Y-62429700D01*
D39*
X38400000Y-86974200D02*
X38400000Y-88000000D01*
X37268300Y-85842500D02*
X38400000Y-86974200D01*
X37268300Y-81951200D02*
X37268300Y-85842500D01*
X37048800Y-81731700D02*
X37268300Y-81951200D01*
X36500000Y-81731700D02*
X37048800Y-81731700D01*
X36500000Y-81000000D02*
X36500000Y-81731700D01*
X34814200Y-56229500D02*
X36328300Y-56229500D01*
X34060100Y-56983600D02*
X34814200Y-56229500D01*
X34060100Y-60174400D02*
X34060100Y-56983600D01*
X34398200Y-60512500D02*
X34060100Y-60174400D01*
X35237500Y-60512500D02*
X34398200Y-60512500D01*
X36328300Y-57907500D02*
X36328300Y-56229500D01*
X35737500Y-58498300D02*
X36328300Y-57907500D01*
X36250000Y-51750000D02*
X36901700Y-51750000D01*
X40500000Y-52000000D02*
X40500000Y-51243300D01*
D40*
X38667700Y-75332300D02*
X37037500Y-75332300D01*
X39500000Y-74500000D02*
X38667700Y-75332300D01*
D39*
X36901700Y-55656100D02*
X36328300Y-56229500D01*
X36901700Y-51750000D02*
X36901700Y-55656100D01*
X38039100Y-51750000D02*
X39253500Y-50535600D01*
X36901700Y-51750000D02*
X38039100Y-51750000D01*
X39961100Y-51243300D02*
X40500000Y-51243300D01*
X39253500Y-50535600D02*
X39961100Y-51243300D01*
D40*
X34500000Y-50000000D02*
X35000000Y-50000000D01*
D39*
X38299800Y-60512500D02*
X38365600Y-60578300D01*
X36237500Y-60512500D02*
X38299800Y-60512500D01*
X59020000Y-60750000D02*
X59746700Y-60750000D01*
X35000000Y-50000000D02*
X35000000Y-49348300D01*
X63500000Y-61000000D02*
X63500000Y-60248300D01*
X63500000Y-62250000D02*
X63500000Y-61000000D01*
X63750000Y-62500000D02*
X63500000Y-62250000D01*
D40*
X63846600Y-62846500D02*
X63500000Y-63193100D01*
D39*
X63750000Y-62750000D02*
X63846600Y-62846500D01*
X63750000Y-62500000D02*
X63750000Y-62750000D01*
X64500000Y-63500000D02*
X64500000Y-64000000D01*
X63846600Y-62846500D02*
X64500000Y-63500000D01*
X66250000Y-59500000D02*
X65518300Y-59500000D01*
X60248400Y-60248300D02*
X63500000Y-60248300D01*
X59746700Y-60750000D02*
X60248400Y-60248300D01*
X65518300Y-58951200D02*
X65518300Y-59500000D01*
X65310400Y-58743300D02*
X65518300Y-58951200D01*
X64148400Y-58743300D02*
X65310400Y-58743300D01*
X63500000Y-59391700D02*
X64148400Y-58743300D01*
X63500000Y-60248300D02*
X63500000Y-59391700D01*
X35000000Y-49348300D02*
X35553100Y-49348300D01*
X38066100Y-49348300D02*
X39253500Y-50535600D01*
X35553100Y-49348300D02*
X38066100Y-49348300D01*
X35553100Y-48622500D02*
X35553100Y-49348300D01*
X47930000Y-95436700D02*
X57505300Y-95436700D01*
D40*
%TO.N,/SYS*%
X59100000Y-70500000D02*
X59100000Y-73000000D01*
X58850000Y-76448300D02*
X58850000Y-75000000D01*
X59100000Y-76698300D02*
X58850000Y-76448300D01*
X59100000Y-77500000D02*
X59100000Y-76698300D01*
X58850000Y-74051700D02*
X58850000Y-75000000D01*
X59100000Y-73801700D02*
X58850000Y-74051700D01*
X65250000Y-62250000D02*
X66026700Y-62250000D01*
X59100000Y-73000000D02*
X59100000Y-73801700D01*
X54350000Y-75000000D02*
X54000000Y-74650000D01*
X58850000Y-75000000D02*
X54350000Y-75000000D01*
X51200000Y-82050000D02*
X50515100Y-82050000D01*
X65250000Y-62750000D02*
X65627400Y-62750000D01*
X51200000Y-83950000D02*
X50298300Y-83950000D01*
X50298300Y-82266800D02*
X50515100Y-82050000D01*
X50298300Y-83950000D02*
X50298300Y-82266800D01*
X50552200Y-78097800D02*
X54000000Y-74650000D01*
X50552200Y-82012900D02*
X50552200Y-78097800D01*
X50515100Y-82050000D02*
X50552200Y-82012900D01*
X63000000Y-67519600D02*
X63000000Y-66660700D01*
X61472000Y-69047600D02*
X63000000Y-67519600D01*
X60552400Y-69047600D02*
X61472000Y-69047600D01*
X59100000Y-70500000D02*
X60552400Y-69047600D01*
X63000000Y-66660700D02*
X63000000Y-64000000D01*
X65627400Y-62750000D02*
X66026700Y-62750000D01*
X66026700Y-65391300D02*
X66026700Y-62750000D01*
X64757300Y-66660700D02*
X66026700Y-65391300D01*
X63000000Y-66660700D02*
X64757300Y-66660700D01*
X66026700Y-62750000D02*
X66026700Y-62250000D01*
%TO.N,/BUZZER_NEG*%
X54000000Y-72350000D02*
X54000000Y-68950000D01*
%TD*%
M02*
