%TF.GenerationSoftware,KiCad,Pcbnew,9.0.7*%
%TF.CreationDate,2026-06-01T23:56:11+02:00*%
%TF.ProjectId,flysys_vario,666c7973-7973-45f7-9661-72696f2e6b69,rev?*%
%TF.SameCoordinates,Original*%
%TF.FileFunction,Legend,Top*%
%TF.FilePolarity,Positive*%
%FSLAX46Y46*%
G04 Gerber Fmt 4.6, Leading zero omitted, Abs format (unit mm)*
G04 Created by KiCad (PCBNEW 9.0.7) date 2026-06-01 23:56:11*
%MOMM*%
%LPD*%
G01*
G04 APERTURE LIST*
%ADD10C,0.150000*%
%ADD11C,0.100000*%
%ADD12C,0.120000*%
%ADD13C,0.250000*%
%ADD14C,0.200000*%
%ADD15C,0.300000*%
G04 APERTURE END LIST*
D10*
X37083333Y-85454819D02*
X36750000Y-84978628D01*
X36511905Y-85454819D02*
X36511905Y-84454819D01*
X36511905Y-84454819D02*
X36892857Y-84454819D01*
X36892857Y-84454819D02*
X36988095Y-84502438D01*
X36988095Y-84502438D02*
X37035714Y-84550057D01*
X37035714Y-84550057D02*
X37083333Y-84645295D01*
X37083333Y-84645295D02*
X37083333Y-84788152D01*
X37083333Y-84788152D02*
X37035714Y-84883390D01*
X37035714Y-84883390D02*
X36988095Y-84931009D01*
X36988095Y-84931009D02*
X36892857Y-84978628D01*
X36892857Y-84978628D02*
X36511905Y-84978628D01*
X37464286Y-84550057D02*
X37511905Y-84502438D01*
X37511905Y-84502438D02*
X37607143Y-84454819D01*
X37607143Y-84454819D02*
X37845238Y-84454819D01*
X37845238Y-84454819D02*
X37940476Y-84502438D01*
X37940476Y-84502438D02*
X37988095Y-84550057D01*
X37988095Y-84550057D02*
X38035714Y-84645295D01*
X38035714Y-84645295D02*
X38035714Y-84740533D01*
X38035714Y-84740533D02*
X37988095Y-84883390D01*
X37988095Y-84883390D02*
X37416667Y-85454819D01*
X37416667Y-85454819D02*
X38035714Y-85454819D01*
X61666667Y-94107200D02*
X61809524Y-94154819D01*
X61809524Y-94154819D02*
X62047619Y-94154819D01*
X62047619Y-94154819D02*
X62142857Y-94107200D01*
X62142857Y-94107200D02*
X62190476Y-94059580D01*
X62190476Y-94059580D02*
X62238095Y-93964342D01*
X62238095Y-93964342D02*
X62238095Y-93869104D01*
X62238095Y-93869104D02*
X62190476Y-93773866D01*
X62190476Y-93773866D02*
X62142857Y-93726247D01*
X62142857Y-93726247D02*
X62047619Y-93678628D01*
X62047619Y-93678628D02*
X61857143Y-93631009D01*
X61857143Y-93631009D02*
X61761905Y-93583390D01*
X61761905Y-93583390D02*
X61714286Y-93535771D01*
X61714286Y-93535771D02*
X61666667Y-93440533D01*
X61666667Y-93440533D02*
X61666667Y-93345295D01*
X61666667Y-93345295D02*
X61714286Y-93250057D01*
X61714286Y-93250057D02*
X61761905Y-93202438D01*
X61761905Y-93202438D02*
X61857143Y-93154819D01*
X61857143Y-93154819D02*
X62095238Y-93154819D01*
X62095238Y-93154819D02*
X62238095Y-93202438D01*
X62571429Y-93154819D02*
X62809524Y-94154819D01*
X62809524Y-94154819D02*
X63000000Y-93440533D01*
X63000000Y-93440533D02*
X63190476Y-94154819D01*
X63190476Y-94154819D02*
X63428572Y-93154819D01*
X64333333Y-94154819D02*
X63761905Y-94154819D01*
X64047619Y-94154819D02*
X64047619Y-93154819D01*
X64047619Y-93154819D02*
X63952381Y-93297676D01*
X63952381Y-93297676D02*
X63857143Y-93392914D01*
X63857143Y-93392914D02*
X63761905Y-93440533D01*
X51738095Y-87404819D02*
X51738095Y-88214342D01*
X51738095Y-88214342D02*
X51785714Y-88309580D01*
X51785714Y-88309580D02*
X51833333Y-88357200D01*
X51833333Y-88357200D02*
X51928571Y-88404819D01*
X51928571Y-88404819D02*
X52119047Y-88404819D01*
X52119047Y-88404819D02*
X52214285Y-88357200D01*
X52214285Y-88357200D02*
X52261904Y-88309580D01*
X52261904Y-88309580D02*
X52309523Y-88214342D01*
X52309523Y-88214342D02*
X52309523Y-87404819D01*
X52690476Y-87404819D02*
X53309523Y-87404819D01*
X53309523Y-87404819D02*
X52976190Y-87785771D01*
X52976190Y-87785771D02*
X53119047Y-87785771D01*
X53119047Y-87785771D02*
X53214285Y-87833390D01*
X53214285Y-87833390D02*
X53261904Y-87881009D01*
X53261904Y-87881009D02*
X53309523Y-87976247D01*
X53309523Y-87976247D02*
X53309523Y-88214342D01*
X53309523Y-88214342D02*
X53261904Y-88309580D01*
X53261904Y-88309580D02*
X53214285Y-88357200D01*
X53214285Y-88357200D02*
X53119047Y-88404819D01*
X53119047Y-88404819D02*
X52833333Y-88404819D01*
X52833333Y-88404819D02*
X52738095Y-88357200D01*
X52738095Y-88357200D02*
X52690476Y-88309580D01*
X59433333Y-75454819D02*
X59100000Y-74978628D01*
X58861905Y-75454819D02*
X58861905Y-74454819D01*
X58861905Y-74454819D02*
X59242857Y-74454819D01*
X59242857Y-74454819D02*
X59338095Y-74502438D01*
X59338095Y-74502438D02*
X59385714Y-74550057D01*
X59385714Y-74550057D02*
X59433333Y-74645295D01*
X59433333Y-74645295D02*
X59433333Y-74788152D01*
X59433333Y-74788152D02*
X59385714Y-74883390D01*
X59385714Y-74883390D02*
X59338095Y-74931009D01*
X59338095Y-74931009D02*
X59242857Y-74978628D01*
X59242857Y-74978628D02*
X58861905Y-74978628D01*
X60338095Y-74454819D02*
X59861905Y-74454819D01*
X59861905Y-74454819D02*
X59814286Y-74931009D01*
X59814286Y-74931009D02*
X59861905Y-74883390D01*
X59861905Y-74883390D02*
X59957143Y-74835771D01*
X59957143Y-74835771D02*
X60195238Y-74835771D01*
X60195238Y-74835771D02*
X60290476Y-74883390D01*
X60290476Y-74883390D02*
X60338095Y-74931009D01*
X60338095Y-74931009D02*
X60385714Y-75026247D01*
X60385714Y-75026247D02*
X60385714Y-75264342D01*
X60385714Y-75264342D02*
X60338095Y-75359580D01*
X60338095Y-75359580D02*
X60290476Y-75407200D01*
X60290476Y-75407200D02*
X60195238Y-75454819D01*
X60195238Y-75454819D02*
X59957143Y-75454819D01*
X59957143Y-75454819D02*
X59861905Y-75407200D01*
X59861905Y-75407200D02*
X59814286Y-75359580D01*
X50511905Y-95324819D02*
X50511905Y-96134342D01*
X50511905Y-96134342D02*
X50559524Y-96229580D01*
X50559524Y-96229580D02*
X50607143Y-96277200D01*
X50607143Y-96277200D02*
X50702381Y-96324819D01*
X50702381Y-96324819D02*
X50892857Y-96324819D01*
X50892857Y-96324819D02*
X50988095Y-96277200D01*
X50988095Y-96277200D02*
X51035714Y-96229580D01*
X51035714Y-96229580D02*
X51083333Y-96134342D01*
X51083333Y-96134342D02*
X51083333Y-95324819D01*
X51511905Y-96277200D02*
X51654762Y-96324819D01*
X51654762Y-96324819D02*
X51892857Y-96324819D01*
X51892857Y-96324819D02*
X51988095Y-96277200D01*
X51988095Y-96277200D02*
X52035714Y-96229580D01*
X52035714Y-96229580D02*
X52083333Y-96134342D01*
X52083333Y-96134342D02*
X52083333Y-96039104D01*
X52083333Y-96039104D02*
X52035714Y-95943866D01*
X52035714Y-95943866D02*
X51988095Y-95896247D01*
X51988095Y-95896247D02*
X51892857Y-95848628D01*
X51892857Y-95848628D02*
X51702381Y-95801009D01*
X51702381Y-95801009D02*
X51607143Y-95753390D01*
X51607143Y-95753390D02*
X51559524Y-95705771D01*
X51559524Y-95705771D02*
X51511905Y-95610533D01*
X51511905Y-95610533D02*
X51511905Y-95515295D01*
X51511905Y-95515295D02*
X51559524Y-95420057D01*
X51559524Y-95420057D02*
X51607143Y-95372438D01*
X51607143Y-95372438D02*
X51702381Y-95324819D01*
X51702381Y-95324819D02*
X51940476Y-95324819D01*
X51940476Y-95324819D02*
X52083333Y-95372438D01*
X52845238Y-95801009D02*
X52988095Y-95848628D01*
X52988095Y-95848628D02*
X53035714Y-95896247D01*
X53035714Y-95896247D02*
X53083333Y-95991485D01*
X53083333Y-95991485D02*
X53083333Y-96134342D01*
X53083333Y-96134342D02*
X53035714Y-96229580D01*
X53035714Y-96229580D02*
X52988095Y-96277200D01*
X52988095Y-96277200D02*
X52892857Y-96324819D01*
X52892857Y-96324819D02*
X52511905Y-96324819D01*
X52511905Y-96324819D02*
X52511905Y-95324819D01*
X52511905Y-95324819D02*
X52845238Y-95324819D01*
X52845238Y-95324819D02*
X52940476Y-95372438D01*
X52940476Y-95372438D02*
X52988095Y-95420057D01*
X52988095Y-95420057D02*
X53035714Y-95515295D01*
X53035714Y-95515295D02*
X53035714Y-95610533D01*
X53035714Y-95610533D02*
X52988095Y-95705771D01*
X52988095Y-95705771D02*
X52940476Y-95753390D01*
X52940476Y-95753390D02*
X52845238Y-95801009D01*
X52845238Y-95801009D02*
X52511905Y-95801009D01*
X54035714Y-96324819D02*
X53464286Y-96324819D01*
X53750000Y-96324819D02*
X53750000Y-95324819D01*
X53750000Y-95324819D02*
X53654762Y-95467676D01*
X53654762Y-95467676D02*
X53559524Y-95562914D01*
X53559524Y-95562914D02*
X53464286Y-95610533D01*
D11*
X35280357Y-57722371D02*
X35280357Y-58208085D01*
X35280357Y-58208085D02*
X35308928Y-58265228D01*
X35308928Y-58265228D02*
X35337500Y-58293800D01*
X35337500Y-58293800D02*
X35394642Y-58322371D01*
X35394642Y-58322371D02*
X35508928Y-58322371D01*
X35508928Y-58322371D02*
X35566071Y-58293800D01*
X35566071Y-58293800D02*
X35594642Y-58265228D01*
X35594642Y-58265228D02*
X35623214Y-58208085D01*
X35623214Y-58208085D02*
X35623214Y-57722371D01*
X36194642Y-57722371D02*
X35908928Y-57722371D01*
X35908928Y-57722371D02*
X35880356Y-58008085D01*
X35880356Y-58008085D02*
X35908928Y-57979514D01*
X35908928Y-57979514D02*
X35966071Y-57950942D01*
X35966071Y-57950942D02*
X36108928Y-57950942D01*
X36108928Y-57950942D02*
X36166071Y-57979514D01*
X36166071Y-57979514D02*
X36194642Y-58008085D01*
X36194642Y-58008085D02*
X36223213Y-58065228D01*
X36223213Y-58065228D02*
X36223213Y-58208085D01*
X36223213Y-58208085D02*
X36194642Y-58265228D01*
X36194642Y-58265228D02*
X36166071Y-58293800D01*
X36166071Y-58293800D02*
X36108928Y-58322371D01*
X36108928Y-58322371D02*
X35966071Y-58322371D01*
X35966071Y-58322371D02*
X35908928Y-58293800D01*
X35908928Y-58293800D02*
X35880356Y-58265228D01*
D10*
X51258095Y-42174819D02*
X51258095Y-42984342D01*
X51258095Y-42984342D02*
X51305714Y-43079580D01*
X51305714Y-43079580D02*
X51353333Y-43127200D01*
X51353333Y-43127200D02*
X51448571Y-43174819D01*
X51448571Y-43174819D02*
X51639047Y-43174819D01*
X51639047Y-43174819D02*
X51734285Y-43127200D01*
X51734285Y-43127200D02*
X51781904Y-43079580D01*
X51781904Y-43079580D02*
X51829523Y-42984342D01*
X51829523Y-42984342D02*
X51829523Y-42174819D01*
X52734285Y-42508152D02*
X52734285Y-43174819D01*
X52496190Y-42127200D02*
X52258095Y-42841485D01*
X52258095Y-42841485D02*
X52877142Y-42841485D01*
X34238095Y-55454819D02*
X34238095Y-56264342D01*
X34238095Y-56264342D02*
X34285714Y-56359580D01*
X34285714Y-56359580D02*
X34333333Y-56407200D01*
X34333333Y-56407200D02*
X34428571Y-56454819D01*
X34428571Y-56454819D02*
X34619047Y-56454819D01*
X34619047Y-56454819D02*
X34714285Y-56407200D01*
X34714285Y-56407200D02*
X34761904Y-56359580D01*
X34761904Y-56359580D02*
X34809523Y-56264342D01*
X34809523Y-56264342D02*
X34809523Y-55454819D01*
X35238095Y-55550057D02*
X35285714Y-55502438D01*
X35285714Y-55502438D02*
X35380952Y-55454819D01*
X35380952Y-55454819D02*
X35619047Y-55454819D01*
X35619047Y-55454819D02*
X35714285Y-55502438D01*
X35714285Y-55502438D02*
X35761904Y-55550057D01*
X35761904Y-55550057D02*
X35809523Y-55645295D01*
X35809523Y-55645295D02*
X35809523Y-55740533D01*
X35809523Y-55740533D02*
X35761904Y-55883390D01*
X35761904Y-55883390D02*
X35190476Y-56454819D01*
X35190476Y-56454819D02*
X35809523Y-56454819D01*
X62988095Y-61954819D02*
X62988095Y-62764342D01*
X62988095Y-62764342D02*
X63035714Y-62859580D01*
X63035714Y-62859580D02*
X63083333Y-62907200D01*
X63083333Y-62907200D02*
X63178571Y-62954819D01*
X63178571Y-62954819D02*
X63369047Y-62954819D01*
X63369047Y-62954819D02*
X63464285Y-62907200D01*
X63464285Y-62907200D02*
X63511904Y-62859580D01*
X63511904Y-62859580D02*
X63559523Y-62764342D01*
X63559523Y-62764342D02*
X63559523Y-61954819D01*
X64559523Y-62954819D02*
X63988095Y-62954819D01*
X64273809Y-62954819D02*
X64273809Y-61954819D01*
X64273809Y-61954819D02*
X64178571Y-62097676D01*
X64178571Y-62097676D02*
X64083333Y-62192914D01*
X64083333Y-62192914D02*
X63988095Y-62240533D01*
X40607142Y-50454819D02*
X40273809Y-49978628D01*
X40035714Y-50454819D02*
X40035714Y-49454819D01*
X40035714Y-49454819D02*
X40416666Y-49454819D01*
X40416666Y-49454819D02*
X40511904Y-49502438D01*
X40511904Y-49502438D02*
X40559523Y-49550057D01*
X40559523Y-49550057D02*
X40607142Y-49645295D01*
X40607142Y-49645295D02*
X40607142Y-49788152D01*
X40607142Y-49788152D02*
X40559523Y-49883390D01*
X40559523Y-49883390D02*
X40511904Y-49931009D01*
X40511904Y-49931009D02*
X40416666Y-49978628D01*
X40416666Y-49978628D02*
X40035714Y-49978628D01*
X40988095Y-49550057D02*
X41035714Y-49502438D01*
X41035714Y-49502438D02*
X41130952Y-49454819D01*
X41130952Y-49454819D02*
X41369047Y-49454819D01*
X41369047Y-49454819D02*
X41464285Y-49502438D01*
X41464285Y-49502438D02*
X41511904Y-49550057D01*
X41511904Y-49550057D02*
X41559523Y-49645295D01*
X41559523Y-49645295D02*
X41559523Y-49740533D01*
X41559523Y-49740533D02*
X41511904Y-49883390D01*
X41511904Y-49883390D02*
X40940476Y-50454819D01*
X40940476Y-50454819D02*
X41559523Y-50454819D01*
X41940476Y-49550057D02*
X41988095Y-49502438D01*
X41988095Y-49502438D02*
X42083333Y-49454819D01*
X42083333Y-49454819D02*
X42321428Y-49454819D01*
X42321428Y-49454819D02*
X42416666Y-49502438D01*
X42416666Y-49502438D02*
X42464285Y-49550057D01*
X42464285Y-49550057D02*
X42511904Y-49645295D01*
X42511904Y-49645295D02*
X42511904Y-49740533D01*
X42511904Y-49740533D02*
X42464285Y-49883390D01*
X42464285Y-49883390D02*
X41892857Y-50454819D01*
X41892857Y-50454819D02*
X42511904Y-50454819D01*
X40607142Y-52454819D02*
X40273809Y-51978628D01*
X40035714Y-52454819D02*
X40035714Y-51454819D01*
X40035714Y-51454819D02*
X40416666Y-51454819D01*
X40416666Y-51454819D02*
X40511904Y-51502438D01*
X40511904Y-51502438D02*
X40559523Y-51550057D01*
X40559523Y-51550057D02*
X40607142Y-51645295D01*
X40607142Y-51645295D02*
X40607142Y-51788152D01*
X40607142Y-51788152D02*
X40559523Y-51883390D01*
X40559523Y-51883390D02*
X40511904Y-51931009D01*
X40511904Y-51931009D02*
X40416666Y-51978628D01*
X40416666Y-51978628D02*
X40035714Y-51978628D01*
X40988095Y-51550057D02*
X41035714Y-51502438D01*
X41035714Y-51502438D02*
X41130952Y-51454819D01*
X41130952Y-51454819D02*
X41369047Y-51454819D01*
X41369047Y-51454819D02*
X41464285Y-51502438D01*
X41464285Y-51502438D02*
X41511904Y-51550057D01*
X41511904Y-51550057D02*
X41559523Y-51645295D01*
X41559523Y-51645295D02*
X41559523Y-51740533D01*
X41559523Y-51740533D02*
X41511904Y-51883390D01*
X41511904Y-51883390D02*
X40940476Y-52454819D01*
X40940476Y-52454819D02*
X41559523Y-52454819D01*
X42511904Y-52454819D02*
X41940476Y-52454819D01*
X42226190Y-52454819D02*
X42226190Y-51454819D01*
X42226190Y-51454819D02*
X42130952Y-51597676D01*
X42130952Y-51597676D02*
X42035714Y-51692914D01*
X42035714Y-51692914D02*
X41940476Y-51740533D01*
X56857142Y-81954819D02*
X56523809Y-81478628D01*
X56285714Y-81954819D02*
X56285714Y-80954819D01*
X56285714Y-80954819D02*
X56666666Y-80954819D01*
X56666666Y-80954819D02*
X56761904Y-81002438D01*
X56761904Y-81002438D02*
X56809523Y-81050057D01*
X56809523Y-81050057D02*
X56857142Y-81145295D01*
X56857142Y-81145295D02*
X56857142Y-81288152D01*
X56857142Y-81288152D02*
X56809523Y-81383390D01*
X56809523Y-81383390D02*
X56761904Y-81431009D01*
X56761904Y-81431009D02*
X56666666Y-81478628D01*
X56666666Y-81478628D02*
X56285714Y-81478628D01*
X57238095Y-81050057D02*
X57285714Y-81002438D01*
X57285714Y-81002438D02*
X57380952Y-80954819D01*
X57380952Y-80954819D02*
X57619047Y-80954819D01*
X57619047Y-80954819D02*
X57714285Y-81002438D01*
X57714285Y-81002438D02*
X57761904Y-81050057D01*
X57761904Y-81050057D02*
X57809523Y-81145295D01*
X57809523Y-81145295D02*
X57809523Y-81240533D01*
X57809523Y-81240533D02*
X57761904Y-81383390D01*
X57761904Y-81383390D02*
X57190476Y-81954819D01*
X57190476Y-81954819D02*
X57809523Y-81954819D01*
X58428571Y-80954819D02*
X58523809Y-80954819D01*
X58523809Y-80954819D02*
X58619047Y-81002438D01*
X58619047Y-81002438D02*
X58666666Y-81050057D01*
X58666666Y-81050057D02*
X58714285Y-81145295D01*
X58714285Y-81145295D02*
X58761904Y-81335771D01*
X58761904Y-81335771D02*
X58761904Y-81573866D01*
X58761904Y-81573866D02*
X58714285Y-81764342D01*
X58714285Y-81764342D02*
X58666666Y-81859580D01*
X58666666Y-81859580D02*
X58619047Y-81907200D01*
X58619047Y-81907200D02*
X58523809Y-81954819D01*
X58523809Y-81954819D02*
X58428571Y-81954819D01*
X58428571Y-81954819D02*
X58333333Y-81907200D01*
X58333333Y-81907200D02*
X58285714Y-81859580D01*
X58285714Y-81859580D02*
X58238095Y-81764342D01*
X58238095Y-81764342D02*
X58190476Y-81573866D01*
X58190476Y-81573866D02*
X58190476Y-81335771D01*
X58190476Y-81335771D02*
X58238095Y-81145295D01*
X58238095Y-81145295D02*
X58285714Y-81050057D01*
X58285714Y-81050057D02*
X58333333Y-81002438D01*
X58333333Y-81002438D02*
X58428571Y-80954819D01*
X62607142Y-54954819D02*
X62273809Y-54478628D01*
X62035714Y-54954819D02*
X62035714Y-53954819D01*
X62035714Y-53954819D02*
X62416666Y-53954819D01*
X62416666Y-53954819D02*
X62511904Y-54002438D01*
X62511904Y-54002438D02*
X62559523Y-54050057D01*
X62559523Y-54050057D02*
X62607142Y-54145295D01*
X62607142Y-54145295D02*
X62607142Y-54288152D01*
X62607142Y-54288152D02*
X62559523Y-54383390D01*
X62559523Y-54383390D02*
X62511904Y-54431009D01*
X62511904Y-54431009D02*
X62416666Y-54478628D01*
X62416666Y-54478628D02*
X62035714Y-54478628D01*
X63559523Y-54954819D02*
X62988095Y-54954819D01*
X63273809Y-54954819D02*
X63273809Y-53954819D01*
X63273809Y-53954819D02*
X63178571Y-54097676D01*
X63178571Y-54097676D02*
X63083333Y-54192914D01*
X63083333Y-54192914D02*
X62988095Y-54240533D01*
X64035714Y-54954819D02*
X64226190Y-54954819D01*
X64226190Y-54954819D02*
X64321428Y-54907200D01*
X64321428Y-54907200D02*
X64369047Y-54859580D01*
X64369047Y-54859580D02*
X64464285Y-54716723D01*
X64464285Y-54716723D02*
X64511904Y-54526247D01*
X64511904Y-54526247D02*
X64511904Y-54145295D01*
X64511904Y-54145295D02*
X64464285Y-54050057D01*
X64464285Y-54050057D02*
X64416666Y-54002438D01*
X64416666Y-54002438D02*
X64321428Y-53954819D01*
X64321428Y-53954819D02*
X64130952Y-53954819D01*
X64130952Y-53954819D02*
X64035714Y-54002438D01*
X64035714Y-54002438D02*
X63988095Y-54050057D01*
X63988095Y-54050057D02*
X63940476Y-54145295D01*
X63940476Y-54145295D02*
X63940476Y-54383390D01*
X63940476Y-54383390D02*
X63988095Y-54478628D01*
X63988095Y-54478628D02*
X64035714Y-54526247D01*
X64035714Y-54526247D02*
X64130952Y-54573866D01*
X64130952Y-54573866D02*
X64321428Y-54573866D01*
X64321428Y-54573866D02*
X64416666Y-54526247D01*
X64416666Y-54526247D02*
X64464285Y-54478628D01*
X64464285Y-54478628D02*
X64511904Y-54383390D01*
X40607142Y-58954819D02*
X40273809Y-58478628D01*
X40035714Y-58954819D02*
X40035714Y-57954819D01*
X40035714Y-57954819D02*
X40416666Y-57954819D01*
X40416666Y-57954819D02*
X40511904Y-58002438D01*
X40511904Y-58002438D02*
X40559523Y-58050057D01*
X40559523Y-58050057D02*
X40607142Y-58145295D01*
X40607142Y-58145295D02*
X40607142Y-58288152D01*
X40607142Y-58288152D02*
X40559523Y-58383390D01*
X40559523Y-58383390D02*
X40511904Y-58431009D01*
X40511904Y-58431009D02*
X40416666Y-58478628D01*
X40416666Y-58478628D02*
X40035714Y-58478628D01*
X41559523Y-58954819D02*
X40988095Y-58954819D01*
X41273809Y-58954819D02*
X41273809Y-57954819D01*
X41273809Y-57954819D02*
X41178571Y-58097676D01*
X41178571Y-58097676D02*
X41083333Y-58192914D01*
X41083333Y-58192914D02*
X40988095Y-58240533D01*
X42130952Y-58383390D02*
X42035714Y-58335771D01*
X42035714Y-58335771D02*
X41988095Y-58288152D01*
X41988095Y-58288152D02*
X41940476Y-58192914D01*
X41940476Y-58192914D02*
X41940476Y-58145295D01*
X41940476Y-58145295D02*
X41988095Y-58050057D01*
X41988095Y-58050057D02*
X42035714Y-58002438D01*
X42035714Y-58002438D02*
X42130952Y-57954819D01*
X42130952Y-57954819D02*
X42321428Y-57954819D01*
X42321428Y-57954819D02*
X42416666Y-58002438D01*
X42416666Y-58002438D02*
X42464285Y-58050057D01*
X42464285Y-58050057D02*
X42511904Y-58145295D01*
X42511904Y-58145295D02*
X42511904Y-58192914D01*
X42511904Y-58192914D02*
X42464285Y-58288152D01*
X42464285Y-58288152D02*
X42416666Y-58335771D01*
X42416666Y-58335771D02*
X42321428Y-58383390D01*
X42321428Y-58383390D02*
X42130952Y-58383390D01*
X42130952Y-58383390D02*
X42035714Y-58431009D01*
X42035714Y-58431009D02*
X41988095Y-58478628D01*
X41988095Y-58478628D02*
X41940476Y-58573866D01*
X41940476Y-58573866D02*
X41940476Y-58764342D01*
X41940476Y-58764342D02*
X41988095Y-58859580D01*
X41988095Y-58859580D02*
X42035714Y-58907200D01*
X42035714Y-58907200D02*
X42130952Y-58954819D01*
X42130952Y-58954819D02*
X42321428Y-58954819D01*
X42321428Y-58954819D02*
X42416666Y-58907200D01*
X42416666Y-58907200D02*
X42464285Y-58859580D01*
X42464285Y-58859580D02*
X42511904Y-58764342D01*
X42511904Y-58764342D02*
X42511904Y-58573866D01*
X42511904Y-58573866D02*
X42464285Y-58478628D01*
X42464285Y-58478628D02*
X42416666Y-58431009D01*
X42416666Y-58431009D02*
X42321428Y-58383390D01*
X40607142Y-56954819D02*
X40273809Y-56478628D01*
X40035714Y-56954819D02*
X40035714Y-55954819D01*
X40035714Y-55954819D02*
X40416666Y-55954819D01*
X40416666Y-55954819D02*
X40511904Y-56002438D01*
X40511904Y-56002438D02*
X40559523Y-56050057D01*
X40559523Y-56050057D02*
X40607142Y-56145295D01*
X40607142Y-56145295D02*
X40607142Y-56288152D01*
X40607142Y-56288152D02*
X40559523Y-56383390D01*
X40559523Y-56383390D02*
X40511904Y-56431009D01*
X40511904Y-56431009D02*
X40416666Y-56478628D01*
X40416666Y-56478628D02*
X40035714Y-56478628D01*
X41559523Y-56954819D02*
X40988095Y-56954819D01*
X41273809Y-56954819D02*
X41273809Y-55954819D01*
X41273809Y-55954819D02*
X41178571Y-56097676D01*
X41178571Y-56097676D02*
X41083333Y-56192914D01*
X41083333Y-56192914D02*
X40988095Y-56240533D01*
X41892857Y-55954819D02*
X42559523Y-55954819D01*
X42559523Y-55954819D02*
X42130952Y-56954819D01*
X64107142Y-44454819D02*
X63773809Y-43978628D01*
X63535714Y-44454819D02*
X63535714Y-43454819D01*
X63535714Y-43454819D02*
X63916666Y-43454819D01*
X63916666Y-43454819D02*
X64011904Y-43502438D01*
X64011904Y-43502438D02*
X64059523Y-43550057D01*
X64059523Y-43550057D02*
X64107142Y-43645295D01*
X64107142Y-43645295D02*
X64107142Y-43788152D01*
X64107142Y-43788152D02*
X64059523Y-43883390D01*
X64059523Y-43883390D02*
X64011904Y-43931009D01*
X64011904Y-43931009D02*
X63916666Y-43978628D01*
X63916666Y-43978628D02*
X63535714Y-43978628D01*
X65059523Y-44454819D02*
X64488095Y-44454819D01*
X64773809Y-44454819D02*
X64773809Y-43454819D01*
X64773809Y-43454819D02*
X64678571Y-43597676D01*
X64678571Y-43597676D02*
X64583333Y-43692914D01*
X64583333Y-43692914D02*
X64488095Y-43740533D01*
X65916666Y-43454819D02*
X65726190Y-43454819D01*
X65726190Y-43454819D02*
X65630952Y-43502438D01*
X65630952Y-43502438D02*
X65583333Y-43550057D01*
X65583333Y-43550057D02*
X65488095Y-43692914D01*
X65488095Y-43692914D02*
X65440476Y-43883390D01*
X65440476Y-43883390D02*
X65440476Y-44264342D01*
X65440476Y-44264342D02*
X65488095Y-44359580D01*
X65488095Y-44359580D02*
X65535714Y-44407200D01*
X65535714Y-44407200D02*
X65630952Y-44454819D01*
X65630952Y-44454819D02*
X65821428Y-44454819D01*
X65821428Y-44454819D02*
X65916666Y-44407200D01*
X65916666Y-44407200D02*
X65964285Y-44359580D01*
X65964285Y-44359580D02*
X66011904Y-44264342D01*
X66011904Y-44264342D02*
X66011904Y-44026247D01*
X66011904Y-44026247D02*
X65964285Y-43931009D01*
X65964285Y-43931009D02*
X65916666Y-43883390D01*
X65916666Y-43883390D02*
X65821428Y-43835771D01*
X65821428Y-43835771D02*
X65630952Y-43835771D01*
X65630952Y-43835771D02*
X65535714Y-43883390D01*
X65535714Y-43883390D02*
X65488095Y-43931009D01*
X65488095Y-43931009D02*
X65440476Y-44026247D01*
X59607142Y-67954819D02*
X59273809Y-67478628D01*
X59035714Y-67954819D02*
X59035714Y-66954819D01*
X59035714Y-66954819D02*
X59416666Y-66954819D01*
X59416666Y-66954819D02*
X59511904Y-67002438D01*
X59511904Y-67002438D02*
X59559523Y-67050057D01*
X59559523Y-67050057D02*
X59607142Y-67145295D01*
X59607142Y-67145295D02*
X59607142Y-67288152D01*
X59607142Y-67288152D02*
X59559523Y-67383390D01*
X59559523Y-67383390D02*
X59511904Y-67431009D01*
X59511904Y-67431009D02*
X59416666Y-67478628D01*
X59416666Y-67478628D02*
X59035714Y-67478628D01*
X60559523Y-67954819D02*
X59988095Y-67954819D01*
X60273809Y-67954819D02*
X60273809Y-66954819D01*
X60273809Y-66954819D02*
X60178571Y-67097676D01*
X60178571Y-67097676D02*
X60083333Y-67192914D01*
X60083333Y-67192914D02*
X59988095Y-67240533D01*
X61464285Y-66954819D02*
X60988095Y-66954819D01*
X60988095Y-66954819D02*
X60940476Y-67431009D01*
X60940476Y-67431009D02*
X60988095Y-67383390D01*
X60988095Y-67383390D02*
X61083333Y-67335771D01*
X61083333Y-67335771D02*
X61321428Y-67335771D01*
X61321428Y-67335771D02*
X61416666Y-67383390D01*
X61416666Y-67383390D02*
X61464285Y-67431009D01*
X61464285Y-67431009D02*
X61511904Y-67526247D01*
X61511904Y-67526247D02*
X61511904Y-67764342D01*
X61511904Y-67764342D02*
X61464285Y-67859580D01*
X61464285Y-67859580D02*
X61416666Y-67907200D01*
X61416666Y-67907200D02*
X61321428Y-67954819D01*
X61321428Y-67954819D02*
X61083333Y-67954819D01*
X61083333Y-67954819D02*
X60988095Y-67907200D01*
X60988095Y-67907200D02*
X60940476Y-67859580D01*
X65107142Y-59954819D02*
X64773809Y-59478628D01*
X64535714Y-59954819D02*
X64535714Y-58954819D01*
X64535714Y-58954819D02*
X64916666Y-58954819D01*
X64916666Y-58954819D02*
X65011904Y-59002438D01*
X65011904Y-59002438D02*
X65059523Y-59050057D01*
X65059523Y-59050057D02*
X65107142Y-59145295D01*
X65107142Y-59145295D02*
X65107142Y-59288152D01*
X65107142Y-59288152D02*
X65059523Y-59383390D01*
X65059523Y-59383390D02*
X65011904Y-59431009D01*
X65011904Y-59431009D02*
X64916666Y-59478628D01*
X64916666Y-59478628D02*
X64535714Y-59478628D01*
X66059523Y-59954819D02*
X65488095Y-59954819D01*
X65773809Y-59954819D02*
X65773809Y-58954819D01*
X65773809Y-58954819D02*
X65678571Y-59097676D01*
X65678571Y-59097676D02*
X65583333Y-59192914D01*
X65583333Y-59192914D02*
X65488095Y-59240533D01*
X66916666Y-59288152D02*
X66916666Y-59954819D01*
X66678571Y-58907200D02*
X66440476Y-59621485D01*
X66440476Y-59621485D02*
X67059523Y-59621485D01*
X62607142Y-56954819D02*
X62273809Y-56478628D01*
X62035714Y-56954819D02*
X62035714Y-55954819D01*
X62035714Y-55954819D02*
X62416666Y-55954819D01*
X62416666Y-55954819D02*
X62511904Y-56002438D01*
X62511904Y-56002438D02*
X62559523Y-56050057D01*
X62559523Y-56050057D02*
X62607142Y-56145295D01*
X62607142Y-56145295D02*
X62607142Y-56288152D01*
X62607142Y-56288152D02*
X62559523Y-56383390D01*
X62559523Y-56383390D02*
X62511904Y-56431009D01*
X62511904Y-56431009D02*
X62416666Y-56478628D01*
X62416666Y-56478628D02*
X62035714Y-56478628D01*
X63559523Y-56954819D02*
X62988095Y-56954819D01*
X63273809Y-56954819D02*
X63273809Y-55954819D01*
X63273809Y-55954819D02*
X63178571Y-56097676D01*
X63178571Y-56097676D02*
X63083333Y-56192914D01*
X63083333Y-56192914D02*
X62988095Y-56240533D01*
X63892857Y-55954819D02*
X64511904Y-55954819D01*
X64511904Y-55954819D02*
X64178571Y-56335771D01*
X64178571Y-56335771D02*
X64321428Y-56335771D01*
X64321428Y-56335771D02*
X64416666Y-56383390D01*
X64416666Y-56383390D02*
X64464285Y-56431009D01*
X64464285Y-56431009D02*
X64511904Y-56526247D01*
X64511904Y-56526247D02*
X64511904Y-56764342D01*
X64511904Y-56764342D02*
X64464285Y-56859580D01*
X64464285Y-56859580D02*
X64416666Y-56907200D01*
X64416666Y-56907200D02*
X64321428Y-56954819D01*
X64321428Y-56954819D02*
X64035714Y-56954819D01*
X64035714Y-56954819D02*
X63940476Y-56907200D01*
X63940476Y-56907200D02*
X63892857Y-56859580D01*
X59454819Y-64892857D02*
X58978628Y-65226190D01*
X59454819Y-65464285D02*
X58454819Y-65464285D01*
X58454819Y-65464285D02*
X58454819Y-65083333D01*
X58454819Y-65083333D02*
X58502438Y-64988095D01*
X58502438Y-64988095D02*
X58550057Y-64940476D01*
X58550057Y-64940476D02*
X58645295Y-64892857D01*
X58645295Y-64892857D02*
X58788152Y-64892857D01*
X58788152Y-64892857D02*
X58883390Y-64940476D01*
X58883390Y-64940476D02*
X58931009Y-64988095D01*
X58931009Y-64988095D02*
X58978628Y-65083333D01*
X58978628Y-65083333D02*
X58978628Y-65464285D01*
X59454819Y-63940476D02*
X59454819Y-64511904D01*
X59454819Y-64226190D02*
X58454819Y-64226190D01*
X58454819Y-64226190D02*
X58597676Y-64321428D01*
X58597676Y-64321428D02*
X58692914Y-64416666D01*
X58692914Y-64416666D02*
X58740533Y-64511904D01*
X58550057Y-63559523D02*
X58502438Y-63511904D01*
X58502438Y-63511904D02*
X58454819Y-63416666D01*
X58454819Y-63416666D02*
X58454819Y-63178571D01*
X58454819Y-63178571D02*
X58502438Y-63083333D01*
X58502438Y-63083333D02*
X58550057Y-63035714D01*
X58550057Y-63035714D02*
X58645295Y-62988095D01*
X58645295Y-62988095D02*
X58740533Y-62988095D01*
X58740533Y-62988095D02*
X58883390Y-63035714D01*
X58883390Y-63035714D02*
X59454819Y-63607142D01*
X59454819Y-63607142D02*
X59454819Y-62988095D01*
X69454819Y-62642857D02*
X68978628Y-62976190D01*
X69454819Y-63214285D02*
X68454819Y-63214285D01*
X68454819Y-63214285D02*
X68454819Y-62833333D01*
X68454819Y-62833333D02*
X68502438Y-62738095D01*
X68502438Y-62738095D02*
X68550057Y-62690476D01*
X68550057Y-62690476D02*
X68645295Y-62642857D01*
X68645295Y-62642857D02*
X68788152Y-62642857D01*
X68788152Y-62642857D02*
X68883390Y-62690476D01*
X68883390Y-62690476D02*
X68931009Y-62738095D01*
X68931009Y-62738095D02*
X68978628Y-62833333D01*
X68978628Y-62833333D02*
X68978628Y-63214285D01*
X69454819Y-61690476D02*
X69454819Y-62261904D01*
X69454819Y-61976190D02*
X68454819Y-61976190D01*
X68454819Y-61976190D02*
X68597676Y-62071428D01*
X68597676Y-62071428D02*
X68692914Y-62166666D01*
X68692914Y-62166666D02*
X68740533Y-62261904D01*
X69454819Y-60738095D02*
X69454819Y-61309523D01*
X69454819Y-61023809D02*
X68454819Y-61023809D01*
X68454819Y-61023809D02*
X68597676Y-61119047D01*
X68597676Y-61119047D02*
X68692914Y-61214285D01*
X68692914Y-61214285D02*
X68740533Y-61309523D01*
X55954819Y-89642857D02*
X55478628Y-89976190D01*
X55954819Y-90214285D02*
X54954819Y-90214285D01*
X54954819Y-90214285D02*
X54954819Y-89833333D01*
X54954819Y-89833333D02*
X55002438Y-89738095D01*
X55002438Y-89738095D02*
X55050057Y-89690476D01*
X55050057Y-89690476D02*
X55145295Y-89642857D01*
X55145295Y-89642857D02*
X55288152Y-89642857D01*
X55288152Y-89642857D02*
X55383390Y-89690476D01*
X55383390Y-89690476D02*
X55431009Y-89738095D01*
X55431009Y-89738095D02*
X55478628Y-89833333D01*
X55478628Y-89833333D02*
X55478628Y-90214285D01*
X55954819Y-88690476D02*
X55954819Y-89261904D01*
X55954819Y-88976190D02*
X54954819Y-88976190D01*
X54954819Y-88976190D02*
X55097676Y-89071428D01*
X55097676Y-89071428D02*
X55192914Y-89166666D01*
X55192914Y-89166666D02*
X55240533Y-89261904D01*
X54954819Y-88071428D02*
X54954819Y-87976190D01*
X54954819Y-87976190D02*
X55002438Y-87880952D01*
X55002438Y-87880952D02*
X55050057Y-87833333D01*
X55050057Y-87833333D02*
X55145295Y-87785714D01*
X55145295Y-87785714D02*
X55335771Y-87738095D01*
X55335771Y-87738095D02*
X55573866Y-87738095D01*
X55573866Y-87738095D02*
X55764342Y-87785714D01*
X55764342Y-87785714D02*
X55859580Y-87833333D01*
X55859580Y-87833333D02*
X55907200Y-87880952D01*
X55907200Y-87880952D02*
X55954819Y-87976190D01*
X55954819Y-87976190D02*
X55954819Y-88071428D01*
X55954819Y-88071428D02*
X55907200Y-88166666D01*
X55907200Y-88166666D02*
X55859580Y-88214285D01*
X55859580Y-88214285D02*
X55764342Y-88261904D01*
X55764342Y-88261904D02*
X55573866Y-88309523D01*
X55573866Y-88309523D02*
X55335771Y-88309523D01*
X55335771Y-88309523D02*
X55145295Y-88261904D01*
X55145295Y-88261904D02*
X55050057Y-88214285D01*
X55050057Y-88214285D02*
X55002438Y-88166666D01*
X55002438Y-88166666D02*
X54954819Y-88071428D01*
X49954819Y-89166666D02*
X49478628Y-89499999D01*
X49954819Y-89738094D02*
X48954819Y-89738094D01*
X48954819Y-89738094D02*
X48954819Y-89357142D01*
X48954819Y-89357142D02*
X49002438Y-89261904D01*
X49002438Y-89261904D02*
X49050057Y-89214285D01*
X49050057Y-89214285D02*
X49145295Y-89166666D01*
X49145295Y-89166666D02*
X49288152Y-89166666D01*
X49288152Y-89166666D02*
X49383390Y-89214285D01*
X49383390Y-89214285D02*
X49431009Y-89261904D01*
X49431009Y-89261904D02*
X49478628Y-89357142D01*
X49478628Y-89357142D02*
X49478628Y-89738094D01*
X49954819Y-88690475D02*
X49954819Y-88499999D01*
X49954819Y-88499999D02*
X49907200Y-88404761D01*
X49907200Y-88404761D02*
X49859580Y-88357142D01*
X49859580Y-88357142D02*
X49716723Y-88261904D01*
X49716723Y-88261904D02*
X49526247Y-88214285D01*
X49526247Y-88214285D02*
X49145295Y-88214285D01*
X49145295Y-88214285D02*
X49050057Y-88261904D01*
X49050057Y-88261904D02*
X49002438Y-88309523D01*
X49002438Y-88309523D02*
X48954819Y-88404761D01*
X48954819Y-88404761D02*
X48954819Y-88595237D01*
X48954819Y-88595237D02*
X49002438Y-88690475D01*
X49002438Y-88690475D02*
X49050057Y-88738094D01*
X49050057Y-88738094D02*
X49145295Y-88785713D01*
X49145295Y-88785713D02*
X49383390Y-88785713D01*
X49383390Y-88785713D02*
X49478628Y-88738094D01*
X49478628Y-88738094D02*
X49526247Y-88690475D01*
X49526247Y-88690475D02*
X49573866Y-88595237D01*
X49573866Y-88595237D02*
X49573866Y-88404761D01*
X49573866Y-88404761D02*
X49526247Y-88309523D01*
X49526247Y-88309523D02*
X49478628Y-88261904D01*
X49478628Y-88261904D02*
X49383390Y-88214285D01*
X54954819Y-64166666D02*
X54478628Y-64499999D01*
X54954819Y-64738094D02*
X53954819Y-64738094D01*
X53954819Y-64738094D02*
X53954819Y-64357142D01*
X53954819Y-64357142D02*
X54002438Y-64261904D01*
X54002438Y-64261904D02*
X54050057Y-64214285D01*
X54050057Y-64214285D02*
X54145295Y-64166666D01*
X54145295Y-64166666D02*
X54288152Y-64166666D01*
X54288152Y-64166666D02*
X54383390Y-64214285D01*
X54383390Y-64214285D02*
X54431009Y-64261904D01*
X54431009Y-64261904D02*
X54478628Y-64357142D01*
X54478628Y-64357142D02*
X54478628Y-64738094D01*
X54383390Y-63595237D02*
X54335771Y-63690475D01*
X54335771Y-63690475D02*
X54288152Y-63738094D01*
X54288152Y-63738094D02*
X54192914Y-63785713D01*
X54192914Y-63785713D02*
X54145295Y-63785713D01*
X54145295Y-63785713D02*
X54050057Y-63738094D01*
X54050057Y-63738094D02*
X54002438Y-63690475D01*
X54002438Y-63690475D02*
X53954819Y-63595237D01*
X53954819Y-63595237D02*
X53954819Y-63404761D01*
X53954819Y-63404761D02*
X54002438Y-63309523D01*
X54002438Y-63309523D02*
X54050057Y-63261904D01*
X54050057Y-63261904D02*
X54145295Y-63214285D01*
X54145295Y-63214285D02*
X54192914Y-63214285D01*
X54192914Y-63214285D02*
X54288152Y-63261904D01*
X54288152Y-63261904D02*
X54335771Y-63309523D01*
X54335771Y-63309523D02*
X54383390Y-63404761D01*
X54383390Y-63404761D02*
X54383390Y-63595237D01*
X54383390Y-63595237D02*
X54431009Y-63690475D01*
X54431009Y-63690475D02*
X54478628Y-63738094D01*
X54478628Y-63738094D02*
X54573866Y-63785713D01*
X54573866Y-63785713D02*
X54764342Y-63785713D01*
X54764342Y-63785713D02*
X54859580Y-63738094D01*
X54859580Y-63738094D02*
X54907200Y-63690475D01*
X54907200Y-63690475D02*
X54954819Y-63595237D01*
X54954819Y-63595237D02*
X54954819Y-63404761D01*
X54954819Y-63404761D02*
X54907200Y-63309523D01*
X54907200Y-63309523D02*
X54859580Y-63261904D01*
X54859580Y-63261904D02*
X54764342Y-63214285D01*
X54764342Y-63214285D02*
X54573866Y-63214285D01*
X54573866Y-63214285D02*
X54478628Y-63261904D01*
X54478628Y-63261904D02*
X54431009Y-63309523D01*
X54431009Y-63309523D02*
X54383390Y-63404761D01*
X54954819Y-67916666D02*
X54478628Y-68249999D01*
X54954819Y-68488094D02*
X53954819Y-68488094D01*
X53954819Y-68488094D02*
X53954819Y-68107142D01*
X53954819Y-68107142D02*
X54002438Y-68011904D01*
X54002438Y-68011904D02*
X54050057Y-67964285D01*
X54050057Y-67964285D02*
X54145295Y-67916666D01*
X54145295Y-67916666D02*
X54288152Y-67916666D01*
X54288152Y-67916666D02*
X54383390Y-67964285D01*
X54383390Y-67964285D02*
X54431009Y-68011904D01*
X54431009Y-68011904D02*
X54478628Y-68107142D01*
X54478628Y-68107142D02*
X54478628Y-68488094D01*
X53954819Y-67583332D02*
X53954819Y-66916666D01*
X53954819Y-66916666D02*
X54954819Y-67345237D01*
X56954819Y-91666666D02*
X56478628Y-91999999D01*
X56954819Y-92238094D02*
X55954819Y-92238094D01*
X55954819Y-92238094D02*
X55954819Y-91857142D01*
X55954819Y-91857142D02*
X56002438Y-91761904D01*
X56002438Y-91761904D02*
X56050057Y-91714285D01*
X56050057Y-91714285D02*
X56145295Y-91666666D01*
X56145295Y-91666666D02*
X56288152Y-91666666D01*
X56288152Y-91666666D02*
X56383390Y-91714285D01*
X56383390Y-91714285D02*
X56431009Y-91761904D01*
X56431009Y-91761904D02*
X56478628Y-91857142D01*
X56478628Y-91857142D02*
X56478628Y-92238094D01*
X55954819Y-90809523D02*
X55954819Y-90999999D01*
X55954819Y-90999999D02*
X56002438Y-91095237D01*
X56002438Y-91095237D02*
X56050057Y-91142856D01*
X56050057Y-91142856D02*
X56192914Y-91238094D01*
X56192914Y-91238094D02*
X56383390Y-91285713D01*
X56383390Y-91285713D02*
X56764342Y-91285713D01*
X56764342Y-91285713D02*
X56859580Y-91238094D01*
X56859580Y-91238094D02*
X56907200Y-91190475D01*
X56907200Y-91190475D02*
X56954819Y-91095237D01*
X56954819Y-91095237D02*
X56954819Y-90904761D01*
X56954819Y-90904761D02*
X56907200Y-90809523D01*
X56907200Y-90809523D02*
X56859580Y-90761904D01*
X56859580Y-90761904D02*
X56764342Y-90714285D01*
X56764342Y-90714285D02*
X56526247Y-90714285D01*
X56526247Y-90714285D02*
X56431009Y-90761904D01*
X56431009Y-90761904D02*
X56383390Y-90809523D01*
X56383390Y-90809523D02*
X56335771Y-90904761D01*
X56335771Y-90904761D02*
X56335771Y-91095237D01*
X56335771Y-91095237D02*
X56383390Y-91190475D01*
X56383390Y-91190475D02*
X56431009Y-91238094D01*
X56431009Y-91238094D02*
X56526247Y-91285713D01*
X48905519Y-64175166D02*
X48429328Y-64508499D01*
X48905519Y-64746594D02*
X47905519Y-64746594D01*
X47905519Y-64746594D02*
X47905519Y-64365642D01*
X47905519Y-64365642D02*
X47953138Y-64270404D01*
X47953138Y-64270404D02*
X48000757Y-64222785D01*
X48000757Y-64222785D02*
X48095995Y-64175166D01*
X48095995Y-64175166D02*
X48238852Y-64175166D01*
X48238852Y-64175166D02*
X48334090Y-64222785D01*
X48334090Y-64222785D02*
X48381709Y-64270404D01*
X48381709Y-64270404D02*
X48429328Y-64365642D01*
X48429328Y-64365642D02*
X48429328Y-64746594D01*
X48238852Y-63318023D02*
X48905519Y-63318023D01*
X47857900Y-63556118D02*
X48572185Y-63794213D01*
X48572185Y-63794213D02*
X48572185Y-63175166D01*
X63954819Y-96666666D02*
X63478628Y-96999999D01*
X63954819Y-97238094D02*
X62954819Y-97238094D01*
X62954819Y-97238094D02*
X62954819Y-96857142D01*
X62954819Y-96857142D02*
X63002438Y-96761904D01*
X63002438Y-96761904D02*
X63050057Y-96714285D01*
X63050057Y-96714285D02*
X63145295Y-96666666D01*
X63145295Y-96666666D02*
X63288152Y-96666666D01*
X63288152Y-96666666D02*
X63383390Y-96714285D01*
X63383390Y-96714285D02*
X63431009Y-96761904D01*
X63431009Y-96761904D02*
X63478628Y-96857142D01*
X63478628Y-96857142D02*
X63478628Y-97238094D01*
X62954819Y-96333332D02*
X62954819Y-95714285D01*
X62954819Y-95714285D02*
X63335771Y-96047618D01*
X63335771Y-96047618D02*
X63335771Y-95904761D01*
X63335771Y-95904761D02*
X63383390Y-95809523D01*
X63383390Y-95809523D02*
X63431009Y-95761904D01*
X63431009Y-95761904D02*
X63526247Y-95714285D01*
X63526247Y-95714285D02*
X63764342Y-95714285D01*
X63764342Y-95714285D02*
X63859580Y-95761904D01*
X63859580Y-95761904D02*
X63907200Y-95809523D01*
X63907200Y-95809523D02*
X63954819Y-95904761D01*
X63954819Y-95904761D02*
X63954819Y-96190475D01*
X63954819Y-96190475D02*
X63907200Y-96285713D01*
X63907200Y-96285713D02*
X63859580Y-96333332D01*
X36954819Y-81916666D02*
X36478628Y-82249999D01*
X36954819Y-82488094D02*
X35954819Y-82488094D01*
X35954819Y-82488094D02*
X35954819Y-82107142D01*
X35954819Y-82107142D02*
X36002438Y-82011904D01*
X36002438Y-82011904D02*
X36050057Y-81964285D01*
X36050057Y-81964285D02*
X36145295Y-81916666D01*
X36145295Y-81916666D02*
X36288152Y-81916666D01*
X36288152Y-81916666D02*
X36383390Y-81964285D01*
X36383390Y-81964285D02*
X36431009Y-82011904D01*
X36431009Y-82011904D02*
X36478628Y-82107142D01*
X36478628Y-82107142D02*
X36478628Y-82488094D01*
X36954819Y-80964285D02*
X36954819Y-81535713D01*
X36954819Y-81249999D02*
X35954819Y-81249999D01*
X35954819Y-81249999D02*
X36097676Y-81345237D01*
X36097676Y-81345237D02*
X36192914Y-81440475D01*
X36192914Y-81440475D02*
X36240533Y-81535713D01*
X70904761Y-94550057D02*
X70809523Y-94502438D01*
X70809523Y-94502438D02*
X70714285Y-94407200D01*
X70714285Y-94407200D02*
X70571428Y-94264342D01*
X70571428Y-94264342D02*
X70476190Y-94216723D01*
X70476190Y-94216723D02*
X70380952Y-94216723D01*
X70428571Y-94454819D02*
X70333333Y-94407200D01*
X70333333Y-94407200D02*
X70238095Y-94311961D01*
X70238095Y-94311961D02*
X70190476Y-94121485D01*
X70190476Y-94121485D02*
X70190476Y-93788152D01*
X70190476Y-93788152D02*
X70238095Y-93597676D01*
X70238095Y-93597676D02*
X70333333Y-93502438D01*
X70333333Y-93502438D02*
X70428571Y-93454819D01*
X70428571Y-93454819D02*
X70619047Y-93454819D01*
X70619047Y-93454819D02*
X70714285Y-93502438D01*
X70714285Y-93502438D02*
X70809523Y-93597676D01*
X70809523Y-93597676D02*
X70857142Y-93788152D01*
X70857142Y-93788152D02*
X70857142Y-94121485D01*
X70857142Y-94121485D02*
X70809523Y-94311961D01*
X70809523Y-94311961D02*
X70714285Y-94407200D01*
X70714285Y-94407200D02*
X70619047Y-94454819D01*
X70619047Y-94454819D02*
X70428571Y-94454819D01*
X71238095Y-93550057D02*
X71285714Y-93502438D01*
X71285714Y-93502438D02*
X71380952Y-93454819D01*
X71380952Y-93454819D02*
X71619047Y-93454819D01*
X71619047Y-93454819D02*
X71714285Y-93502438D01*
X71714285Y-93502438D02*
X71761904Y-93550057D01*
X71761904Y-93550057D02*
X71809523Y-93645295D01*
X71809523Y-93645295D02*
X71809523Y-93740533D01*
X71809523Y-93740533D02*
X71761904Y-93883390D01*
X71761904Y-93883390D02*
X71190476Y-94454819D01*
X71190476Y-94454819D02*
X71809523Y-94454819D01*
X57050057Y-68095238D02*
X57002438Y-68190476D01*
X57002438Y-68190476D02*
X56907200Y-68285714D01*
X56907200Y-68285714D02*
X56764342Y-68428571D01*
X56764342Y-68428571D02*
X56716723Y-68523809D01*
X56716723Y-68523809D02*
X56716723Y-68619047D01*
X56954819Y-68571428D02*
X56907200Y-68666666D01*
X56907200Y-68666666D02*
X56811961Y-68761904D01*
X56811961Y-68761904D02*
X56621485Y-68809523D01*
X56621485Y-68809523D02*
X56288152Y-68809523D01*
X56288152Y-68809523D02*
X56097676Y-68761904D01*
X56097676Y-68761904D02*
X56002438Y-68666666D01*
X56002438Y-68666666D02*
X55954819Y-68571428D01*
X55954819Y-68571428D02*
X55954819Y-68380952D01*
X55954819Y-68380952D02*
X56002438Y-68285714D01*
X56002438Y-68285714D02*
X56097676Y-68190476D01*
X56097676Y-68190476D02*
X56288152Y-68142857D01*
X56288152Y-68142857D02*
X56621485Y-68142857D01*
X56621485Y-68142857D02*
X56811961Y-68190476D01*
X56811961Y-68190476D02*
X56907200Y-68285714D01*
X56907200Y-68285714D02*
X56954819Y-68380952D01*
X56954819Y-68380952D02*
X56954819Y-68571428D01*
X56954819Y-67190476D02*
X56954819Y-67761904D01*
X56954819Y-67476190D02*
X55954819Y-67476190D01*
X55954819Y-67476190D02*
X56097676Y-67571428D01*
X56097676Y-67571428D02*
X56192914Y-67666666D01*
X56192914Y-67666666D02*
X56240533Y-67761904D01*
X59630952Y-81954819D02*
X59154762Y-81954819D01*
X59154762Y-81954819D02*
X59154762Y-80954819D01*
X59964286Y-81431009D02*
X60297619Y-81431009D01*
X60440476Y-81954819D02*
X59964286Y-81954819D01*
X59964286Y-81954819D02*
X59964286Y-80954819D01*
X59964286Y-80954819D02*
X60440476Y-80954819D01*
X60869048Y-81954819D02*
X60869048Y-80954819D01*
X60869048Y-80954819D02*
X61107143Y-80954819D01*
X61107143Y-80954819D02*
X61250000Y-81002438D01*
X61250000Y-81002438D02*
X61345238Y-81097676D01*
X61345238Y-81097676D02*
X61392857Y-81192914D01*
X61392857Y-81192914D02*
X61440476Y-81383390D01*
X61440476Y-81383390D02*
X61440476Y-81526247D01*
X61440476Y-81526247D02*
X61392857Y-81716723D01*
X61392857Y-81716723D02*
X61345238Y-81811961D01*
X61345238Y-81811961D02*
X61250000Y-81907200D01*
X61250000Y-81907200D02*
X61107143Y-81954819D01*
X61107143Y-81954819D02*
X60869048Y-81954819D01*
X61821429Y-81050057D02*
X61869048Y-81002438D01*
X61869048Y-81002438D02*
X61964286Y-80954819D01*
X61964286Y-80954819D02*
X62202381Y-80954819D01*
X62202381Y-80954819D02*
X62297619Y-81002438D01*
X62297619Y-81002438D02*
X62345238Y-81050057D01*
X62345238Y-81050057D02*
X62392857Y-81145295D01*
X62392857Y-81145295D02*
X62392857Y-81240533D01*
X62392857Y-81240533D02*
X62345238Y-81383390D01*
X62345238Y-81383390D02*
X61773810Y-81954819D01*
X61773810Y-81954819D02*
X62392857Y-81954819D01*
X67454819Y-92619047D02*
X67454819Y-93095237D01*
X67454819Y-93095237D02*
X66454819Y-93095237D01*
X66931009Y-92285713D02*
X66931009Y-91952380D01*
X67454819Y-91809523D02*
X67454819Y-92285713D01*
X67454819Y-92285713D02*
X66454819Y-92285713D01*
X66454819Y-92285713D02*
X66454819Y-91809523D01*
X67454819Y-91380951D02*
X66454819Y-91380951D01*
X66454819Y-91380951D02*
X66454819Y-91142856D01*
X66454819Y-91142856D02*
X66502438Y-90999999D01*
X66502438Y-90999999D02*
X66597676Y-90904761D01*
X66597676Y-90904761D02*
X66692914Y-90857142D01*
X66692914Y-90857142D02*
X66883390Y-90809523D01*
X66883390Y-90809523D02*
X67026247Y-90809523D01*
X67026247Y-90809523D02*
X67216723Y-90857142D01*
X67216723Y-90857142D02*
X67311961Y-90904761D01*
X67311961Y-90904761D02*
X67407200Y-90999999D01*
X67407200Y-90999999D02*
X67454819Y-91142856D01*
X67454819Y-91142856D02*
X67454819Y-91380951D01*
X67454819Y-89857142D02*
X67454819Y-90428570D01*
X67454819Y-90142856D02*
X66454819Y-90142856D01*
X66454819Y-90142856D02*
X66597676Y-90238094D01*
X66597676Y-90238094D02*
X66692914Y-90333332D01*
X66692914Y-90333332D02*
X66740533Y-90428570D01*
D12*
X66963855Y-56266666D02*
X67535283Y-56266666D01*
X67535283Y-56266666D02*
X67649569Y-56304761D01*
X67649569Y-56304761D02*
X67725760Y-56380952D01*
X67725760Y-56380952D02*
X67763855Y-56495237D01*
X67763855Y-56495237D02*
X67763855Y-56571428D01*
X67040045Y-55923809D02*
X67001950Y-55885713D01*
X67001950Y-55885713D02*
X66963855Y-55809523D01*
X66963855Y-55809523D02*
X66963855Y-55619047D01*
X66963855Y-55619047D02*
X67001950Y-55542856D01*
X67001950Y-55542856D02*
X67040045Y-55504761D01*
X67040045Y-55504761D02*
X67116236Y-55466666D01*
X67116236Y-55466666D02*
X67192426Y-55466666D01*
X67192426Y-55466666D02*
X67306712Y-55504761D01*
X67306712Y-55504761D02*
X67763855Y-55961904D01*
X67763855Y-55961904D02*
X67763855Y-55466666D01*
D10*
X40166666Y-92304819D02*
X40166666Y-93019104D01*
X40166666Y-93019104D02*
X40119047Y-93161961D01*
X40119047Y-93161961D02*
X40023809Y-93257200D01*
X40023809Y-93257200D02*
X39880952Y-93304819D01*
X39880952Y-93304819D02*
X39785714Y-93304819D01*
X41166666Y-93304819D02*
X40595238Y-93304819D01*
X40880952Y-93304819D02*
X40880952Y-92304819D01*
X40880952Y-92304819D02*
X40785714Y-92447676D01*
X40785714Y-92447676D02*
X40690476Y-92542914D01*
X40690476Y-92542914D02*
X40595238Y-92590533D01*
X51761905Y-84304819D02*
X51761905Y-83304819D01*
X51761905Y-83304819D02*
X52000000Y-83304819D01*
X52000000Y-83304819D02*
X52142857Y-83352438D01*
X52142857Y-83352438D02*
X52238095Y-83447676D01*
X52238095Y-83447676D02*
X52285714Y-83542914D01*
X52285714Y-83542914D02*
X52333333Y-83733390D01*
X52333333Y-83733390D02*
X52333333Y-83876247D01*
X52333333Y-83876247D02*
X52285714Y-84066723D01*
X52285714Y-84066723D02*
X52238095Y-84161961D01*
X52238095Y-84161961D02*
X52142857Y-84257200D01*
X52142857Y-84257200D02*
X52000000Y-84304819D01*
X52000000Y-84304819D02*
X51761905Y-84304819D01*
X53285714Y-84304819D02*
X52714286Y-84304819D01*
X53000000Y-84304819D02*
X53000000Y-83304819D01*
X53000000Y-83304819D02*
X52904762Y-83447676D01*
X52904762Y-83447676D02*
X52809524Y-83542914D01*
X52809524Y-83542914D02*
X52714286Y-83590533D01*
X69359580Y-67142857D02*
X69407200Y-67190476D01*
X69407200Y-67190476D02*
X69454819Y-67333333D01*
X69454819Y-67333333D02*
X69454819Y-67428571D01*
X69454819Y-67428571D02*
X69407200Y-67571428D01*
X69407200Y-67571428D02*
X69311961Y-67666666D01*
X69311961Y-67666666D02*
X69216723Y-67714285D01*
X69216723Y-67714285D02*
X69026247Y-67761904D01*
X69026247Y-67761904D02*
X68883390Y-67761904D01*
X68883390Y-67761904D02*
X68692914Y-67714285D01*
X68692914Y-67714285D02*
X68597676Y-67666666D01*
X68597676Y-67666666D02*
X68502438Y-67571428D01*
X68502438Y-67571428D02*
X68454819Y-67428571D01*
X68454819Y-67428571D02*
X68454819Y-67333333D01*
X68454819Y-67333333D02*
X68502438Y-67190476D01*
X68502438Y-67190476D02*
X68550057Y-67142857D01*
X69454819Y-66190476D02*
X69454819Y-66761904D01*
X69454819Y-66476190D02*
X68454819Y-66476190D01*
X68454819Y-66476190D02*
X68597676Y-66571428D01*
X68597676Y-66571428D02*
X68692914Y-66666666D01*
X68692914Y-66666666D02*
X68740533Y-66761904D01*
X68788152Y-65333333D02*
X69454819Y-65333333D01*
X68407200Y-65571428D02*
X69121485Y-65809523D01*
X69121485Y-65809523D02*
X69121485Y-65190476D01*
X59157142Y-73359580D02*
X59109523Y-73407200D01*
X59109523Y-73407200D02*
X58966666Y-73454819D01*
X58966666Y-73454819D02*
X58871428Y-73454819D01*
X58871428Y-73454819D02*
X58728571Y-73407200D01*
X58728571Y-73407200D02*
X58633333Y-73311961D01*
X58633333Y-73311961D02*
X58585714Y-73216723D01*
X58585714Y-73216723D02*
X58538095Y-73026247D01*
X58538095Y-73026247D02*
X58538095Y-72883390D01*
X58538095Y-72883390D02*
X58585714Y-72692914D01*
X58585714Y-72692914D02*
X58633333Y-72597676D01*
X58633333Y-72597676D02*
X58728571Y-72502438D01*
X58728571Y-72502438D02*
X58871428Y-72454819D01*
X58871428Y-72454819D02*
X58966666Y-72454819D01*
X58966666Y-72454819D02*
X59109523Y-72502438D01*
X59109523Y-72502438D02*
X59157142Y-72550057D01*
X60109523Y-73454819D02*
X59538095Y-73454819D01*
X59823809Y-73454819D02*
X59823809Y-72454819D01*
X59823809Y-72454819D02*
X59728571Y-72597676D01*
X59728571Y-72597676D02*
X59633333Y-72692914D01*
X59633333Y-72692914D02*
X59538095Y-72740533D01*
X60442857Y-72454819D02*
X61061904Y-72454819D01*
X61061904Y-72454819D02*
X60728571Y-72835771D01*
X60728571Y-72835771D02*
X60871428Y-72835771D01*
X60871428Y-72835771D02*
X60966666Y-72883390D01*
X60966666Y-72883390D02*
X61014285Y-72931009D01*
X61014285Y-72931009D02*
X61061904Y-73026247D01*
X61061904Y-73026247D02*
X61061904Y-73264342D01*
X61061904Y-73264342D02*
X61014285Y-73359580D01*
X61014285Y-73359580D02*
X60966666Y-73407200D01*
X60966666Y-73407200D02*
X60871428Y-73454819D01*
X60871428Y-73454819D02*
X60585714Y-73454819D01*
X60585714Y-73454819D02*
X60490476Y-73407200D01*
X60490476Y-73407200D02*
X60442857Y-73359580D01*
X38157142Y-74859580D02*
X38109523Y-74907200D01*
X38109523Y-74907200D02*
X37966666Y-74954819D01*
X37966666Y-74954819D02*
X37871428Y-74954819D01*
X37871428Y-74954819D02*
X37728571Y-74907200D01*
X37728571Y-74907200D02*
X37633333Y-74811961D01*
X37633333Y-74811961D02*
X37585714Y-74716723D01*
X37585714Y-74716723D02*
X37538095Y-74526247D01*
X37538095Y-74526247D02*
X37538095Y-74383390D01*
X37538095Y-74383390D02*
X37585714Y-74192914D01*
X37585714Y-74192914D02*
X37633333Y-74097676D01*
X37633333Y-74097676D02*
X37728571Y-74002438D01*
X37728571Y-74002438D02*
X37871428Y-73954819D01*
X37871428Y-73954819D02*
X37966666Y-73954819D01*
X37966666Y-73954819D02*
X38109523Y-74002438D01*
X38109523Y-74002438D02*
X38157142Y-74050057D01*
X39109523Y-74954819D02*
X38538095Y-74954819D01*
X38823809Y-74954819D02*
X38823809Y-73954819D01*
X38823809Y-73954819D02*
X38728571Y-74097676D01*
X38728571Y-74097676D02*
X38633333Y-74192914D01*
X38633333Y-74192914D02*
X38538095Y-74240533D01*
X39490476Y-74050057D02*
X39538095Y-74002438D01*
X39538095Y-74002438D02*
X39633333Y-73954819D01*
X39633333Y-73954819D02*
X39871428Y-73954819D01*
X39871428Y-73954819D02*
X39966666Y-74002438D01*
X39966666Y-74002438D02*
X40014285Y-74050057D01*
X40014285Y-74050057D02*
X40061904Y-74145295D01*
X40061904Y-74145295D02*
X40061904Y-74240533D01*
X40061904Y-74240533D02*
X40014285Y-74383390D01*
X40014285Y-74383390D02*
X39442857Y-74954819D01*
X39442857Y-74954819D02*
X40061904Y-74954819D01*
X38157142Y-72859580D02*
X38109523Y-72907200D01*
X38109523Y-72907200D02*
X37966666Y-72954819D01*
X37966666Y-72954819D02*
X37871428Y-72954819D01*
X37871428Y-72954819D02*
X37728571Y-72907200D01*
X37728571Y-72907200D02*
X37633333Y-72811961D01*
X37633333Y-72811961D02*
X37585714Y-72716723D01*
X37585714Y-72716723D02*
X37538095Y-72526247D01*
X37538095Y-72526247D02*
X37538095Y-72383390D01*
X37538095Y-72383390D02*
X37585714Y-72192914D01*
X37585714Y-72192914D02*
X37633333Y-72097676D01*
X37633333Y-72097676D02*
X37728571Y-72002438D01*
X37728571Y-72002438D02*
X37871428Y-71954819D01*
X37871428Y-71954819D02*
X37966666Y-71954819D01*
X37966666Y-71954819D02*
X38109523Y-72002438D01*
X38109523Y-72002438D02*
X38157142Y-72050057D01*
X39109523Y-72954819D02*
X38538095Y-72954819D01*
X38823809Y-72954819D02*
X38823809Y-71954819D01*
X38823809Y-71954819D02*
X38728571Y-72097676D01*
X38728571Y-72097676D02*
X38633333Y-72192914D01*
X38633333Y-72192914D02*
X38538095Y-72240533D01*
X40061904Y-72954819D02*
X39490476Y-72954819D01*
X39776190Y-72954819D02*
X39776190Y-71954819D01*
X39776190Y-71954819D02*
X39680952Y-72097676D01*
X39680952Y-72097676D02*
X39585714Y-72192914D01*
X39585714Y-72192914D02*
X39490476Y-72240533D01*
X38157142Y-70859580D02*
X38109523Y-70907200D01*
X38109523Y-70907200D02*
X37966666Y-70954819D01*
X37966666Y-70954819D02*
X37871428Y-70954819D01*
X37871428Y-70954819D02*
X37728571Y-70907200D01*
X37728571Y-70907200D02*
X37633333Y-70811961D01*
X37633333Y-70811961D02*
X37585714Y-70716723D01*
X37585714Y-70716723D02*
X37538095Y-70526247D01*
X37538095Y-70526247D02*
X37538095Y-70383390D01*
X37538095Y-70383390D02*
X37585714Y-70192914D01*
X37585714Y-70192914D02*
X37633333Y-70097676D01*
X37633333Y-70097676D02*
X37728571Y-70002438D01*
X37728571Y-70002438D02*
X37871428Y-69954819D01*
X37871428Y-69954819D02*
X37966666Y-69954819D01*
X37966666Y-69954819D02*
X38109523Y-70002438D01*
X38109523Y-70002438D02*
X38157142Y-70050057D01*
X39109523Y-70954819D02*
X38538095Y-70954819D01*
X38823809Y-70954819D02*
X38823809Y-69954819D01*
X38823809Y-69954819D02*
X38728571Y-70097676D01*
X38728571Y-70097676D02*
X38633333Y-70192914D01*
X38633333Y-70192914D02*
X38538095Y-70240533D01*
X39728571Y-69954819D02*
X39823809Y-69954819D01*
X39823809Y-69954819D02*
X39919047Y-70002438D01*
X39919047Y-70002438D02*
X39966666Y-70050057D01*
X39966666Y-70050057D02*
X40014285Y-70145295D01*
X40014285Y-70145295D02*
X40061904Y-70335771D01*
X40061904Y-70335771D02*
X40061904Y-70573866D01*
X40061904Y-70573866D02*
X40014285Y-70764342D01*
X40014285Y-70764342D02*
X39966666Y-70859580D01*
X39966666Y-70859580D02*
X39919047Y-70907200D01*
X39919047Y-70907200D02*
X39823809Y-70954819D01*
X39823809Y-70954819D02*
X39728571Y-70954819D01*
X39728571Y-70954819D02*
X39633333Y-70907200D01*
X39633333Y-70907200D02*
X39585714Y-70859580D01*
X39585714Y-70859580D02*
X39538095Y-70764342D01*
X39538095Y-70764342D02*
X39490476Y-70573866D01*
X39490476Y-70573866D02*
X39490476Y-70335771D01*
X39490476Y-70335771D02*
X39538095Y-70145295D01*
X39538095Y-70145295D02*
X39585714Y-70050057D01*
X39585714Y-70050057D02*
X39633333Y-70002438D01*
X39633333Y-70002438D02*
X39728571Y-69954819D01*
X38633333Y-68859580D02*
X38585714Y-68907200D01*
X38585714Y-68907200D02*
X38442857Y-68954819D01*
X38442857Y-68954819D02*
X38347619Y-68954819D01*
X38347619Y-68954819D02*
X38204762Y-68907200D01*
X38204762Y-68907200D02*
X38109524Y-68811961D01*
X38109524Y-68811961D02*
X38061905Y-68716723D01*
X38061905Y-68716723D02*
X38014286Y-68526247D01*
X38014286Y-68526247D02*
X38014286Y-68383390D01*
X38014286Y-68383390D02*
X38061905Y-68192914D01*
X38061905Y-68192914D02*
X38109524Y-68097676D01*
X38109524Y-68097676D02*
X38204762Y-68002438D01*
X38204762Y-68002438D02*
X38347619Y-67954819D01*
X38347619Y-67954819D02*
X38442857Y-67954819D01*
X38442857Y-67954819D02*
X38585714Y-68002438D01*
X38585714Y-68002438D02*
X38633333Y-68050057D01*
X39109524Y-68954819D02*
X39300000Y-68954819D01*
X39300000Y-68954819D02*
X39395238Y-68907200D01*
X39395238Y-68907200D02*
X39442857Y-68859580D01*
X39442857Y-68859580D02*
X39538095Y-68716723D01*
X39538095Y-68716723D02*
X39585714Y-68526247D01*
X39585714Y-68526247D02*
X39585714Y-68145295D01*
X39585714Y-68145295D02*
X39538095Y-68050057D01*
X39538095Y-68050057D02*
X39490476Y-68002438D01*
X39490476Y-68002438D02*
X39395238Y-67954819D01*
X39395238Y-67954819D02*
X39204762Y-67954819D01*
X39204762Y-67954819D02*
X39109524Y-68002438D01*
X39109524Y-68002438D02*
X39061905Y-68050057D01*
X39061905Y-68050057D02*
X39014286Y-68145295D01*
X39014286Y-68145295D02*
X39014286Y-68383390D01*
X39014286Y-68383390D02*
X39061905Y-68478628D01*
X39061905Y-68478628D02*
X39109524Y-68526247D01*
X39109524Y-68526247D02*
X39204762Y-68573866D01*
X39204762Y-68573866D02*
X39395238Y-68573866D01*
X39395238Y-68573866D02*
X39490476Y-68526247D01*
X39490476Y-68526247D02*
X39538095Y-68478628D01*
X39538095Y-68478628D02*
X39585714Y-68383390D01*
X56833333Y-84359580D02*
X56785714Y-84407200D01*
X56785714Y-84407200D02*
X56642857Y-84454819D01*
X56642857Y-84454819D02*
X56547619Y-84454819D01*
X56547619Y-84454819D02*
X56404762Y-84407200D01*
X56404762Y-84407200D02*
X56309524Y-84311961D01*
X56309524Y-84311961D02*
X56261905Y-84216723D01*
X56261905Y-84216723D02*
X56214286Y-84026247D01*
X56214286Y-84026247D02*
X56214286Y-83883390D01*
X56214286Y-83883390D02*
X56261905Y-83692914D01*
X56261905Y-83692914D02*
X56309524Y-83597676D01*
X56309524Y-83597676D02*
X56404762Y-83502438D01*
X56404762Y-83502438D02*
X56547619Y-83454819D01*
X56547619Y-83454819D02*
X56642857Y-83454819D01*
X56642857Y-83454819D02*
X56785714Y-83502438D01*
X56785714Y-83502438D02*
X56833333Y-83550057D01*
X57404762Y-83883390D02*
X57309524Y-83835771D01*
X57309524Y-83835771D02*
X57261905Y-83788152D01*
X57261905Y-83788152D02*
X57214286Y-83692914D01*
X57214286Y-83692914D02*
X57214286Y-83645295D01*
X57214286Y-83645295D02*
X57261905Y-83550057D01*
X57261905Y-83550057D02*
X57309524Y-83502438D01*
X57309524Y-83502438D02*
X57404762Y-83454819D01*
X57404762Y-83454819D02*
X57595238Y-83454819D01*
X57595238Y-83454819D02*
X57690476Y-83502438D01*
X57690476Y-83502438D02*
X57738095Y-83550057D01*
X57738095Y-83550057D02*
X57785714Y-83645295D01*
X57785714Y-83645295D02*
X57785714Y-83692914D01*
X57785714Y-83692914D02*
X57738095Y-83788152D01*
X57738095Y-83788152D02*
X57690476Y-83835771D01*
X57690476Y-83835771D02*
X57595238Y-83883390D01*
X57595238Y-83883390D02*
X57404762Y-83883390D01*
X57404762Y-83883390D02*
X57309524Y-83931009D01*
X57309524Y-83931009D02*
X57261905Y-83978628D01*
X57261905Y-83978628D02*
X57214286Y-84073866D01*
X57214286Y-84073866D02*
X57214286Y-84264342D01*
X57214286Y-84264342D02*
X57261905Y-84359580D01*
X57261905Y-84359580D02*
X57309524Y-84407200D01*
X57309524Y-84407200D02*
X57404762Y-84454819D01*
X57404762Y-84454819D02*
X57595238Y-84454819D01*
X57595238Y-84454819D02*
X57690476Y-84407200D01*
X57690476Y-84407200D02*
X57738095Y-84359580D01*
X57738095Y-84359580D02*
X57785714Y-84264342D01*
X57785714Y-84264342D02*
X57785714Y-84073866D01*
X57785714Y-84073866D02*
X57738095Y-83978628D01*
X57738095Y-83978628D02*
X57690476Y-83931009D01*
X57690476Y-83931009D02*
X57595238Y-83883390D01*
X59833333Y-77859580D02*
X59785714Y-77907200D01*
X59785714Y-77907200D02*
X59642857Y-77954819D01*
X59642857Y-77954819D02*
X59547619Y-77954819D01*
X59547619Y-77954819D02*
X59404762Y-77907200D01*
X59404762Y-77907200D02*
X59309524Y-77811961D01*
X59309524Y-77811961D02*
X59261905Y-77716723D01*
X59261905Y-77716723D02*
X59214286Y-77526247D01*
X59214286Y-77526247D02*
X59214286Y-77383390D01*
X59214286Y-77383390D02*
X59261905Y-77192914D01*
X59261905Y-77192914D02*
X59309524Y-77097676D01*
X59309524Y-77097676D02*
X59404762Y-77002438D01*
X59404762Y-77002438D02*
X59547619Y-76954819D01*
X59547619Y-76954819D02*
X59642857Y-76954819D01*
X59642857Y-76954819D02*
X59785714Y-77002438D01*
X59785714Y-77002438D02*
X59833333Y-77050057D01*
X60166667Y-76954819D02*
X60833333Y-76954819D01*
X60833333Y-76954819D02*
X60404762Y-77954819D01*
X38633333Y-66859580D02*
X38585714Y-66907200D01*
X38585714Y-66907200D02*
X38442857Y-66954819D01*
X38442857Y-66954819D02*
X38347619Y-66954819D01*
X38347619Y-66954819D02*
X38204762Y-66907200D01*
X38204762Y-66907200D02*
X38109524Y-66811961D01*
X38109524Y-66811961D02*
X38061905Y-66716723D01*
X38061905Y-66716723D02*
X38014286Y-66526247D01*
X38014286Y-66526247D02*
X38014286Y-66383390D01*
X38014286Y-66383390D02*
X38061905Y-66192914D01*
X38061905Y-66192914D02*
X38109524Y-66097676D01*
X38109524Y-66097676D02*
X38204762Y-66002438D01*
X38204762Y-66002438D02*
X38347619Y-65954819D01*
X38347619Y-65954819D02*
X38442857Y-65954819D01*
X38442857Y-65954819D02*
X38585714Y-66002438D01*
X38585714Y-66002438D02*
X38633333Y-66050057D01*
X39490476Y-65954819D02*
X39300000Y-65954819D01*
X39300000Y-65954819D02*
X39204762Y-66002438D01*
X39204762Y-66002438D02*
X39157143Y-66050057D01*
X39157143Y-66050057D02*
X39061905Y-66192914D01*
X39061905Y-66192914D02*
X39014286Y-66383390D01*
X39014286Y-66383390D02*
X39014286Y-66764342D01*
X39014286Y-66764342D02*
X39061905Y-66859580D01*
X39061905Y-66859580D02*
X39109524Y-66907200D01*
X39109524Y-66907200D02*
X39204762Y-66954819D01*
X39204762Y-66954819D02*
X39395238Y-66954819D01*
X39395238Y-66954819D02*
X39490476Y-66907200D01*
X39490476Y-66907200D02*
X39538095Y-66859580D01*
X39538095Y-66859580D02*
X39585714Y-66764342D01*
X39585714Y-66764342D02*
X39585714Y-66526247D01*
X39585714Y-66526247D02*
X39538095Y-66431009D01*
X39538095Y-66431009D02*
X39490476Y-66383390D01*
X39490476Y-66383390D02*
X39395238Y-66335771D01*
X39395238Y-66335771D02*
X39204762Y-66335771D01*
X39204762Y-66335771D02*
X39109524Y-66383390D01*
X39109524Y-66383390D02*
X39061905Y-66431009D01*
X39061905Y-66431009D02*
X39014286Y-66526247D01*
X52533333Y-78859580D02*
X52485714Y-78907200D01*
X52485714Y-78907200D02*
X52342857Y-78954819D01*
X52342857Y-78954819D02*
X52247619Y-78954819D01*
X52247619Y-78954819D02*
X52104762Y-78907200D01*
X52104762Y-78907200D02*
X52009524Y-78811961D01*
X52009524Y-78811961D02*
X51961905Y-78716723D01*
X51961905Y-78716723D02*
X51914286Y-78526247D01*
X51914286Y-78526247D02*
X51914286Y-78383390D01*
X51914286Y-78383390D02*
X51961905Y-78192914D01*
X51961905Y-78192914D02*
X52009524Y-78097676D01*
X52009524Y-78097676D02*
X52104762Y-78002438D01*
X52104762Y-78002438D02*
X52247619Y-77954819D01*
X52247619Y-77954819D02*
X52342857Y-77954819D01*
X52342857Y-77954819D02*
X52485714Y-78002438D01*
X52485714Y-78002438D02*
X52533333Y-78050057D01*
X53438095Y-77954819D02*
X52961905Y-77954819D01*
X52961905Y-77954819D02*
X52914286Y-78431009D01*
X52914286Y-78431009D02*
X52961905Y-78383390D01*
X52961905Y-78383390D02*
X53057143Y-78335771D01*
X53057143Y-78335771D02*
X53295238Y-78335771D01*
X53295238Y-78335771D02*
X53390476Y-78383390D01*
X53390476Y-78383390D02*
X53438095Y-78431009D01*
X53438095Y-78431009D02*
X53485714Y-78526247D01*
X53485714Y-78526247D02*
X53485714Y-78764342D01*
X53485714Y-78764342D02*
X53438095Y-78859580D01*
X53438095Y-78859580D02*
X53390476Y-78907200D01*
X53390476Y-78907200D02*
X53295238Y-78954819D01*
X53295238Y-78954819D02*
X53057143Y-78954819D01*
X53057143Y-78954819D02*
X52961905Y-78907200D01*
X52961905Y-78907200D02*
X52914286Y-78859580D01*
X57859580Y-47366666D02*
X57907200Y-47414285D01*
X57907200Y-47414285D02*
X57954819Y-47557142D01*
X57954819Y-47557142D02*
X57954819Y-47652380D01*
X57954819Y-47652380D02*
X57907200Y-47795237D01*
X57907200Y-47795237D02*
X57811961Y-47890475D01*
X57811961Y-47890475D02*
X57716723Y-47938094D01*
X57716723Y-47938094D02*
X57526247Y-47985713D01*
X57526247Y-47985713D02*
X57383390Y-47985713D01*
X57383390Y-47985713D02*
X57192914Y-47938094D01*
X57192914Y-47938094D02*
X57097676Y-47890475D01*
X57097676Y-47890475D02*
X57002438Y-47795237D01*
X57002438Y-47795237D02*
X56954819Y-47652380D01*
X56954819Y-47652380D02*
X56954819Y-47557142D01*
X56954819Y-47557142D02*
X57002438Y-47414285D01*
X57002438Y-47414285D02*
X57050057Y-47366666D01*
X57288152Y-46509523D02*
X57954819Y-46509523D01*
X56907200Y-46747618D02*
X57621485Y-46985713D01*
X57621485Y-46985713D02*
X57621485Y-46366666D01*
X59333333Y-70859580D02*
X59285714Y-70907200D01*
X59285714Y-70907200D02*
X59142857Y-70954819D01*
X59142857Y-70954819D02*
X59047619Y-70954819D01*
X59047619Y-70954819D02*
X58904762Y-70907200D01*
X58904762Y-70907200D02*
X58809524Y-70811961D01*
X58809524Y-70811961D02*
X58761905Y-70716723D01*
X58761905Y-70716723D02*
X58714286Y-70526247D01*
X58714286Y-70526247D02*
X58714286Y-70383390D01*
X58714286Y-70383390D02*
X58761905Y-70192914D01*
X58761905Y-70192914D02*
X58809524Y-70097676D01*
X58809524Y-70097676D02*
X58904762Y-70002438D01*
X58904762Y-70002438D02*
X59047619Y-69954819D01*
X59047619Y-69954819D02*
X59142857Y-69954819D01*
X59142857Y-69954819D02*
X59285714Y-70002438D01*
X59285714Y-70002438D02*
X59333333Y-70050057D01*
X59666667Y-69954819D02*
X60285714Y-69954819D01*
X60285714Y-69954819D02*
X59952381Y-70335771D01*
X59952381Y-70335771D02*
X60095238Y-70335771D01*
X60095238Y-70335771D02*
X60190476Y-70383390D01*
X60190476Y-70383390D02*
X60238095Y-70431009D01*
X60238095Y-70431009D02*
X60285714Y-70526247D01*
X60285714Y-70526247D02*
X60285714Y-70764342D01*
X60285714Y-70764342D02*
X60238095Y-70859580D01*
X60238095Y-70859580D02*
X60190476Y-70907200D01*
X60190476Y-70907200D02*
X60095238Y-70954819D01*
X60095238Y-70954819D02*
X59809524Y-70954819D01*
X59809524Y-70954819D02*
X59714286Y-70907200D01*
X59714286Y-70907200D02*
X59666667Y-70859580D01*
X37533333Y-88359580D02*
X37485714Y-88407200D01*
X37485714Y-88407200D02*
X37342857Y-88454819D01*
X37342857Y-88454819D02*
X37247619Y-88454819D01*
X37247619Y-88454819D02*
X37104762Y-88407200D01*
X37104762Y-88407200D02*
X37009524Y-88311961D01*
X37009524Y-88311961D02*
X36961905Y-88216723D01*
X36961905Y-88216723D02*
X36914286Y-88026247D01*
X36914286Y-88026247D02*
X36914286Y-87883390D01*
X36914286Y-87883390D02*
X36961905Y-87692914D01*
X36961905Y-87692914D02*
X37009524Y-87597676D01*
X37009524Y-87597676D02*
X37104762Y-87502438D01*
X37104762Y-87502438D02*
X37247619Y-87454819D01*
X37247619Y-87454819D02*
X37342857Y-87454819D01*
X37342857Y-87454819D02*
X37485714Y-87502438D01*
X37485714Y-87502438D02*
X37533333Y-87550057D01*
X37914286Y-87550057D02*
X37961905Y-87502438D01*
X37961905Y-87502438D02*
X38057143Y-87454819D01*
X38057143Y-87454819D02*
X38295238Y-87454819D01*
X38295238Y-87454819D02*
X38390476Y-87502438D01*
X38390476Y-87502438D02*
X38438095Y-87550057D01*
X38438095Y-87550057D02*
X38485714Y-87645295D01*
X38485714Y-87645295D02*
X38485714Y-87740533D01*
X38485714Y-87740533D02*
X38438095Y-87883390D01*
X38438095Y-87883390D02*
X37866667Y-88454819D01*
X37866667Y-88454819D02*
X38485714Y-88454819D01*
X42359580Y-86666666D02*
X42407200Y-86714285D01*
X42407200Y-86714285D02*
X42454819Y-86857142D01*
X42454819Y-86857142D02*
X42454819Y-86952380D01*
X42454819Y-86952380D02*
X42407200Y-87095237D01*
X42407200Y-87095237D02*
X42311961Y-87190475D01*
X42311961Y-87190475D02*
X42216723Y-87238094D01*
X42216723Y-87238094D02*
X42026247Y-87285713D01*
X42026247Y-87285713D02*
X41883390Y-87285713D01*
X41883390Y-87285713D02*
X41692914Y-87238094D01*
X41692914Y-87238094D02*
X41597676Y-87190475D01*
X41597676Y-87190475D02*
X41502438Y-87095237D01*
X41502438Y-87095237D02*
X41454819Y-86952380D01*
X41454819Y-86952380D02*
X41454819Y-86857142D01*
X41454819Y-86857142D02*
X41502438Y-86714285D01*
X41502438Y-86714285D02*
X41550057Y-86666666D01*
X42454819Y-85714285D02*
X42454819Y-86285713D01*
X42454819Y-85999999D02*
X41454819Y-85999999D01*
X41454819Y-85999999D02*
X41597676Y-86095237D01*
X41597676Y-86095237D02*
X41692914Y-86190475D01*
X41692914Y-86190475D02*
X41740533Y-86285713D01*
X50731009Y-74380952D02*
X50778628Y-74238095D01*
X50778628Y-74238095D02*
X50826247Y-74190476D01*
X50826247Y-74190476D02*
X50921485Y-74142857D01*
X50921485Y-74142857D02*
X51064342Y-74142857D01*
X51064342Y-74142857D02*
X51159580Y-74190476D01*
X51159580Y-74190476D02*
X51207200Y-74238095D01*
X51207200Y-74238095D02*
X51254819Y-74333333D01*
X51254819Y-74333333D02*
X51254819Y-74714285D01*
X51254819Y-74714285D02*
X50254819Y-74714285D01*
X50254819Y-74714285D02*
X50254819Y-74380952D01*
X50254819Y-74380952D02*
X50302438Y-74285714D01*
X50302438Y-74285714D02*
X50350057Y-74238095D01*
X50350057Y-74238095D02*
X50445295Y-74190476D01*
X50445295Y-74190476D02*
X50540533Y-74190476D01*
X50540533Y-74190476D02*
X50635771Y-74238095D01*
X50635771Y-74238095D02*
X50683390Y-74285714D01*
X50683390Y-74285714D02*
X50731009Y-74380952D01*
X50731009Y-74380952D02*
X50731009Y-74714285D01*
X50254819Y-73809523D02*
X50254819Y-73142857D01*
X50254819Y-73142857D02*
X51254819Y-73809523D01*
X51254819Y-73809523D02*
X51254819Y-73142857D01*
X51254819Y-72238095D02*
X51254819Y-72809523D01*
X51254819Y-72523809D02*
X50254819Y-72523809D01*
X50254819Y-72523809D02*
X50397676Y-72619047D01*
X50397676Y-72619047D02*
X50492914Y-72714285D01*
X50492914Y-72714285D02*
X50540533Y-72809523D01*
D12*
X52217260Y-75092857D02*
X52217260Y-74407143D01*
X52560117Y-74750000D02*
X51874402Y-74750000D01*
D10*
%TO.C,R2*%
X36820000Y-84340000D02*
X35860000Y-84340000D01*
X35860000Y-84340000D02*
X35860000Y-85660000D01*
X35860000Y-85660000D02*
X36820000Y-85660000D01*
X37680000Y-84340000D02*
X38640000Y-84340000D01*
X38640000Y-84340000D02*
X38640000Y-85660000D01*
X38640000Y-85660000D02*
X37680000Y-85660000D01*
D12*
%TO.C,SW1*%
X60200000Y-98050000D02*
X60200000Y-94950000D01*
X65800000Y-98050000D02*
X60200000Y-98050000D01*
X65800000Y-94950000D02*
X65800000Y-98050000D01*
X60200000Y-94950000D02*
X65800000Y-94950000D01*
D11*
%TO.C,U3*%
X53400000Y-81450000D02*
X51600000Y-81450000D01*
X53400000Y-84550000D02*
X51600000Y-84550000D01*
X53400000Y-84550000D02*
X53400000Y-84400000D01*
X53400000Y-83490000D02*
X53400000Y-82500000D01*
X53400000Y-81590000D02*
X53400000Y-81450000D01*
X51600000Y-84550000D02*
X51600000Y-84400000D01*
X51600000Y-83490000D02*
X51600000Y-83450000D01*
X51600000Y-82540000D02*
X51600000Y-82500000D01*
X51600000Y-81590000D02*
X51600000Y-81450000D01*
D10*
%TO.C,R5*%
X58210000Y-74340000D02*
X59170000Y-74340000D01*
X58210000Y-75660000D02*
X58210000Y-74340000D01*
X59170000Y-75660000D02*
X58210000Y-75660000D01*
X60990000Y-74340000D02*
X60030000Y-74340000D01*
X60990000Y-75660000D02*
X60990000Y-74340000D01*
X60030000Y-75660000D02*
X60990000Y-75660000D01*
D13*
%TO.C,USB1*%
X56720000Y-97120000D02*
X56720000Y-95320000D01*
X47780000Y-99350000D02*
X47780000Y-100860000D01*
X47780000Y-100860000D02*
X56720000Y-100860000D01*
X56720000Y-100860000D02*
X56720000Y-99350000D01*
X47780000Y-95320000D02*
X47780000Y-97120000D01*
D11*
%TO.C,U5*%
X34637500Y-58650000D02*
X35187500Y-58650000D01*
X34637500Y-58650000D02*
X34637500Y-59200000D01*
X36837500Y-58650000D02*
X36287500Y-58650000D01*
X36837500Y-58650000D02*
X36837500Y-59200000D01*
X36837500Y-60850000D02*
X36287500Y-60850000D01*
X36837500Y-60850000D02*
X36837500Y-60300000D01*
X34637500Y-60850000D02*
X35187500Y-60850000D01*
X34637500Y-60850000D02*
X34637500Y-60300000D01*
X34487500Y-58700000D02*
G75*
G02*
X34287500Y-58700000I-100000J0D01*
G01*
X34287500Y-58700000D02*
G75*
G02*
X34487500Y-58700000I100000J0D01*
G01*
D13*
%TO.C,U4*%
X43960000Y-47450000D02*
G75*
G02*
X43680000Y-47450000I-140000J0D01*
G01*
X43680000Y-47450000D02*
G75*
G02*
X43960000Y-47450000I140000J0D01*
G01*
X47120000Y-41650000D02*
X48620000Y-41650000D01*
X48620000Y-41650000D02*
X48620000Y-43250000D01*
X48620000Y-43250000D02*
X50820000Y-43250000D01*
X50820000Y-43250000D02*
X50820000Y-41650000D01*
X50820000Y-41650000D02*
X53020000Y-41650000D01*
X53020000Y-41650000D02*
X53020000Y-43250000D01*
X53020000Y-43250000D02*
X55220000Y-43250000D01*
X55220000Y-43250000D02*
X55220000Y-41650000D01*
X55220000Y-41650000D02*
X57320000Y-41650000D01*
X57320000Y-41650000D02*
X57320000Y-44350000D01*
X45520000Y-44350000D02*
X45520000Y-41650000D01*
X45520000Y-41650000D02*
X47120000Y-41650000D01*
X47120000Y-41650000D02*
X47120000Y-44350000D01*
X44320000Y-46000000D02*
X59820000Y-46000000D01*
X59820000Y-46000000D02*
X59820000Y-45960000D01*
X44320000Y-40950000D02*
X59820000Y-40950000D01*
X59820000Y-40950000D02*
X59820000Y-61450000D01*
X59820000Y-61450000D02*
X44320000Y-61450000D01*
X44320000Y-61450000D02*
X44320000Y-40950000D01*
D14*
%TO.C,U2*%
X37130000Y-51760000D02*
G75*
G02*
X36930000Y-51760000I-100000J0D01*
G01*
X36930000Y-51760000D02*
G75*
G02*
X37130000Y-51760000I100000J0D01*
G01*
D10*
X36580000Y-51970000D02*
X36580000Y-52330000D01*
X36580000Y-52330000D02*
X35720000Y-52330000D01*
X33420000Y-51970000D02*
X33420000Y-52330000D01*
X33420000Y-52330000D02*
X34280000Y-52330000D01*
X33420000Y-50030000D02*
X33420000Y-49670000D01*
X33420000Y-49670000D02*
X34280000Y-49670000D01*
X36580000Y-50030000D02*
X36580000Y-49670000D01*
X36580000Y-49670000D02*
X35720000Y-49670000D01*
D14*
%TO.C,U1*%
X65030000Y-64220000D02*
X65480000Y-64220000D01*
X65480000Y-64220000D02*
X65480000Y-63770000D01*
X65030000Y-60770000D02*
X65480000Y-60770000D01*
X65480000Y-60770000D02*
X65480000Y-61220000D01*
X62030000Y-61220000D02*
X62030000Y-60770000D01*
X62030000Y-60770000D02*
X62480000Y-60770000D01*
X62480000Y-64220000D02*
X62030000Y-64220000D01*
X62030000Y-64220000D02*
X62030000Y-63770000D01*
D15*
X61680001Y-60970000D02*
X61680001Y-60970000D01*
X61680001Y-60970000D01*
X61680001Y-60970000D01*
X61680001Y-60970000D01*
X61680001Y-60970000D01*
X61680001Y-60970001D01*
X61680001Y-60970001D01*
X61680001Y-60970001D01*
X61680001Y-60970001D01*
X61680001Y-60970001D01*
X61680001Y-60970001D01*
X61680001Y-60970001D01*
X61680000Y-60970001D01*
X61680000Y-60970001D01*
X61680000Y-60970001D01*
X61680000Y-60970001D01*
X61680000Y-60970001D01*
X61680000Y-60970001D01*
X61680000Y-60970001D01*
X61680000Y-60970001D01*
X61680000Y-60970001D01*
X61680000Y-60970001D01*
X61680000Y-60970001D01*
X61680000Y-60970001D01*
X61679999Y-60970001D01*
X61679999Y-60970001D01*
X61679999Y-60970001D01*
X61679999Y-60970001D01*
X61679999Y-60970001D01*
X61679999Y-60970001D01*
X61679999Y-60970000D01*
X61679999Y-60970000D01*
X61679999Y-60970000D01*
X61679999Y-60970000D01*
X61679999Y-60970000D01*
X61679999Y-60970000D01*
X61679999Y-60970000D02*
X61679999Y-60970000D01*
X61679999Y-60970000D01*
X61679999Y-60970000D01*
X61679999Y-60970000D01*
X61679999Y-60970000D01*
X61679999Y-60970000D01*
X61679999Y-60969999D01*
X61679999Y-60969999D01*
X61679999Y-60969999D01*
X61679999Y-60969999D01*
X61679999Y-60969999D01*
X61680000Y-60969999D01*
X61680000Y-60969999D01*
X61680000Y-60969999D01*
X61680000Y-60969999D01*
X61680000Y-60969999D01*
X61680000Y-60969999D01*
X61680000Y-60969999D01*
X61680000Y-60969999D01*
X61680000Y-60969999D01*
X61680000Y-60969999D01*
X61680000Y-60969999D01*
X61680000Y-60969999D01*
X61680001Y-60969999D01*
X61680001Y-60969999D01*
X61680001Y-60969999D01*
X61680001Y-60969999D01*
X61680001Y-60969999D01*
X61680001Y-60969999D01*
X61680001Y-60970000D01*
X61680001Y-60970000D01*
X61680001Y-60970000D01*
X61680001Y-60970000D01*
X61680001Y-60970000D01*
X61680001Y-60970000D01*
X61680001Y-60970000D01*
D10*
%TO.C,R22*%
X41680000Y-50660000D02*
X42640000Y-50660000D01*
X42640000Y-50660000D02*
X42640000Y-49340000D01*
X42640000Y-49340000D02*
X41680000Y-49340000D01*
X40820000Y-50660000D02*
X39860000Y-50660000D01*
X39860000Y-50660000D02*
X39860000Y-49340000D01*
X39860000Y-49340000D02*
X40820000Y-49340000D01*
%TO.C,R21*%
X40820000Y-51340000D02*
X39860000Y-51340000D01*
X39860000Y-51340000D02*
X39860000Y-52660000D01*
X39860000Y-52660000D02*
X40820000Y-52660000D01*
X41680000Y-51340000D02*
X42640000Y-51340000D01*
X42640000Y-51340000D02*
X42640000Y-52660000D01*
X42640000Y-52660000D02*
X41680000Y-52660000D01*
%TO.C,R20*%
X57680000Y-82160000D02*
X58640000Y-82160000D01*
X58640000Y-82160000D02*
X58640000Y-80840000D01*
X58640000Y-80840000D02*
X57680000Y-80840000D01*
X56820000Y-82160000D02*
X55860000Y-82160000D01*
X55860000Y-82160000D02*
X55860000Y-80840000D01*
X55860000Y-80840000D02*
X56820000Y-80840000D01*
%TO.C,R19*%
X63680000Y-55160000D02*
X64640000Y-55160000D01*
X64640000Y-55160000D02*
X64640000Y-53840000D01*
X64640000Y-53840000D02*
X63680000Y-53840000D01*
X62820000Y-55160000D02*
X61860000Y-55160000D01*
X61860000Y-55160000D02*
X61860000Y-53840000D01*
X61860000Y-53840000D02*
X62820000Y-53840000D01*
%TO.C,R18*%
X40820000Y-57840000D02*
X39860000Y-57840000D01*
X39860000Y-57840000D02*
X39860000Y-59160000D01*
X39860000Y-59160000D02*
X40820000Y-59160000D01*
X41680000Y-57840000D02*
X42640000Y-57840000D01*
X42640000Y-57840000D02*
X42640000Y-59160000D01*
X42640000Y-59160000D02*
X41680000Y-59160000D01*
%TO.C,R17*%
X40820000Y-55840000D02*
X39860000Y-55840000D01*
X39860000Y-55840000D02*
X39860000Y-57160000D01*
X39860000Y-57160000D02*
X40820000Y-57160000D01*
X41680000Y-55840000D02*
X42640000Y-55840000D01*
X42640000Y-55840000D02*
X42640000Y-57160000D01*
X42640000Y-57160000D02*
X41680000Y-57160000D01*
%TO.C,R16*%
X65180000Y-48660000D02*
X66140000Y-48660000D01*
X66140000Y-48660000D02*
X66140000Y-47340000D01*
X66140000Y-47340000D02*
X65180000Y-47340000D01*
X64320000Y-48660000D02*
X63360000Y-48660000D01*
X63360000Y-48660000D02*
X63360000Y-47340000D01*
X63360000Y-47340000D02*
X64320000Y-47340000D01*
%TO.C,R15*%
X59820000Y-66840000D02*
X58860000Y-66840000D01*
X58860000Y-66840000D02*
X58860000Y-68160000D01*
X58860000Y-68160000D02*
X59820000Y-68160000D01*
X60680000Y-66840000D02*
X61640000Y-66840000D01*
X61640000Y-66840000D02*
X61640000Y-68160000D01*
X61640000Y-68160000D02*
X60680000Y-68160000D01*
%TO.C,R14*%
X65930000Y-60160000D02*
X66890000Y-60160000D01*
X66890000Y-60160000D02*
X66890000Y-58840000D01*
X66890000Y-58840000D02*
X65930000Y-58840000D01*
X65070000Y-60160000D02*
X64110000Y-60160000D01*
X64110000Y-60160000D02*
X64110000Y-58840000D01*
X64110000Y-58840000D02*
X65070000Y-58840000D01*
%TO.C,R13*%
X63680000Y-57160000D02*
X64640000Y-57160000D01*
X64640000Y-57160000D02*
X64640000Y-55840000D01*
X64640000Y-55840000D02*
X63680000Y-55840000D01*
X62820000Y-57160000D02*
X61860000Y-57160000D01*
X61860000Y-57160000D02*
X61860000Y-55840000D01*
X61860000Y-55840000D02*
X62820000Y-55840000D01*
%TO.C,R12*%
X59660000Y-63820000D02*
X59660000Y-62860000D01*
X59660000Y-62860000D02*
X58340000Y-62860000D01*
X58340000Y-62860000D02*
X58340000Y-63820000D01*
X59660000Y-64680000D02*
X59660000Y-65640000D01*
X59660000Y-65640000D02*
X58340000Y-65640000D01*
X58340000Y-65640000D02*
X58340000Y-64680000D01*
%TO.C,R11*%
X68340000Y-62430000D02*
X68340000Y-63390000D01*
X68340000Y-63390000D02*
X69660000Y-63390000D01*
X69660000Y-63390000D02*
X69660000Y-62430000D01*
X68340000Y-61570000D02*
X68340000Y-60610000D01*
X68340000Y-60610000D02*
X69660000Y-60610000D01*
X69660000Y-60610000D02*
X69660000Y-61570000D01*
%TO.C,R10*%
X56160000Y-88570000D02*
X56160000Y-87610000D01*
X56160000Y-87610000D02*
X54840000Y-87610000D01*
X54840000Y-87610000D02*
X54840000Y-88570000D01*
X56160000Y-89430000D02*
X56160000Y-90390000D01*
X56160000Y-90390000D02*
X54840000Y-90390000D01*
X54840000Y-90390000D02*
X54840000Y-89430000D01*
%TO.C,R9*%
X50160000Y-88570000D02*
X50160000Y-87610000D01*
X50160000Y-87610000D02*
X48840000Y-87610000D01*
X48840000Y-87610000D02*
X48840000Y-88570000D01*
X50160000Y-89430000D02*
X50160000Y-90390000D01*
X50160000Y-90390000D02*
X48840000Y-90390000D01*
X48840000Y-90390000D02*
X48840000Y-89430000D01*
%TO.C,R8*%
X49840000Y-64430000D02*
X49840000Y-65390000D01*
X49840000Y-65390000D02*
X51160000Y-65390000D01*
X51160000Y-65390000D02*
X51160000Y-64430000D01*
X49840000Y-63570000D02*
X49840000Y-62610000D01*
X49840000Y-62610000D02*
X51160000Y-62610000D01*
X51160000Y-62610000D02*
X51160000Y-63570000D01*
%TO.C,R7*%
X49840000Y-68180000D02*
X49840000Y-69140000D01*
X49840000Y-69140000D02*
X51160000Y-69140000D01*
X51160000Y-69140000D02*
X51160000Y-68180000D01*
X49840000Y-67320000D02*
X49840000Y-66360000D01*
X49840000Y-66360000D02*
X51160000Y-66360000D01*
X51160000Y-66360000D02*
X51160000Y-67320000D01*
%TO.C,R6*%
X61160000Y-91070000D02*
X61160000Y-90110000D01*
X61160000Y-90110000D02*
X59840000Y-90110000D01*
X59840000Y-90110000D02*
X59840000Y-91070000D01*
X61160000Y-91930000D02*
X61160000Y-92890000D01*
X61160000Y-92890000D02*
X59840000Y-92890000D01*
X59840000Y-92890000D02*
X59840000Y-91930000D01*
%TO.C,R4*%
X47790700Y-64438500D02*
X47790700Y-65398500D01*
X47790700Y-65398500D02*
X49110700Y-65398500D01*
X49110700Y-65398500D02*
X49110700Y-64438500D01*
X47790700Y-63578500D02*
X47790700Y-62618500D01*
X47790700Y-62618500D02*
X49110700Y-62618500D01*
X49110700Y-62618500D02*
X49110700Y-63578500D01*
%TO.C,R3*%
X68160000Y-96070000D02*
X68160000Y-95110000D01*
X68160000Y-95110000D02*
X66840000Y-95110000D01*
X66840000Y-95110000D02*
X66840000Y-96070000D01*
X68160000Y-96930000D02*
X68160000Y-97890000D01*
X68160000Y-97890000D02*
X66840000Y-97890000D01*
X66840000Y-97890000D02*
X66840000Y-96930000D01*
%TO.C,R1*%
X37160000Y-81320000D02*
X37160000Y-80360000D01*
X37160000Y-80360000D02*
X35840000Y-80360000D01*
X35840000Y-80360000D02*
X35840000Y-81320000D01*
X37160000Y-82180000D02*
X37160000Y-83140000D01*
X37160000Y-83140000D02*
X35840000Y-83140000D01*
X35840000Y-83140000D02*
X35840000Y-82180000D01*
D12*
%TO.C,Q2*%
X69450000Y-94950000D02*
X72550000Y-94950000D01*
X69450000Y-98050000D02*
X72550000Y-98050000D01*
X70000000Y-97750000D02*
G75*
G02*
X69700000Y-97750000I-150000J0D01*
G01*
X69700000Y-97750000D02*
G75*
G02*
X70000000Y-97750000I150000J0D01*
G01*
%TO.C,Q1*%
X55550000Y-66450000D02*
X55550000Y-69550000D01*
X52450000Y-66450000D02*
X52450000Y-69550000D01*
X52900000Y-66850000D02*
G75*
G02*
X52600000Y-66850000I-150000J0D01*
G01*
X52600000Y-66850000D02*
G75*
G02*
X52900000Y-66850000I150000J0D01*
G01*
D10*
%TO.C,LED2*%
X60530000Y-81170000D02*
X60540000Y-81170000D01*
X60540000Y-81170000D02*
X60870000Y-81500000D01*
X60530000Y-81850000D02*
X60530000Y-81840000D01*
X60530000Y-81840000D02*
X60870000Y-81500000D01*
X60530000Y-81850000D02*
X60530000Y-81170000D01*
X60510000Y-82250000D02*
X59360000Y-82250000D01*
X60510000Y-80750000D02*
X59360000Y-80750000D01*
X59360000Y-82250000D02*
X59360000Y-80770000D01*
X60890000Y-80750000D02*
X61940000Y-80750000D01*
X62240000Y-81150000D02*
X62240000Y-81050000D01*
X62240000Y-81050000D02*
X61940000Y-80750000D01*
X62240000Y-81850000D02*
X62240000Y-81150000D01*
X62240000Y-81850000D02*
X62240000Y-81950000D01*
X62240000Y-81950000D02*
X61940000Y-82250000D01*
X60890000Y-82250000D02*
X61940000Y-82250000D01*
X60530000Y-81500000D02*
X60870000Y-81500000D01*
%TO.C,LED1*%
X71330000Y-91280000D02*
X71330000Y-91290000D01*
X71330000Y-91290000D02*
X71000000Y-91620000D01*
X70650000Y-91280000D02*
X70660000Y-91280000D01*
X70660000Y-91280000D02*
X71000000Y-91620000D01*
X70650000Y-91280000D02*
X71330000Y-91280000D01*
X70250000Y-91260000D02*
X70250000Y-90110000D01*
X71750000Y-91260000D02*
X71750000Y-90110000D01*
X70250000Y-90110000D02*
X71730000Y-90110000D01*
X71750000Y-91640000D02*
X71750000Y-92690000D01*
X71350000Y-92990000D02*
X71450000Y-92990000D01*
X71450000Y-92990000D02*
X71750000Y-92690000D01*
X70650000Y-92990000D02*
X71350000Y-92990000D01*
X70650000Y-92990000D02*
X70550000Y-92990000D01*
X70550000Y-92990000D02*
X70250000Y-92690000D01*
X70250000Y-91640000D02*
X70250000Y-92690000D01*
X71000000Y-91280000D02*
X71000000Y-91620000D01*
D11*
%TO.C,J2*%
X68250000Y-59750000D02*
X68250000Y-52250000D01*
X68250000Y-52250000D02*
X69750000Y-52250000D01*
X69750000Y-52250000D02*
X69750000Y-59750000D01*
X69750000Y-59750000D02*
X68250000Y-59750000D01*
D12*
%TO.C,J1*%
X36600000Y-93850000D02*
X44400000Y-93850000D01*
X36600000Y-93850000D02*
X36600000Y-99250000D01*
X44400000Y-93850000D02*
X44400000Y-99250000D01*
X36600000Y-99250000D02*
X44400000Y-99250000D01*
D15*
%TO.C,D1*%
X50980000Y-90300000D02*
G75*
G02*
X50680000Y-90300000I-150000J0D01*
G01*
X50680000Y-90300000D02*
G75*
G02*
X50980000Y-90300000I150000J0D01*
G01*
D10*
X54040000Y-89890000D02*
X54040000Y-88110000D01*
X50960000Y-89890000D02*
X50960000Y-88110000D01*
D13*
%TO.C,C14*%
X69710000Y-66780000D02*
X69710000Y-67580000D01*
X69710000Y-66220000D02*
X69710000Y-65420000D01*
X68290000Y-66780000D02*
X68290000Y-67580000D01*
X68290000Y-66220000D02*
X68290000Y-65420000D01*
X69400000Y-67890000D02*
X68600000Y-67890000D01*
X68600000Y-65110000D02*
X69400000Y-65110000D01*
X68290000Y-65420000D02*
G75*
G02*
X68600000Y-65110000I310000J0D01*
G01*
X69400000Y-65110000D02*
G75*
G02*
X69710000Y-65420000I0J-310000D01*
G01*
X69710000Y-67580000D02*
G75*
G02*
X69400000Y-67890000I-310000J0D01*
G01*
X68600000Y-67890000D02*
G75*
G02*
X68290000Y-67580000I0J310000D01*
G01*
%TO.C,C13*%
X59520000Y-73710000D02*
X58720000Y-73710000D01*
X60080000Y-73710000D02*
X60880000Y-73710000D01*
X59520000Y-72290000D02*
X58720000Y-72290000D01*
X60080000Y-72290000D02*
X60880000Y-72290000D01*
X58410000Y-73400000D02*
X58410000Y-72600000D01*
X61190000Y-72600000D02*
X61190000Y-73400000D01*
X60880000Y-72290000D02*
G75*
G02*
X61190000Y-72600000I0J-310000D01*
G01*
X61190000Y-73400000D02*
G75*
G02*
X60880000Y-73710000I-310000J0D01*
G01*
X58720000Y-73710000D02*
G75*
G02*
X58410000Y-73400000I0J310000D01*
G01*
X58410000Y-72600000D02*
G75*
G02*
X58720000Y-72290000I310000J0D01*
G01*
%TO.C,C12*%
X38520000Y-75210000D02*
X37720000Y-75210000D01*
X39080000Y-75210000D02*
X39880000Y-75210000D01*
X38520000Y-73790000D02*
X37720000Y-73790000D01*
X39080000Y-73790000D02*
X39880000Y-73790000D01*
X37410000Y-74900000D02*
X37410000Y-74100000D01*
X40190000Y-74100000D02*
X40190000Y-74900000D01*
X39880000Y-73790000D02*
G75*
G02*
X40190000Y-74100000I0J-310000D01*
G01*
X40190000Y-74900000D02*
G75*
G02*
X39880000Y-75210000I-310000J0D01*
G01*
X37720000Y-75210000D02*
G75*
G02*
X37410000Y-74900000I0J310000D01*
G01*
X37410000Y-74100000D02*
G75*
G02*
X37720000Y-73790000I310000J0D01*
G01*
%TO.C,C11*%
X38520000Y-73210000D02*
X37720000Y-73210000D01*
X39080000Y-73210000D02*
X39880000Y-73210000D01*
X38520000Y-71790000D02*
X37720000Y-71790000D01*
X39080000Y-71790000D02*
X39880000Y-71790000D01*
X37410000Y-72900000D02*
X37410000Y-72100000D01*
X40190000Y-72100000D02*
X40190000Y-72900000D01*
X39880000Y-71790000D02*
G75*
G02*
X40190000Y-72100000I0J-310000D01*
G01*
X40190000Y-72900000D02*
G75*
G02*
X39880000Y-73210000I-310000J0D01*
G01*
X37720000Y-73210000D02*
G75*
G02*
X37410000Y-72900000I0J310000D01*
G01*
X37410000Y-72100000D02*
G75*
G02*
X37720000Y-71790000I310000J0D01*
G01*
%TO.C,C10*%
X38520000Y-71210000D02*
X37720000Y-71210000D01*
X39080000Y-71210000D02*
X39880000Y-71210000D01*
X38520000Y-69790000D02*
X37720000Y-69790000D01*
X39080000Y-69790000D02*
X39880000Y-69790000D01*
X37410000Y-70900000D02*
X37410000Y-70100000D01*
X40190000Y-70100000D02*
X40190000Y-70900000D01*
X39880000Y-69790000D02*
G75*
G02*
X40190000Y-70100000I0J-310000D01*
G01*
X40190000Y-70900000D02*
G75*
G02*
X39880000Y-71210000I-310000J0D01*
G01*
X37720000Y-71210000D02*
G75*
G02*
X37410000Y-70900000I0J310000D01*
G01*
X37410000Y-70100000D02*
G75*
G02*
X37720000Y-69790000I310000J0D01*
G01*
%TO.C,C9*%
X38520000Y-69210000D02*
X37720000Y-69210000D01*
X39080000Y-69210000D02*
X39880000Y-69210000D01*
X38520000Y-67790000D02*
X37720000Y-67790000D01*
X39080000Y-67790000D02*
X39880000Y-67790000D01*
X37410000Y-68900000D02*
X37410000Y-68100000D01*
X40190000Y-68100000D02*
X40190000Y-68900000D01*
X39880000Y-67790000D02*
G75*
G02*
X40190000Y-68100000I0J-310000D01*
G01*
X40190000Y-68900000D02*
G75*
G02*
X39880000Y-69210000I-310000J0D01*
G01*
X37720000Y-69210000D02*
G75*
G02*
X37410000Y-68900000I0J310000D01*
G01*
X37410000Y-68100000D02*
G75*
G02*
X37720000Y-67790000I310000J0D01*
G01*
%TO.C,C8*%
X56920000Y-84710000D02*
X56120000Y-84710000D01*
X57480000Y-84710000D02*
X58280000Y-84710000D01*
X56920000Y-83290000D02*
X56120000Y-83290000D01*
X57480000Y-83290000D02*
X58280000Y-83290000D01*
X55810000Y-84400000D02*
X55810000Y-83600000D01*
X58590000Y-83600000D02*
X58590000Y-84400000D01*
X58280000Y-83290000D02*
G75*
G02*
X58590000Y-83600000I0J-310000D01*
G01*
X58590000Y-84400000D02*
G75*
G02*
X58280000Y-84710000I-310000J0D01*
G01*
X56120000Y-84710000D02*
G75*
G02*
X55810000Y-84400000I0J310000D01*
G01*
X55810000Y-83600000D02*
G75*
G02*
X56120000Y-83290000I310000J0D01*
G01*
%TO.C,C7*%
X59520000Y-78210000D02*
X58720000Y-78210000D01*
X60080000Y-78210000D02*
X60880000Y-78210000D01*
X59520000Y-76790000D02*
X58720000Y-76790000D01*
X60080000Y-76790000D02*
X60880000Y-76790000D01*
X58410000Y-77900000D02*
X58410000Y-77100000D01*
X61190000Y-77100000D02*
X61190000Y-77900000D01*
X60880000Y-76790000D02*
G75*
G02*
X61190000Y-77100000I0J-310000D01*
G01*
X61190000Y-77900000D02*
G75*
G02*
X60880000Y-78210000I-310000J0D01*
G01*
X58720000Y-78210000D02*
G75*
G02*
X58410000Y-77900000I0J310000D01*
G01*
X58410000Y-77100000D02*
G75*
G02*
X58720000Y-76790000I310000J0D01*
G01*
%TO.C,C6*%
X38520000Y-67210000D02*
X37720000Y-67210000D01*
X39080000Y-67210000D02*
X39880000Y-67210000D01*
X38520000Y-65790000D02*
X37720000Y-65790000D01*
X39080000Y-65790000D02*
X39880000Y-65790000D01*
X37410000Y-66900000D02*
X37410000Y-66100000D01*
X40190000Y-66100000D02*
X40190000Y-66900000D01*
X39880000Y-65790000D02*
G75*
G02*
X40190000Y-66100000I0J-310000D01*
G01*
X40190000Y-66900000D02*
G75*
G02*
X39880000Y-67210000I-310000J0D01*
G01*
X37720000Y-67210000D02*
G75*
G02*
X37410000Y-66900000I0J310000D01*
G01*
X37410000Y-66100000D02*
G75*
G02*
X37720000Y-65790000I310000J0D01*
G01*
%TO.C,C5*%
X52980000Y-77790000D02*
X53780000Y-77790000D01*
X52420000Y-77790000D02*
X51620000Y-77790000D01*
X52980000Y-79210000D02*
X53780000Y-79210000D01*
X52420000Y-79210000D02*
X51620000Y-79210000D01*
X54090000Y-78100000D02*
X54090000Y-78900000D01*
X51310000Y-78900000D02*
X51310000Y-78100000D01*
X51620000Y-79210000D02*
G75*
G02*
X51310000Y-78900000I0J310000D01*
G01*
X51310000Y-78100000D02*
G75*
G02*
X51620000Y-77790000I310000J0D01*
G01*
X53780000Y-77790000D02*
G75*
G02*
X54090000Y-78100000I0J-310000D01*
G01*
X54090000Y-78900000D02*
G75*
G02*
X53780000Y-79210000I-310000J0D01*
G01*
%TO.C,C4*%
X62210000Y-47480000D02*
X62210000Y-48280000D01*
X62210000Y-46920000D02*
X62210000Y-46120000D01*
X60790000Y-47480000D02*
X60790000Y-48280000D01*
X60790000Y-46920000D02*
X60790000Y-46120000D01*
X61900000Y-48590000D02*
X61100000Y-48590000D01*
X61100000Y-45810000D02*
X61900000Y-45810000D01*
X60790000Y-46120000D02*
G75*
G02*
X61100000Y-45810000I310000J0D01*
G01*
X61900000Y-45810000D02*
G75*
G02*
X62210000Y-46120000I0J-310000D01*
G01*
X62210000Y-48280000D02*
G75*
G02*
X61900000Y-48590000I-310000J0D01*
G01*
X61100000Y-48590000D02*
G75*
G02*
X60790000Y-48280000I0J310000D01*
G01*
%TO.C,C3*%
X59520000Y-71210000D02*
X58720000Y-71210000D01*
X60080000Y-71210000D02*
X60880000Y-71210000D01*
X59520000Y-69790000D02*
X58720000Y-69790000D01*
X60080000Y-69790000D02*
X60880000Y-69790000D01*
X58410000Y-70900000D02*
X58410000Y-70100000D01*
X61190000Y-70100000D02*
X61190000Y-70900000D01*
X60880000Y-69790000D02*
G75*
G02*
X61190000Y-70100000I0J-310000D01*
G01*
X61190000Y-70900000D02*
G75*
G02*
X60880000Y-71210000I-310000J0D01*
G01*
X58720000Y-71210000D02*
G75*
G02*
X58410000Y-70900000I0J310000D01*
G01*
X58410000Y-70100000D02*
G75*
G02*
X58720000Y-69790000I310000J0D01*
G01*
%TO.C,C2*%
X37420000Y-88710000D02*
X36620000Y-88710000D01*
X37980000Y-88710000D02*
X38780000Y-88710000D01*
X37420000Y-87290000D02*
X36620000Y-87290000D01*
X37980000Y-87290000D02*
X38780000Y-87290000D01*
X36310000Y-88400000D02*
X36310000Y-87600000D01*
X39090000Y-87600000D02*
X39090000Y-88400000D01*
X38780000Y-87290000D02*
G75*
G02*
X39090000Y-87600000I0J-310000D01*
G01*
X39090000Y-88400000D02*
G75*
G02*
X38780000Y-88710000I-310000J0D01*
G01*
X36620000Y-88710000D02*
G75*
G02*
X36310000Y-88400000I0J310000D01*
G01*
X36310000Y-87600000D02*
G75*
G02*
X36620000Y-87290000I310000J0D01*
G01*
%TO.C,C1*%
X41290000Y-86220000D02*
X41290000Y-85420000D01*
X41290000Y-86780000D02*
X41290000Y-87580000D01*
X42710000Y-86220000D02*
X42710000Y-85420000D01*
X42710000Y-86780000D02*
X42710000Y-87580000D01*
X41600000Y-85110000D02*
X42400000Y-85110000D01*
X42400000Y-87890000D02*
X41600000Y-87890000D01*
X42710000Y-87580000D02*
G75*
G02*
X42400000Y-87890000I-310000J0D01*
G01*
X41600000Y-87890000D02*
G75*
G02*
X41290000Y-87580000I0J310000D01*
G01*
X41290000Y-85420000D02*
G75*
G02*
X41600000Y-85110000I310000J0D01*
G01*
X42400000Y-85110000D02*
G75*
G02*
X42710000Y-85420000I0J-310000D01*
G01*
D12*
%TO.C,BZ1*%
X56350000Y-73500000D02*
G75*
G02*
X51650000Y-73500000I-2350000J0D01*
G01*
X51650000Y-73500000D02*
G75*
G02*
X56350000Y-73500000I2350000J0D01*
G01*
X51800000Y-75000000D02*
X51800000Y-72000000D01*
X56200000Y-75000000D02*
X56200000Y-72000000D01*
%TD*%
M02*
