ISO-10303-21;
HEADER;
FILE_DESCRIPTION(('KiCad electronic assembly'),'2;1');
FILE_NAME('pic_programmer.step','2026-06-01T23:58:21',('Pcbnew'),(
    'Kicad'),'Open CASCADE STEP processor 7.6','KiCad to STEP converter'
  ,'Unknown');
FILE_SCHEMA(('AUTOMOTIVE_DESIGN { 1 0 10303 214 1 1 1 1 }'));
ENDSEC;
DATA;
#1 = APPLICATION_PROTOCOL_DEFINITION('international standard',
  'automotive_design',2000,#2);
#2 = APPLICATION_CONTEXT(
  'core data for automotive mechanical design processes');
#3 = SHAPE_DEFINITION_REPRESENTATION(#4,#10);
#4 = PRODUCT_DEFINITION_SHAPE('','',#5);
#5 = PRODUCT_DEFINITION('design','',#6,#9);
#6 = PRODUCT_DEFINITION_FORMATION('','',#7);
#7 = PRODUCT('pic_programmer 1','pic_programmer 1','',(#8));
#8 = PRODUCT_CONTEXT('',#2,'mechanical');
#9 = PRODUCT_DEFINITION_CONTEXT('part definition',#2,'design');
#10 = SHAPE_REPRESENTATION('',(#11,#15),#19);
#11 = AXIS2_PLACEMENT_3D('',#12,#13,#14);
#12 = CARTESIAN_POINT('',(0.,0.,0.));
#13 = DIRECTION('',(0.,0.,1.));
#14 = DIRECTION('',(1.,0.,-0.));
#15 = AXIS2_PLACEMENT_3D('',#16,#17,#18);
#16 = CARTESIAN_POINT('',(0.,0.,0.));
#17 = DIRECTION('',(0.,0.,1.));
#18 = DIRECTION('',(1.,0.,-0.));
#19 = ( GEOMETRIC_REPRESENTATION_CONTEXT(3) 
GLOBAL_UNCERTAINTY_ASSIGNED_CONTEXT((#23)) GLOBAL_UNIT_ASSIGNED_CONTEXT(
(#20,#21,#22)) REPRESENTATION_CONTEXT('Context #1',
  '3D Context with UNIT and UNCERTAINTY') );
#20 = ( LENGTH_UNIT() NAMED_UNIT(*) SI_UNIT(.MILLI.,.METRE.) );
#21 = ( NAMED_UNIT(*) PLANE_ANGLE_UNIT() SI_UNIT($,.RADIAN.) );
#22 = ( NAMED_UNIT(*) SI_UNIT($,.STERADIAN.) SOLID_ANGLE_UNIT() );
#23 = UNCERTAINTY_MEASURE_WITH_UNIT(LENGTH_MEASURE(1.E-07),#20,
  'distance_accuracy_value','confusion accuracy');
#24 = PRODUCT_RELATED_PRODUCT_CATEGORY('part',$,(#7));
#25 = SHAPE_DEFINITION_REPRESENTATION(#26,#32);
#26 = PRODUCT_DEFINITION_SHAPE('','',#27);
#27 = PRODUCT_DEFINITION('design','',#28,#31);
#28 = PRODUCT_DEFINITION_FORMATION('','',#29);
#29 = PRODUCT('flysys_vario_PCB','flysys_vario_PCB','',(#30));
#30 = PRODUCT_CONTEXT('',#2,'mechanical');
#31 = PRODUCT_DEFINITION_CONTEXT('part definition',#2,'design');
#32 = ADVANCED_BREP_SHAPE_REPRESENTATION('',(#11,#33),#821);
#33 = MANIFOLD_SOLID_BREP('',#34);
#34 = CLOSED_SHELL('',(#35,#75,#106,#137,#320,#503,#515,#537,#554,#571,
    #583,#605,#622,#639,#651,#673,#690,#707,#719,#736,#753,#775,#792,
    #809));
#35 = ADVANCED_FACE('',(#36),#70,.T.);
#36 = FACE_BOUND('',#37,.T.);
#37 = EDGE_LOOP('',(#38,#48,#56,#64));
#38 = ORIENTED_EDGE('',*,*,#39,.T.);
#39 = EDGE_CURVE('',#40,#42,#44,.T.);
#40 = VERTEX_POINT('',#41);
#41 = CARTESIAN_POINT('',(74.5,-102.,0.));
#42 = VERTEX_POINT('',#43);
#43 = CARTESIAN_POINT('',(74.5,-102.,1.51));
#44 = LINE('',#45,#46);
#45 = CARTESIAN_POINT('',(74.5,-102.,0.));
#46 = VECTOR('',#47,1.);
#47 = DIRECTION('',(0.,0.,1.));
#48 = ORIENTED_EDGE('',*,*,#49,.T.);
#49 = EDGE_CURVE('',#42,#50,#52,.T.);
#50 = VERTEX_POINT('',#51);
#51 = CARTESIAN_POINT('',(31.5,-102.,1.51));
#52 = LINE('',#53,#54);
#53 = CARTESIAN_POINT('',(74.5,-102.,1.51));
#54 = VECTOR('',#55,1.);
#55 = DIRECTION('',(-1.,0.,0.));
#56 = ORIENTED_EDGE('',*,*,#57,.F.);
#57 = EDGE_CURVE('',#58,#50,#60,.T.);
#58 = VERTEX_POINT('',#59);
#59 = CARTESIAN_POINT('',(31.5,-102.,0.));
#60 = LINE('',#61,#62);
#61 = CARTESIAN_POINT('',(31.5,-102.,0.));
#62 = VECTOR('',#63,1.);
#63 = DIRECTION('',(0.,0.,1.));
#64 = ORIENTED_EDGE('',*,*,#65,.F.);
#65 = EDGE_CURVE('',#40,#58,#66,.T.);
#66 = LINE('',#67,#68);
#67 = CARTESIAN_POINT('',(74.5,-102.,0.));
#68 = VECTOR('',#69,1.);
#69 = DIRECTION('',(-1.,0.,0.));
#70 = PLANE('',#71);
#71 = AXIS2_PLACEMENT_3D('',#72,#73,#74);
#72 = CARTESIAN_POINT('',(74.5,-102.,0.));
#73 = DIRECTION('',(0.,-1.,0.));
#74 = DIRECTION('',(-1.,0.,0.));
#75 = ADVANCED_FACE('',(#76),#101,.T.);
#76 = FACE_BOUND('',#77,.T.);
#77 = EDGE_LOOP('',(#78,#88,#94,#95));
#78 = ORIENTED_EDGE('',*,*,#79,.T.);
#79 = EDGE_CURVE('',#80,#82,#84,.T.);
#80 = VERTEX_POINT('',#81);
#81 = CARTESIAN_POINT('',(74.5,-38.,0.));
#82 = VERTEX_POINT('',#83);
#83 = CARTESIAN_POINT('',(74.5,-38.,1.51));
#84 = LINE('',#85,#86);
#85 = CARTESIAN_POINT('',(74.5,-38.,0.));
#86 = VECTOR('',#87,1.);
#87 = DIRECTION('',(0.,0.,1.));
#88 = ORIENTED_EDGE('',*,*,#89,.T.);
#89 = EDGE_CURVE('',#82,#42,#90,.T.);
#90 = LINE('',#91,#92);
#91 = CARTESIAN_POINT('',(74.5,-38.,1.51));
#92 = VECTOR('',#93,1.);
#93 = DIRECTION('',(0.,-1.,0.));
#94 = ORIENTED_EDGE('',*,*,#39,.F.);
#95 = ORIENTED_EDGE('',*,*,#96,.F.);
#96 = EDGE_CURVE('',#80,#40,#97,.T.);
#97 = LINE('',#98,#99);
#98 = CARTESIAN_POINT('',(74.5,-38.,0.));
#99 = VECTOR('',#100,1.);
#100 = DIRECTION('',(0.,-1.,0.));
#101 = PLANE('',#102);
#102 = AXIS2_PLACEMENT_3D('',#103,#104,#105);
#103 = CARTESIAN_POINT('',(74.5,-38.,0.));
#104 = DIRECTION('',(1.,0.,-0.));
#105 = DIRECTION('',(0.,-1.,0.));
#106 = ADVANCED_FACE('',(#107),#132,.T.);
#107 = FACE_BOUND('',#108,.T.);
#108 = EDGE_LOOP('',(#109,#110,#118,#126));
#109 = ORIENTED_EDGE('',*,*,#57,.T.);
#110 = ORIENTED_EDGE('',*,*,#111,.T.);
#111 = EDGE_CURVE('',#50,#112,#114,.T.);
#112 = VERTEX_POINT('',#113);
#113 = CARTESIAN_POINT('',(31.5,-38.,1.51));
#114 = LINE('',#115,#116);
#115 = CARTESIAN_POINT('',(31.5,-102.,1.51));
#116 = VECTOR('',#117,1.);
#117 = DIRECTION('',(0.,1.,0.));
#118 = ORIENTED_EDGE('',*,*,#119,.F.);
#119 = EDGE_CURVE('',#120,#112,#122,.T.);
#120 = VERTEX_POINT('',#121);
#121 = CARTESIAN_POINT('',(31.5,-38.,0.));
#122 = LINE('',#123,#124);
#123 = CARTESIAN_POINT('',(31.5,-38.,0.));
#124 = VECTOR('',#125,1.);
#125 = DIRECTION('',(0.,0.,1.));
#126 = ORIENTED_EDGE('',*,*,#127,.F.);
#127 = EDGE_CURVE('',#58,#120,#128,.T.);
#128 = LINE('',#129,#130);
#129 = CARTESIAN_POINT('',(31.5,-102.,0.));
#130 = VECTOR('',#131,1.);
#131 = DIRECTION('',(0.,1.,0.));
#132 = PLANE('',#133);
#133 = AXIS2_PLACEMENT_3D('',#134,#135,#136);
#134 = CARTESIAN_POINT('',(31.5,-102.,0.));
#135 = DIRECTION('',(-1.,0.,0.));
#136 = DIRECTION('',(0.,1.,0.));
#137 = ADVANCED_FACE('',(#138,#149,#185,#221,#257,#268,#279),#315,.F.);
#138 = FACE_BOUND('',#139,.F.);
#139 = EDGE_LOOP('',(#140,#141,#142,#148));
#140 = ORIENTED_EDGE('',*,*,#65,.F.);
#141 = ORIENTED_EDGE('',*,*,#96,.F.);
#142 = ORIENTED_EDGE('',*,*,#143,.F.);
#143 = EDGE_CURVE('',#120,#80,#144,.T.);
#144 = LINE('',#145,#146);
#145 = CARTESIAN_POINT('',(31.5,-38.,0.));
#146 = VECTOR('',#147,1.);
#147 = DIRECTION('',(1.,0.,0.));
#148 = ORIENTED_EDGE('',*,*,#127,.F.);
#149 = FACE_BOUND('',#150,.F.);
#150 = EDGE_LOOP('',(#151,#162,#170,#179));
#151 = ORIENTED_EDGE('',*,*,#152,.T.);
#152 = EDGE_CURVE('',#153,#155,#157,.T.);
#153 = VERTEX_POINT('',#154);
#154 = CARTESIAN_POINT('',(48.280012,-98.589987,0.));
#155 = VERTEX_POINT('',#156);
#156 = CARTESIAN_POINT('',(47.579988,-98.589987,0.));
#157 = CIRCLE('',#158,0.350012);
#158 = AXIS2_PLACEMENT_3D('',#159,#160,#161);
#159 = CARTESIAN_POINT('',(47.93,-98.589987,0.));
#160 = DIRECTION('',(-0.,0.,-1.));
#161 = DIRECTION('',(-1.,4.060105000743E-14,0.));
#162 = ORIENTED_EDGE('',*,*,#163,.T.);
#163 = EDGE_CURVE('',#155,#164,#166,.T.);
#164 = VERTEX_POINT('',#165);
#165 = CARTESIAN_POINT('',(47.579988,-97.890013,0.));
#166 = LINE('',#167,#168);
#167 = CARTESIAN_POINT('',(47.579988,-48.9450065,0.));
#168 = VECTOR('',#169,1.);
#169 = DIRECTION('',(-0.,1.,0.));
#170 = ORIENTED_EDGE('',*,*,#171,.T.);
#171 = EDGE_CURVE('',#164,#172,#174,.T.);
#172 = VERTEX_POINT('',#173);
#173 = CARTESIAN_POINT('',(48.280012,-97.890013,0.));
#174 = CIRCLE('',#175,0.350012);
#175 = AXIS2_PLACEMENT_3D('',#176,#177,#178);
#176 = CARTESIAN_POINT('',(47.93,-97.890013,0.));
#177 = DIRECTION('',(0.,-0.,-1.));
#178 = DIRECTION('',(1.,4.060105000743E-14,-0.));
#179 = ORIENTED_EDGE('',*,*,#180,.T.);
#180 = EDGE_CURVE('',#172,#153,#181,.T.);
#181 = LINE('',#182,#183);
#182 = CARTESIAN_POINT('',(48.280012,-49.2949935,0.));
#183 = VECTOR('',#184,1.);
#184 = DIRECTION('',(0.,-1.,0.));
#185 = FACE_BOUND('',#186,.F.);
#186 = EDGE_LOOP('',(#187,#198,#206,#215));
#187 = ORIENTED_EDGE('',*,*,#188,.T.);
#188 = EDGE_CURVE('',#189,#191,#193,.T.);
#189 = VERTEX_POINT('',#190);
#190 = CARTESIAN_POINT('',(56.920012,-98.589987,0.));
#191 = VERTEX_POINT('',#192);
#192 = CARTESIAN_POINT('',(56.219988,-98.589987,0.));
#193 = CIRCLE('',#194,0.350012);
#194 = AXIS2_PLACEMENT_3D('',#195,#196,#197);
#195 = CARTESIAN_POINT('',(56.57,-98.589987,0.));
#196 = DIRECTION('',(-0.,0.,-1.));
#197 = DIRECTION('',(-1.,4.060105000743E-14,0.));
#198 = ORIENTED_EDGE('',*,*,#199,.T.);
#199 = EDGE_CURVE('',#191,#200,#202,.T.);
#200 = VERTEX_POINT('',#201);
#201 = CARTESIAN_POINT('',(56.219988,-97.890013,0.));
#202 = LINE('',#203,#204);
#203 = CARTESIAN_POINT('',(56.219988,-48.9450065,0.));
#204 = VECTOR('',#205,1.);
#205 = DIRECTION('',(-0.,1.,0.));
#206 = ORIENTED_EDGE('',*,*,#207,.T.);
#207 = EDGE_CURVE('',#200,#208,#210,.T.);
#208 = VERTEX_POINT('',#209);
#209 = CARTESIAN_POINT('',(56.920012,-97.890013,0.));
#210 = CIRCLE('',#211,0.350012);
#211 = AXIS2_PLACEMENT_3D('',#212,#213,#214);
#212 = CARTESIAN_POINT('',(56.57,-97.890013,0.));
#213 = DIRECTION('',(0.,-0.,-1.));
#214 = DIRECTION('',(1.,4.060105000743E-14,-0.));
#215 = ORIENTED_EDGE('',*,*,#216,.T.);
#216 = EDGE_CURVE('',#208,#189,#217,.T.);
#217 = LINE('',#218,#219);
#218 = CARTESIAN_POINT('',(56.920012,-49.2949935,0.));
#219 = VECTOR('',#220,1.);
#220 = DIRECTION('',(0.,-1.,0.));
#221 = FACE_BOUND('',#222,.F.);
#222 = EDGE_LOOP('',(#223,#234,#242,#251));
#223 = ORIENTED_EDGE('',*,*,#224,.T.);
#224 = EDGE_CURVE('',#225,#227,#229,.T.);
#225 = VERTEX_POINT('',#226);
#226 = CARTESIAN_POINT('',(48.280012,-94.559987,0.));
#227 = VERTEX_POINT('',#228);
#228 = CARTESIAN_POINT('',(47.579988,-94.559987,0.));
#229 = CIRCLE('',#230,0.350012);
#230 = AXIS2_PLACEMENT_3D('',#231,#232,#233);
#231 = CARTESIAN_POINT('',(47.93,-94.559987,0.));
#232 = DIRECTION('',(-0.,0.,-1.));
#233 = DIRECTION('',(-1.,-4.060105000743E-14,0.));
#234 = ORIENTED_EDGE('',*,*,#235,.T.);
#235 = EDGE_CURVE('',#227,#236,#238,.T.);
#236 = VERTEX_POINT('',#237);
#237 = CARTESIAN_POINT('',(47.579988,-93.560013,0.));
#238 = LINE('',#239,#240);
#239 = CARTESIAN_POINT('',(47.579988,-46.7800065,0.));
#240 = VECTOR('',#241,1.);
#241 = DIRECTION('',(-0.,1.,0.));
#242 = ORIENTED_EDGE('',*,*,#243,.T.);
#243 = EDGE_CURVE('',#236,#244,#246,.T.);
#244 = VERTEX_POINT('',#245);
#245 = CARTESIAN_POINT('',(48.280012,-93.560013,0.));
#246 = CIRCLE('',#247,0.350012);
#247 = AXIS2_PLACEMENT_3D('',#248,#249,#250);
#248 = CARTESIAN_POINT('',(47.93,-93.560013,0.));
#249 = DIRECTION('',(0.,-0.,-1.));
#250 = DIRECTION('',(1.,4.060105000743E-14,-0.));
#251 = ORIENTED_EDGE('',*,*,#252,.T.);
#252 = EDGE_CURVE('',#244,#225,#253,.T.);
#253 = LINE('',#254,#255);
#254 = CARTESIAN_POINT('',(48.280012,-47.2799935,0.));
#255 = VECTOR('',#256,1.);
#256 = DIRECTION('',(0.,-1.,0.));
#257 = FACE_BOUND('',#258,.F.);
#258 = EDGE_LOOP('',(#259));
#259 = ORIENTED_EDGE('',*,*,#260,.T.);
#260 = EDGE_CURVE('',#261,#261,#263,.T.);
#261 = VERTEX_POINT('',#262);
#262 = CARTESIAN_POINT('',(49.36,-94.865,0.));
#263 = CIRCLE('',#264,0.325);
#264 = AXIS2_PLACEMENT_3D('',#265,#266,#267);
#265 = CARTESIAN_POINT('',(49.36,-94.54,0.));
#266 = DIRECTION('',(-0.,0.,-1.));
#267 = DIRECTION('',(-0.,-1.,0.));
#268 = FACE_BOUND('',#269,.F.);
#269 = EDGE_LOOP('',(#270));
#270 = ORIENTED_EDGE('',*,*,#271,.T.);
#271 = EDGE_CURVE('',#272,#272,#274,.T.);
#272 = VERTEX_POINT('',#273);
#273 = CARTESIAN_POINT('',(55.14,-94.865,0.));
#274 = CIRCLE('',#275,0.325);
#275 = AXIS2_PLACEMENT_3D('',#276,#277,#278);
#276 = CARTESIAN_POINT('',(55.14,-94.54,0.));
#277 = DIRECTION('',(-0.,0.,-1.));
#278 = DIRECTION('',(-0.,-1.,0.));
#279 = FACE_BOUND('',#280,.F.);
#280 = EDGE_LOOP('',(#281,#292,#300,#309));
#281 = ORIENTED_EDGE('',*,*,#282,.T.);
#282 = EDGE_CURVE('',#283,#285,#287,.T.);
#283 = VERTEX_POINT('',#284);
#284 = CARTESIAN_POINT('',(56.920012,-94.559987,0.));
#285 = VERTEX_POINT('',#286);
#286 = CARTESIAN_POINT('',(56.219988,-94.559987,0.));
#287 = CIRCLE('',#288,0.350012);
#288 = AXIS2_PLACEMENT_3D('',#289,#290,#291);
#289 = CARTESIAN_POINT('',(56.57,-94.559987,0.));
#290 = DIRECTION('',(-0.,0.,-1.));
#291 = DIRECTION('',(-1.,-4.060105000743E-14,0.));
#292 = ORIENTED_EDGE('',*,*,#293,.T.);
#293 = EDGE_CURVE('',#285,#294,#296,.T.);
#294 = VERTEX_POINT('',#295);
#295 = CARTESIAN_POINT('',(56.219988,-93.560013,0.));
#296 = LINE('',#297,#298);
#297 = CARTESIAN_POINT('',(56.219988,-46.7800065,0.));
#298 = VECTOR('',#299,1.);
#299 = DIRECTION('',(-0.,1.,0.));
#300 = ORIENTED_EDGE('',*,*,#301,.T.);
#301 = EDGE_CURVE('',#294,#302,#304,.T.);
#302 = VERTEX_POINT('',#303);
#303 = CARTESIAN_POINT('',(56.920012,-93.560013,0.));
#304 = CIRCLE('',#305,0.350012);
#305 = AXIS2_PLACEMENT_3D('',#306,#307,#308);
#306 = CARTESIAN_POINT('',(56.57,-93.560013,0.));
#307 = DIRECTION('',(0.,-0.,-1.));
#308 = DIRECTION('',(1.,4.060105000743E-14,-0.));
#309 = ORIENTED_EDGE('',*,*,#310,.T.);
#310 = EDGE_CURVE('',#302,#283,#311,.T.);
#311 = LINE('',#312,#313);
#312 = CARTESIAN_POINT('',(56.920012,-47.2799935,0.));
#313 = VECTOR('',#314,1.);
#314 = DIRECTION('',(0.,-1.,0.));
#315 = PLANE('',#316);
#316 = AXIS2_PLACEMENT_3D('',#317,#318,#319);
#317 = CARTESIAN_POINT('',(0.,0.,0.));
#318 = DIRECTION('',(0.,0.,1.));
#319 = DIRECTION('',(1.,0.,-0.));
#320 = ADVANCED_FACE('',(#321,#332,#368,#404,#440,#451,#462),#498,.T.);
#321 = FACE_BOUND('',#322,.T.);
#322 = EDGE_LOOP('',(#323,#324,#325,#331));
#323 = ORIENTED_EDGE('',*,*,#49,.F.);
#324 = ORIENTED_EDGE('',*,*,#89,.F.);
#325 = ORIENTED_EDGE('',*,*,#326,.F.);
#326 = EDGE_CURVE('',#112,#82,#327,.T.);
#327 = LINE('',#328,#329);
#328 = CARTESIAN_POINT('',(31.5,-38.,1.51));
#329 = VECTOR('',#330,1.);
#330 = DIRECTION('',(1.,0.,0.));
#331 = ORIENTED_EDGE('',*,*,#111,.F.);
#332 = FACE_BOUND('',#333,.T.);
#333 = EDGE_LOOP('',(#334,#345,#353,#362));
#334 = ORIENTED_EDGE('',*,*,#335,.T.);
#335 = EDGE_CURVE('',#336,#338,#340,.T.);
#336 = VERTEX_POINT('',#337);
#337 = CARTESIAN_POINT('',(48.280012,-98.589987,1.51));
#338 = VERTEX_POINT('',#339);
#339 = CARTESIAN_POINT('',(47.579988,-98.589987,1.51));
#340 = CIRCLE('',#341,0.350012);
#341 = AXIS2_PLACEMENT_3D('',#342,#343,#344);
#342 = CARTESIAN_POINT('',(47.93,-98.589987,1.51));
#343 = DIRECTION('',(-0.,0.,-1.));
#344 = DIRECTION('',(-1.,4.060105000743E-14,0.));
#345 = ORIENTED_EDGE('',*,*,#346,.T.);
#346 = EDGE_CURVE('',#338,#347,#349,.T.);
#347 = VERTEX_POINT('',#348);
#348 = CARTESIAN_POINT('',(47.579988,-97.890013,1.51));
#349 = LINE('',#350,#351);
#350 = CARTESIAN_POINT('',(47.579988,-48.9450065,1.51));
#351 = VECTOR('',#352,1.);
#352 = DIRECTION('',(-0.,1.,0.));
#353 = ORIENTED_EDGE('',*,*,#354,.T.);
#354 = EDGE_CURVE('',#347,#355,#357,.T.);
#355 = VERTEX_POINT('',#356);
#356 = CARTESIAN_POINT('',(48.280012,-97.890013,1.51));
#357 = CIRCLE('',#358,0.350012);
#358 = AXIS2_PLACEMENT_3D('',#359,#360,#361);
#359 = CARTESIAN_POINT('',(47.93,-97.890013,1.51));
#360 = DIRECTION('',(0.,-0.,-1.));
#361 = DIRECTION('',(1.,4.060105000743E-14,-0.));
#362 = ORIENTED_EDGE('',*,*,#363,.T.);
#363 = EDGE_CURVE('',#355,#336,#364,.T.);
#364 = LINE('',#365,#366);
#365 = CARTESIAN_POINT('',(48.280012,-49.2949935,1.51));
#366 = VECTOR('',#367,1.);
#367 = DIRECTION('',(0.,-1.,0.));
#368 = FACE_BOUND('',#369,.T.);
#369 = EDGE_LOOP('',(#370,#381,#389,#398));
#370 = ORIENTED_EDGE('',*,*,#371,.T.);
#371 = EDGE_CURVE('',#372,#374,#376,.T.);
#372 = VERTEX_POINT('',#373);
#373 = CARTESIAN_POINT('',(56.920012,-98.589987,1.51));
#374 = VERTEX_POINT('',#375);
#375 = CARTESIAN_POINT('',(56.219988,-98.589987,1.51));
#376 = CIRCLE('',#377,0.350012);
#377 = AXIS2_PLACEMENT_3D('',#378,#379,#380);
#378 = CARTESIAN_POINT('',(56.57,-98.589987,1.51));
#379 = DIRECTION('',(-0.,0.,-1.));
#380 = DIRECTION('',(-1.,4.060105000743E-14,0.));
#381 = ORIENTED_EDGE('',*,*,#382,.T.);
#382 = EDGE_CURVE('',#374,#383,#385,.T.);
#383 = VERTEX_POINT('',#384);
#384 = CARTESIAN_POINT('',(56.219988,-97.890013,1.51));
#385 = LINE('',#386,#387);
#386 = CARTESIAN_POINT('',(56.219988,-48.9450065,1.51));
#387 = VECTOR('',#388,1.);
#388 = DIRECTION('',(-0.,1.,0.));
#389 = ORIENTED_EDGE('',*,*,#390,.T.);
#390 = EDGE_CURVE('',#383,#391,#393,.T.);
#391 = VERTEX_POINT('',#392);
#392 = CARTESIAN_POINT('',(56.920012,-97.890013,1.51));
#393 = CIRCLE('',#394,0.350012);
#394 = AXIS2_PLACEMENT_3D('',#395,#396,#397);
#395 = CARTESIAN_POINT('',(56.57,-97.890013,1.51));
#396 = DIRECTION('',(0.,-0.,-1.));
#397 = DIRECTION('',(1.,4.060105000743E-14,-0.));
#398 = ORIENTED_EDGE('',*,*,#399,.T.);
#399 = EDGE_CURVE('',#391,#372,#400,.T.);
#400 = LINE('',#401,#402);
#401 = CARTESIAN_POINT('',(56.920012,-49.2949935,1.51));
#402 = VECTOR('',#403,1.);
#403 = DIRECTION('',(0.,-1.,0.));
#404 = FACE_BOUND('',#405,.T.);
#405 = EDGE_LOOP('',(#406,#417,#425,#434));
#406 = ORIENTED_EDGE('',*,*,#407,.T.);
#407 = EDGE_CURVE('',#408,#410,#412,.T.);
#408 = VERTEX_POINT('',#409);
#409 = CARTESIAN_POINT('',(48.280012,-94.559987,1.51));
#410 = VERTEX_POINT('',#411);
#411 = CARTESIAN_POINT('',(47.579988,-94.559987,1.51));
#412 = CIRCLE('',#413,0.350012);
#413 = AXIS2_PLACEMENT_3D('',#414,#415,#416);
#414 = CARTESIAN_POINT('',(47.93,-94.559987,1.51));
#415 = DIRECTION('',(-0.,0.,-1.));
#416 = DIRECTION('',(-1.,-4.060105000743E-14,0.));
#417 = ORIENTED_EDGE('',*,*,#418,.T.);
#418 = EDGE_CURVE('',#410,#419,#421,.T.);
#419 = VERTEX_POINT('',#420);
#420 = CARTESIAN_POINT('',(47.579988,-93.560013,1.51));
#421 = LINE('',#422,#423);
#422 = CARTESIAN_POINT('',(47.579988,-46.7800065,1.51));
#423 = VECTOR('',#424,1.);
#424 = DIRECTION('',(-0.,1.,0.));
#425 = ORIENTED_EDGE('',*,*,#426,.T.);
#426 = EDGE_CURVE('',#419,#427,#429,.T.);
#427 = VERTEX_POINT('',#428);
#428 = CARTESIAN_POINT('',(48.280012,-93.560013,1.51));
#429 = CIRCLE('',#430,0.350012);
#430 = AXIS2_PLACEMENT_3D('',#431,#432,#433);
#431 = CARTESIAN_POINT('',(47.93,-93.560013,1.51));
#432 = DIRECTION('',(0.,-0.,-1.));
#433 = DIRECTION('',(1.,4.060105000743E-14,-0.));
#434 = ORIENTED_EDGE('',*,*,#435,.T.);
#435 = EDGE_CURVE('',#427,#408,#436,.T.);
#436 = LINE('',#437,#438);
#437 = CARTESIAN_POINT('',(48.280012,-47.2799935,1.51));
#438 = VECTOR('',#439,1.);
#439 = DIRECTION('',(0.,-1.,0.));
#440 = FACE_BOUND('',#441,.T.);
#441 = EDGE_LOOP('',(#442));
#442 = ORIENTED_EDGE('',*,*,#443,.T.);
#443 = EDGE_CURVE('',#444,#444,#446,.T.);
#444 = VERTEX_POINT('',#445);
#445 = CARTESIAN_POINT('',(49.36,-94.865,1.51));
#446 = CIRCLE('',#447,0.325);
#447 = AXIS2_PLACEMENT_3D('',#448,#449,#450);
#448 = CARTESIAN_POINT('',(49.36,-94.54,1.51));
#449 = DIRECTION('',(-0.,0.,-1.));
#450 = DIRECTION('',(-0.,-1.,0.));
#451 = FACE_BOUND('',#452,.T.);
#452 = EDGE_LOOP('',(#453));
#453 = ORIENTED_EDGE('',*,*,#454,.T.);
#454 = EDGE_CURVE('',#455,#455,#457,.T.);
#455 = VERTEX_POINT('',#456);
#456 = CARTESIAN_POINT('',(55.14,-94.865,1.51));
#457 = CIRCLE('',#458,0.325);
#458 = AXIS2_PLACEMENT_3D('',#459,#460,#461);
#459 = CARTESIAN_POINT('',(55.14,-94.54,1.51));
#460 = DIRECTION('',(-0.,0.,-1.));
#461 = DIRECTION('',(-0.,-1.,0.));
#462 = FACE_BOUND('',#463,.T.);
#463 = EDGE_LOOP('',(#464,#475,#483,#492));
#464 = ORIENTED_EDGE('',*,*,#465,.T.);
#465 = EDGE_CURVE('',#466,#468,#470,.T.);
#466 = VERTEX_POINT('',#467);
#467 = CARTESIAN_POINT('',(56.920012,-94.559987,1.51));
#468 = VERTEX_POINT('',#469);
#469 = CARTESIAN_POINT('',(56.219988,-94.559987,1.51));
#470 = CIRCLE('',#471,0.350012);
#471 = AXIS2_PLACEMENT_3D('',#472,#473,#474);
#472 = CARTESIAN_POINT('',(56.57,-94.559987,1.51));
#473 = DIRECTION('',(-0.,0.,-1.));
#474 = DIRECTION('',(-1.,-4.060105000743E-14,0.));
#475 = ORIENTED_EDGE('',*,*,#476,.T.);
#476 = EDGE_CURVE('',#468,#477,#479,.T.);
#477 = VERTEX_POINT('',#478);
#478 = CARTESIAN_POINT('',(56.219988,-93.560013,1.51));
#479 = LINE('',#480,#481);
#480 = CARTESIAN_POINT('',(56.219988,-46.7800065,1.51));
#481 = VECTOR('',#482,1.);
#482 = DIRECTION('',(-0.,1.,0.));
#483 = ORIENTED_EDGE('',*,*,#484,.T.);
#484 = EDGE_CURVE('',#477,#485,#487,.T.);
#485 = VERTEX_POINT('',#486);
#486 = CARTESIAN_POINT('',(56.920012,-93.560013,1.51));
#487 = CIRCLE('',#488,0.350012);
#488 = AXIS2_PLACEMENT_3D('',#489,#490,#491);
#489 = CARTESIAN_POINT('',(56.57,-93.560013,1.51));
#490 = DIRECTION('',(0.,-0.,-1.));
#491 = DIRECTION('',(1.,4.060105000743E-14,-0.));
#492 = ORIENTED_EDGE('',*,*,#493,.T.);
#493 = EDGE_CURVE('',#485,#466,#494,.T.);
#494 = LINE('',#495,#496);
#495 = CARTESIAN_POINT('',(56.920012,-47.2799935,1.51));
#496 = VECTOR('',#497,1.);
#497 = DIRECTION('',(0.,-1.,0.));
#498 = PLANE('',#499);
#499 = AXIS2_PLACEMENT_3D('',#500,#501,#502);
#500 = CARTESIAN_POINT('',(0.,0.,1.51));
#501 = DIRECTION('',(0.,0.,1.));
#502 = DIRECTION('',(1.,0.,-0.));
#503 = ADVANCED_FACE('',(#504),#510,.T.);
#504 = FACE_BOUND('',#505,.T.);
#505 = EDGE_LOOP('',(#506,#507,#508,#509));
#506 = ORIENTED_EDGE('',*,*,#119,.T.);
#507 = ORIENTED_EDGE('',*,*,#326,.T.);
#508 = ORIENTED_EDGE('',*,*,#79,.F.);
#509 = ORIENTED_EDGE('',*,*,#143,.F.);
#510 = PLANE('',#511);
#511 = AXIS2_PLACEMENT_3D('',#512,#513,#514);
#512 = CARTESIAN_POINT('',(31.5,-38.,0.));
#513 = DIRECTION('',(0.,1.,0.));
#514 = DIRECTION('',(1.,0.,0.));
#515 = ADVANCED_FACE('',(#516),#532,.F.);
#516 = FACE_BOUND('',#517,.T.);
#517 = EDGE_LOOP('',(#518,#519,#525,#526));
#518 = ORIENTED_EDGE('',*,*,#152,.T.);
#519 = ORIENTED_EDGE('',*,*,#520,.T.);
#520 = EDGE_CURVE('',#155,#338,#521,.T.);
#521 = LINE('',#522,#523);
#522 = CARTESIAN_POINT('',(47.579988,-98.589987,-4.6E-02));
#523 = VECTOR('',#524,1.);
#524 = DIRECTION('',(0.,0.,1.));
#525 = ORIENTED_EDGE('',*,*,#335,.F.);
#526 = ORIENTED_EDGE('',*,*,#527,.F.);
#527 = EDGE_CURVE('',#153,#336,#528,.T.);
#528 = LINE('',#529,#530);
#529 = CARTESIAN_POINT('',(48.280012,-98.589987,-4.6E-02));
#530 = VECTOR('',#531,1.);
#531 = DIRECTION('',(0.,0.,1.));
#532 = CYLINDRICAL_SURFACE('',#533,0.350012);
#533 = AXIS2_PLACEMENT_3D('',#534,#535,#536);
#534 = CARTESIAN_POINT('',(47.93,-98.589987,-4.6E-02));
#535 = DIRECTION('',(-0.,-0.,-1.));
#536 = DIRECTION('',(-1.,4.060105000743E-14,-0.));
#537 = ADVANCED_FACE('',(#538),#549,.T.);
#538 = FACE_BOUND('',#539,.T.);
#539 = EDGE_LOOP('',(#540,#541,#542,#543));
#540 = ORIENTED_EDGE('',*,*,#180,.T.);
#541 = ORIENTED_EDGE('',*,*,#527,.T.);
#542 = ORIENTED_EDGE('',*,*,#363,.F.);
#543 = ORIENTED_EDGE('',*,*,#544,.F.);
#544 = EDGE_CURVE('',#172,#355,#545,.T.);
#545 = LINE('',#546,#547);
#546 = CARTESIAN_POINT('',(48.280012,-97.890013,-4.6E-02));
#547 = VECTOR('',#548,1.);
#548 = DIRECTION('',(0.,0.,1.));
#549 = PLANE('',#550);
#550 = AXIS2_PLACEMENT_3D('',#551,#552,#553);
#551 = CARTESIAN_POINT('',(48.280012,-98.589987,-4.6E-02));
#552 = DIRECTION('',(-1.,0.,0.));
#553 = DIRECTION('',(0.,1.,0.));
#554 = ADVANCED_FACE('',(#555),#566,.F.);
#555 = FACE_BOUND('',#556,.T.);
#556 = EDGE_LOOP('',(#557,#558,#559,#560));
#557 = ORIENTED_EDGE('',*,*,#171,.T.);
#558 = ORIENTED_EDGE('',*,*,#544,.T.);
#559 = ORIENTED_EDGE('',*,*,#354,.F.);
#560 = ORIENTED_EDGE('',*,*,#561,.F.);
#561 = EDGE_CURVE('',#164,#347,#562,.T.);
#562 = LINE('',#563,#564);
#563 = CARTESIAN_POINT('',(47.579988,-97.890013,-4.6E-02));
#564 = VECTOR('',#565,1.);
#565 = DIRECTION('',(0.,0.,1.));
#566 = CYLINDRICAL_SURFACE('',#567,0.350012);
#567 = AXIS2_PLACEMENT_3D('',#568,#569,#570);
#568 = CARTESIAN_POINT('',(47.93,-97.890013,-4.6E-02));
#569 = DIRECTION('',(-0.,-0.,-1.));
#570 = DIRECTION('',(1.,4.060105000743E-14,-0.));
#571 = ADVANCED_FACE('',(#572),#578,.T.);
#572 = FACE_BOUND('',#573,.T.);
#573 = EDGE_LOOP('',(#574,#575,#576,#577));
#574 = ORIENTED_EDGE('',*,*,#163,.T.);
#575 = ORIENTED_EDGE('',*,*,#561,.T.);
#576 = ORIENTED_EDGE('',*,*,#346,.F.);
#577 = ORIENTED_EDGE('',*,*,#520,.F.);
#578 = PLANE('',#579);
#579 = AXIS2_PLACEMENT_3D('',#580,#581,#582);
#580 = CARTESIAN_POINT('',(47.579988,-97.890013,-4.6E-02));
#581 = DIRECTION('',(1.,0.,-0.));
#582 = DIRECTION('',(0.,-1.,0.));
#583 = ADVANCED_FACE('',(#584),#600,.F.);
#584 = FACE_BOUND('',#585,.T.);
#585 = EDGE_LOOP('',(#586,#587,#593,#594));
#586 = ORIENTED_EDGE('',*,*,#188,.T.);
#587 = ORIENTED_EDGE('',*,*,#588,.T.);
#588 = EDGE_CURVE('',#191,#374,#589,.T.);
#589 = LINE('',#590,#591);
#590 = CARTESIAN_POINT('',(56.219988,-98.589987,-4.6E-02));
#591 = VECTOR('',#592,1.);
#592 = DIRECTION('',(0.,0.,1.));
#593 = ORIENTED_EDGE('',*,*,#371,.F.);
#594 = ORIENTED_EDGE('',*,*,#595,.F.);
#595 = EDGE_CURVE('',#189,#372,#596,.T.);
#596 = LINE('',#597,#598);
#597 = CARTESIAN_POINT('',(56.920012,-98.589987,-4.6E-02));
#598 = VECTOR('',#599,1.);
#599 = DIRECTION('',(0.,0.,1.));
#600 = CYLINDRICAL_SURFACE('',#601,0.350012);
#601 = AXIS2_PLACEMENT_3D('',#602,#603,#604);
#602 = CARTESIAN_POINT('',(56.57,-98.589987,-4.6E-02));
#603 = DIRECTION('',(-0.,-0.,-1.));
#604 = DIRECTION('',(-1.,4.060105000743E-14,-0.));
#605 = ADVANCED_FACE('',(#606),#617,.T.);
#606 = FACE_BOUND('',#607,.T.);
#607 = EDGE_LOOP('',(#608,#609,#610,#611));
#608 = ORIENTED_EDGE('',*,*,#216,.T.);
#609 = ORIENTED_EDGE('',*,*,#595,.T.);
#610 = ORIENTED_EDGE('',*,*,#399,.F.);
#611 = ORIENTED_EDGE('',*,*,#612,.F.);
#612 = EDGE_CURVE('',#208,#391,#613,.T.);
#613 = LINE('',#614,#615);
#614 = CARTESIAN_POINT('',(56.920012,-97.890013,-4.6E-02));
#615 = VECTOR('',#616,1.);
#616 = DIRECTION('',(0.,0.,1.));
#617 = PLANE('',#618);
#618 = AXIS2_PLACEMENT_3D('',#619,#620,#621);
#619 = CARTESIAN_POINT('',(56.920012,-98.589987,-4.6E-02));
#620 = DIRECTION('',(-1.,0.,0.));
#621 = DIRECTION('',(0.,1.,0.));
#622 = ADVANCED_FACE('',(#623),#634,.F.);
#623 = FACE_BOUND('',#624,.T.);
#624 = EDGE_LOOP('',(#625,#626,#627,#628));
#625 = ORIENTED_EDGE('',*,*,#207,.T.);
#626 = ORIENTED_EDGE('',*,*,#612,.T.);
#627 = ORIENTED_EDGE('',*,*,#390,.F.);
#628 = ORIENTED_EDGE('',*,*,#629,.F.);
#629 = EDGE_CURVE('',#200,#383,#630,.T.);
#630 = LINE('',#631,#632);
#631 = CARTESIAN_POINT('',(56.219988,-97.890013,-4.6E-02));
#632 = VECTOR('',#633,1.);
#633 = DIRECTION('',(0.,0.,1.));
#634 = CYLINDRICAL_SURFACE('',#635,0.350012);
#635 = AXIS2_PLACEMENT_3D('',#636,#637,#638);
#636 = CARTESIAN_POINT('',(56.57,-97.890013,-4.6E-02));
#637 = DIRECTION('',(-0.,-0.,-1.));
#638 = DIRECTION('',(1.,4.060105000743E-14,-0.));
#639 = ADVANCED_FACE('',(#640),#646,.T.);
#640 = FACE_BOUND('',#641,.T.);
#641 = EDGE_LOOP('',(#642,#643,#644,#645));
#642 = ORIENTED_EDGE('',*,*,#199,.T.);
#643 = ORIENTED_EDGE('',*,*,#629,.T.);
#644 = ORIENTED_EDGE('',*,*,#382,.F.);
#645 = ORIENTED_EDGE('',*,*,#588,.F.);
#646 = PLANE('',#647);
#647 = AXIS2_PLACEMENT_3D('',#648,#649,#650);
#648 = CARTESIAN_POINT('',(56.219988,-97.890013,-4.6E-02));
#649 = DIRECTION('',(1.,0.,-0.));
#650 = DIRECTION('',(0.,-1.,0.));
#651 = ADVANCED_FACE('',(#652),#668,.F.);
#652 = FACE_BOUND('',#653,.T.);
#653 = EDGE_LOOP('',(#654,#655,#661,#662));
#654 = ORIENTED_EDGE('',*,*,#224,.T.);
#655 = ORIENTED_EDGE('',*,*,#656,.T.);
#656 = EDGE_CURVE('',#227,#410,#657,.T.);
#657 = LINE('',#658,#659);
#658 = CARTESIAN_POINT('',(47.579988,-94.559987,-4.6E-02));
#659 = VECTOR('',#660,1.);
#660 = DIRECTION('',(0.,0.,1.));
#661 = ORIENTED_EDGE('',*,*,#407,.F.);
#662 = ORIENTED_EDGE('',*,*,#663,.F.);
#663 = EDGE_CURVE('',#225,#408,#664,.T.);
#664 = LINE('',#665,#666);
#665 = CARTESIAN_POINT('',(48.280012,-94.559987,-4.6E-02));
#666 = VECTOR('',#667,1.);
#667 = DIRECTION('',(0.,0.,1.));
#668 = CYLINDRICAL_SURFACE('',#669,0.350012);
#669 = AXIS2_PLACEMENT_3D('',#670,#671,#672);
#670 = CARTESIAN_POINT('',(47.93,-94.559987,-4.6E-02));
#671 = DIRECTION('',(-0.,-0.,-1.));
#672 = DIRECTION('',(-1.,-4.060105000743E-14,0.));
#673 = ADVANCED_FACE('',(#674),#685,.T.);
#674 = FACE_BOUND('',#675,.T.);
#675 = EDGE_LOOP('',(#676,#677,#678,#679));
#676 = ORIENTED_EDGE('',*,*,#252,.T.);
#677 = ORIENTED_EDGE('',*,*,#663,.T.);
#678 = ORIENTED_EDGE('',*,*,#435,.F.);
#679 = ORIENTED_EDGE('',*,*,#680,.F.);
#680 = EDGE_CURVE('',#244,#427,#681,.T.);
#681 = LINE('',#682,#683);
#682 = CARTESIAN_POINT('',(48.280012,-93.560013,-4.6E-02));
#683 = VECTOR('',#684,1.);
#684 = DIRECTION('',(0.,0.,1.));
#685 = PLANE('',#686);
#686 = AXIS2_PLACEMENT_3D('',#687,#688,#689);
#687 = CARTESIAN_POINT('',(48.280012,-94.559987,-4.6E-02));
#688 = DIRECTION('',(-1.,0.,0.));
#689 = DIRECTION('',(0.,1.,0.));
#690 = ADVANCED_FACE('',(#691),#702,.F.);
#691 = FACE_BOUND('',#692,.T.);
#692 = EDGE_LOOP('',(#693,#694,#695,#696));
#693 = ORIENTED_EDGE('',*,*,#243,.T.);
#694 = ORIENTED_EDGE('',*,*,#680,.T.);
#695 = ORIENTED_EDGE('',*,*,#426,.F.);
#696 = ORIENTED_EDGE('',*,*,#697,.F.);
#697 = EDGE_CURVE('',#236,#419,#698,.T.);
#698 = LINE('',#699,#700);
#699 = CARTESIAN_POINT('',(47.579988,-93.560013,-4.6E-02));
#700 = VECTOR('',#701,1.);
#701 = DIRECTION('',(0.,0.,1.));
#702 = CYLINDRICAL_SURFACE('',#703,0.350012);
#703 = AXIS2_PLACEMENT_3D('',#704,#705,#706);
#704 = CARTESIAN_POINT('',(47.93,-93.560013,-4.6E-02));
#705 = DIRECTION('',(-0.,-0.,-1.));
#706 = DIRECTION('',(1.,4.060105000743E-14,-0.));
#707 = ADVANCED_FACE('',(#708),#714,.T.);
#708 = FACE_BOUND('',#709,.T.);
#709 = EDGE_LOOP('',(#710,#711,#712,#713));
#710 = ORIENTED_EDGE('',*,*,#235,.T.);
#711 = ORIENTED_EDGE('',*,*,#697,.T.);
#712 = ORIENTED_EDGE('',*,*,#418,.F.);
#713 = ORIENTED_EDGE('',*,*,#656,.F.);
#714 = PLANE('',#715);
#715 = AXIS2_PLACEMENT_3D('',#716,#717,#718);
#716 = CARTESIAN_POINT('',(47.579988,-93.560013,-4.6E-02));
#717 = DIRECTION('',(1.,0.,-0.));
#718 = DIRECTION('',(0.,-1.,0.));
#719 = ADVANCED_FACE('',(#720),#731,.F.);
#720 = FACE_BOUND('',#721,.T.);
#721 = EDGE_LOOP('',(#722,#723,#729,#730));
#722 = ORIENTED_EDGE('',*,*,#260,.T.);
#723 = ORIENTED_EDGE('',*,*,#724,.T.);
#724 = EDGE_CURVE('',#261,#444,#725,.T.);
#725 = LINE('',#726,#727);
#726 = CARTESIAN_POINT('',(49.36,-94.865,-4.6E-02));
#727 = VECTOR('',#728,1.);
#728 = DIRECTION('',(0.,0.,1.));
#729 = ORIENTED_EDGE('',*,*,#443,.F.);
#730 = ORIENTED_EDGE('',*,*,#724,.F.);
#731 = CYLINDRICAL_SURFACE('',#732,0.325);
#732 = AXIS2_PLACEMENT_3D('',#733,#734,#735);
#733 = CARTESIAN_POINT('',(49.36,-94.54,-4.6E-02));
#734 = DIRECTION('',(-0.,-0.,-1.));
#735 = DIRECTION('',(-0.,-1.,0.));
#736 = ADVANCED_FACE('',(#737),#748,.F.);
#737 = FACE_BOUND('',#738,.T.);
#738 = EDGE_LOOP('',(#739,#740,#746,#747));
#739 = ORIENTED_EDGE('',*,*,#271,.T.);
#740 = ORIENTED_EDGE('',*,*,#741,.T.);
#741 = EDGE_CURVE('',#272,#455,#742,.T.);
#742 = LINE('',#743,#744);
#743 = CARTESIAN_POINT('',(55.14,-94.865,-4.6E-02));
#744 = VECTOR('',#745,1.);
#745 = DIRECTION('',(0.,0.,1.));
#746 = ORIENTED_EDGE('',*,*,#454,.F.);
#747 = ORIENTED_EDGE('',*,*,#741,.F.);
#748 = CYLINDRICAL_SURFACE('',#749,0.325);
#749 = AXIS2_PLACEMENT_3D('',#750,#751,#752);
#750 = CARTESIAN_POINT('',(55.14,-94.54,-4.6E-02));
#751 = DIRECTION('',(-0.,-0.,-1.));
#752 = DIRECTION('',(-0.,-1.,0.));
#753 = ADVANCED_FACE('',(#754),#770,.F.);
#754 = FACE_BOUND('',#755,.T.);
#755 = EDGE_LOOP('',(#756,#757,#763,#764));
#756 = ORIENTED_EDGE('',*,*,#282,.T.);
#757 = ORIENTED_EDGE('',*,*,#758,.T.);
#758 = EDGE_CURVE('',#285,#468,#759,.T.);
#759 = LINE('',#760,#761);
#760 = CARTESIAN_POINT('',(56.219988,-94.559987,-4.6E-02));
#761 = VECTOR('',#762,1.);
#762 = DIRECTION('',(0.,0.,1.));
#763 = ORIENTED_EDGE('',*,*,#465,.F.);
#764 = ORIENTED_EDGE('',*,*,#765,.F.);
#765 = EDGE_CURVE('',#283,#466,#766,.T.);
#766 = LINE('',#767,#768);
#767 = CARTESIAN_POINT('',(56.920012,-94.559987,-4.6E-02));
#768 = VECTOR('',#769,1.);
#769 = DIRECTION('',(0.,0.,1.));
#770 = CYLINDRICAL_SURFACE('',#771,0.350012);
#771 = AXIS2_PLACEMENT_3D('',#772,#773,#774);
#772 = CARTESIAN_POINT('',(56.57,-94.559987,-4.6E-02));
#773 = DIRECTION('',(-0.,-0.,-1.));
#774 = DIRECTION('',(-1.,-4.060105000743E-14,0.));
#775 = ADVANCED_FACE('',(#776),#787,.T.);
#776 = FACE_BOUND('',#777,.T.);
#777 = EDGE_LOOP('',(#778,#779,#780,#781));
#778 = ORIENTED_EDGE('',*,*,#310,.T.);
#779 = ORIENTED_EDGE('',*,*,#765,.T.);
#780 = ORIENTED_EDGE('',*,*,#493,.F.);
#781 = ORIENTED_EDGE('',*,*,#782,.F.);
#782 = EDGE_CURVE('',#302,#485,#783,.T.);
#783 = LINE('',#784,#785);
#784 = CARTESIAN_POINT('',(56.920012,-93.560013,-4.6E-02));
#785 = VECTOR('',#786,1.);
#786 = DIRECTION('',(0.,0.,1.));
#787 = PLANE('',#788);
#788 = AXIS2_PLACEMENT_3D('',#789,#790,#791);
#789 = CARTESIAN_POINT('',(56.920012,-94.559987,-4.6E-02));
#790 = DIRECTION('',(-1.,0.,0.));
#791 = DIRECTION('',(0.,1.,0.));
#792 = ADVANCED_FACE('',(#793),#804,.F.);
#793 = FACE_BOUND('',#794,.T.);
#794 = EDGE_LOOP('',(#795,#796,#797,#798));
#795 = ORIENTED_EDGE('',*,*,#301,.T.);
#796 = ORIENTED_EDGE('',*,*,#782,.T.);
#797 = ORIENTED_EDGE('',*,*,#484,.F.);
#798 = ORIENTED_EDGE('',*,*,#799,.F.);
#799 = EDGE_CURVE('',#294,#477,#800,.T.);
#800 = LINE('',#801,#802);
#801 = CARTESIAN_POINT('',(56.219988,-93.560013,-4.6E-02));
#802 = VECTOR('',#803,1.);
#803 = DIRECTION('',(0.,0.,1.));
#804 = CYLINDRICAL_SURFACE('',#805,0.350012);
#805 = AXIS2_PLACEMENT_3D('',#806,#807,#808);
#806 = CARTESIAN_POINT('',(56.57,-93.560013,-4.6E-02));
#807 = DIRECTION('',(-0.,-0.,-1.));
#808 = DIRECTION('',(1.,4.060105000743E-14,-0.));
#809 = ADVANCED_FACE('',(#810),#816,.T.);
#810 = FACE_BOUND('',#811,.T.);
#811 = EDGE_LOOP('',(#812,#813,#814,#815));
#812 = ORIENTED_EDGE('',*,*,#293,.T.);
#813 = ORIENTED_EDGE('',*,*,#799,.T.);
#814 = ORIENTED_EDGE('',*,*,#476,.F.);
#815 = ORIENTED_EDGE('',*,*,#758,.F.);
#816 = PLANE('',#817);
#817 = AXIS2_PLACEMENT_3D('',#818,#819,#820);
#818 = CARTESIAN_POINT('',(56.219988,-93.560013,-4.6E-02));
#819 = DIRECTION('',(1.,0.,-0.));
#820 = DIRECTION('',(0.,-1.,0.));
#821 = ( GEOMETRIC_REPRESENTATION_CONTEXT(3) 
GLOBAL_UNCERTAINTY_ASSIGNED_CONTEXT((#825)) GLOBAL_UNIT_ASSIGNED_CONTEXT
((#822,#823,#824)) REPRESENTATION_CONTEXT('Context #1',
  '3D Context with UNIT and UNCERTAINTY') );
#822 = ( LENGTH_UNIT() NAMED_UNIT(*) SI_UNIT(.MILLI.,.METRE.) );
#823 = ( NAMED_UNIT(*) PLANE_ANGLE_UNIT() SI_UNIT($,.RADIAN.) );
#824 = ( NAMED_UNIT(*) SI_UNIT($,.STERADIAN.) SOLID_ANGLE_UNIT() );
#825 = UNCERTAINTY_MEASURE_WITH_UNIT(LENGTH_MEASURE(1.E-07),#822,
  'distance_accuracy_value','confusion accuracy');
#826 = CONTEXT_DEPENDENT_SHAPE_REPRESENTATION(#827,#829);
#827 = ( REPRESENTATION_RELATIONSHIP('','',#32,#10) 
REPRESENTATION_RELATIONSHIP_WITH_TRANSFORMATION(#828) 
SHAPE_REPRESENTATION_RELATIONSHIP() );
#828 = ITEM_DEFINED_TRANSFORMATION('','',#11,#15);
#829 = PRODUCT_DEFINITION_SHAPE('Placement','Placement of an item',#830
  );
#830 = NEXT_ASSEMBLY_USAGE_OCCURRENCE('1','=>[0:1:1:2]','',#5,#27,$);
#831 = PRODUCT_RELATED_PRODUCT_CATEGORY('part',$,(#29));
#832 = MECHANICAL_DESIGN_GEOMETRIC_PRESENTATION_REPRESENTATION('',(#833)
  ,#821);
#833 = STYLED_ITEM('color',(#834),#33);
#834 = PRESENTATION_STYLE_ASSIGNMENT((#835));
#835 = SURFACE_STYLE_USAGE(.BOTH.,#836);
#836 = SURFACE_SIDE_STYLE('',(#837));
#837 = SURFACE_STYLE_FILL_AREA(#838);
#838 = FILL_AREA_STYLE('',(#839));
#839 = FILL_AREA_STYLE_COLOUR('',#840);
#840 = COLOUR_RGB('',0.313304153717,0.484529207832,0.410020903123);
ENDSEC;
END-ISO-10303-21;
