%TF.GenerationSoftware,KiCad,Pcbnew,9.0.7*%
%TF.CreationDate,2026-06-01T23:56:46+02:00*%
%TF.ProjectId,flysys_vario,666c7973-7973-45f7-9661-72696f2e6b69,rev?*%
%TF.SameCoordinates,Original*%
%TF.FileFunction,Plated,1,2,PTH,Mixed*%
%TF.FilePolarity,Positive*%
%FSLAX46Y46*%
G04 Gerber Fmt 4.6, Leading zero omitted, Abs format (unit mm)*
G04 Created by KiCad (PCBNEW 9.0.7) date 2026-06-01 23:56:46*
%MOMM*%
%LPD*%
G01*
G04 APERTURE LIST*
%TA.AperFunction,ViaDrill*%
%ADD10C,0.600000*%
%TD*%
%TA.AperFunction,ComponentDrill*%
%ADD11C,0.650000*%
%TD*%
G04 aperture for slot hole*
%TA.AperFunction,ComponentDrill*%
%ADD12C,0.700024*%
%TD*%
G04 APERTURE END LIST*
D10*
X33484200Y-63228400D03*
X34734800Y-54494900D03*
X35193200Y-57444200D03*
X35553100Y-48622500D03*
X37644600Y-50549200D03*
X38365600Y-60578300D03*
X40276400Y-55004000D03*
X40500000Y-48517900D03*
X41268300Y-59983800D03*
X42850000Y-77133100D03*
X44883300Y-78808200D03*
X45268600Y-62215900D03*
X46506900Y-54523200D03*
X46507300Y-50350000D03*
X47731600Y-58710800D03*
X48364200Y-75299800D03*
X49234000Y-69573700D03*
X49693900Y-58490900D03*
X50552000Y-73422800D03*
X52277200Y-65644800D03*
X53428900Y-64068500D03*
X54905400Y-86789800D03*
X55932100Y-79249000D03*
X58195200Y-68595800D03*
X58995900Y-91918900D03*
X60929700Y-86474100D03*
X61277600Y-58210200D03*
X64260700Y-65479100D03*
X66274700Y-56394900D03*
X67495700Y-54536100D03*
X68072100Y-64355400D03*
D11*
%TO.C,USB1*%
X49360000Y-94540000D03*
X55140000Y-94540000D03*
D12*
X47930000Y-94559986D02*
X47930000Y-93560014D01*
X47930000Y-98589986D02*
X47930000Y-97890014D01*
X56570000Y-94559986D02*
X56570000Y-93560014D01*
X56570000Y-98589986D02*
X56570000Y-97890014D01*
M02*
