M48
; DRILL file {KiCad 9.0.7} date 2026-06-01T23:56:32+0200
; FORMAT={-:-/ absolute / metric / decimal}
; #@! TF.CreationDate,2026-06-01T23:56:32+02:00
; #@! TF.GenerationSoftware,Kicad,Pcbnew,9.0.7
; #@! TF.FileFunction,Plated,1,2,PTH
FMAT,2
METRIC
; #@! TA.AperFunction,Plated,PTH,ViaDrill
T1C0.600
; #@! TA.AperFunction,Plated,PTH,ComponentDrill
T2C0.650
; #@! TA.AperFunction,Plated,PTH,ComponentDrill
T3C0.700
%
G90
G05
T1
X33.484Y-63.228
X34.735Y-54.495
X35.193Y-57.444
X35.553Y-48.622
X37.645Y-50.549
X38.366Y-60.578
X40.276Y-55.004
X40.5Y-48.518
X41.268Y-59.984
X42.85Y-77.133
X44.883Y-78.808
X45.269Y-62.216
X46.507Y-54.523
X46.507Y-50.35
X47.732Y-58.711
X48.364Y-75.3
X49.234Y-69.574
X49.694Y-58.491
X50.552Y-73.423
X52.277Y-65.645
X53.429Y-64.069
X54.905Y-86.79
X55.932Y-79.249
X58.195Y-68.596
X58.996Y-91.919
X60.93Y-86.474
X61.278Y-58.21
X64.261Y-65.479
X66.275Y-56.395
X67.496Y-54.536
X68.072Y-64.355
T2
X49.36Y-94.54
X55.14Y-94.54
T3
G00X47.93Y-93.56
M15
G01X47.93Y-94.56
M16
G05
G00X47.93Y-97.89
M15
G01X47.93Y-98.59
M16
G05
G00X56.57Y-93.56
M15
G01X56.57Y-94.56
M16
G05
G00X56.57Y-97.89
M15
G01X56.57Y-98.59
M16
G05
M30
